/* XPM */
static char *_5575f2aaed34c10e25fe6fc36ee070644du8eoBNPx6CuRa[] = {
/* columns rows colors chars-per-pixel */
"64 64 256 2 ",
"   c black",
".  c #010101",
"X  c #020202",
"o  c gray1",
"O  c #040404",
"+  c gray2",
"@  c #060606",
"#  c #070707",
"$  c gray3",
"%  c #090909",
"&  c gray4",
"*  c #0B0B0B",
"=  c #0C0C0C",
"-  c gray5",
";  c #0E0E0E",
":  c gray6",
">  c #101010",
",  c #111111",
"<  c gray7",
"1  c #131313",
"2  c gray8",
"3  c #151515",
"4  c #161616",
"5  c gray9",
"6  c #181818",
"7  c #191919",
"8  c gray10",
"9  c #1B1B1B",
"0  c gray11",
"q  c #1D1D1D",
"w  c #1E1E1E",
"e  c gray12",
"r  c #202020",
"t  c gray13",
"y  c #222222",
"u  c #232323",
"i  c gray14",
"p  c #252525",
"a  c gray15",
"s  c #272727",
"d  c #282828",
"f  c gray16",
"g  c #2A2A2A",
"h  c gray17",
"j  c #2C2C2C",
"k  c #2D2D2D",
"l  c gray18",
"z  c #2F2F2F",
"x  c gray19",
"c  c #313131",
"v  c #323232",
"b  c gray20",
"n  c #343434",
"m  c #353535",
"M  c gray21",
"N  c #373737",
"B  c gray22",
"V  c #393939",
"C  c #3A3A3A",
"Z  c gray23",
"A  c #3C3C3C",
"S  c gray24",
"D  c #3E3E3E",
"F  c #3F3F3F",
"G  c gray25",
"H  c #414141",
"J  c gray26",
"K  c #434343",
"L  c #444444",
"P  c gray27",
"I  c #464646",
"U  c gray28",
"Y  c #484848",
"T  c #494949",
"R  c gray29",
"E  c #4B4B4B",
"W  c #4C4C4C",
"Q  c gray30",
"!  c #4E4E4E",
"~  c gray31",
"^  c #505050",
"/  c #515151",
"(  c gray32",
")  c #535353",
"_  c gray33",
"`  c #555555",
"'  c #565656",
"]  c gray34",
"[  c #585858",
"{  c gray35",
"}  c #5A5A5A",
"|  c #5B5B5B",
" . c gray36",
".. c #5D5D5D",
"X. c gray37",
"o. c #5F5F5F",
"O. c #606060",
"+. c gray38",
"@. c #626262",
"#. c gray39",
"$. c #646464",
"%. c #656565",
"&. c gray40",
"*. c #676767",
"=. c #686868",
"-. c DimGray",
";. c #6A6A6A",
":. c gray42",
">. c #6C6C6C",
",. c #6D6D6D",
"<. c gray43",
"1. c #6F6F6F",
"2. c gray44",
"3. c #717171",
"4. c #727272",
"5. c gray45",
"6. c #747474",
"7. c gray46",
"8. c #767676",
"9. c #777777",
"0. c gray47",
"q. c #797979",
"w. c gray48",
"e. c #7B7B7B",
"r. c #7C7C7C",
"t. c gray49",
"y. c #7E7E7E",
"u. c gray50",
"i. c #808080",
"p. c #818181",
"a. c gray51",
"s. c #838383",
"d. c #848484",
"f. c gray52",
"g. c #868686",
"h. c gray53",
"j. c #888888",
"k. c #898989",
"l. c gray54",
"z. c #8B8B8B",
"x. c gray55",
"c. c #8D8D8D",
"v. c #8E8E8E",
"b. c gray56",
"n. c #909090",
"m. c gray57",
"M. c #929292",
"N. c #939393",
"B. c gray58",
"V. c #959595",
"C. c gray59",
"Z. c #979797",
"A. c #989898",
"S. c gray60",
"D. c #9A9A9A",
"F. c #9B9B9B",
"G. c gray61",
"H. c #9D9D9D",
"J. c gray62",
"K. c #9F9F9F",
"L. c #A0A0A0",
"P. c gray63",
"I. c #A2A2A2",
"U. c gray64",
"Y. c #A4A4A4",
"T. c #A5A5A5",
"R. c gray65",
"E. c #A7A7A7",
"W. c gray66",
"Q. c #A9A9A9",
"!. c #AAAAAA",
"~. c gray67",
"^. c #ACACAC",
"/. c gray68",
"(. c #AEAEAE",
"). c #AFAFAF",
"_. c gray69",
"`. c #B1B1B1",
"'. c #B2B2B2",
"]. c gray70",
"[. c #B4B4B4",
"{. c gray71",
"}. c #B6B6B6",
"|. c #B7B7B7",
" X c gray72",
".X c #B9B9B9",
"XX c gray73",
"oX c #BBBBBB",
"OX c #BCBCBC",
"+X c gray74",
"@X c gray",
"#X c gray75",
"$X c #C0C0C0",
"%X c #C1C1C1",
"&X c gray76",
"*X c #C3C3C3",
"=X c gray77",
"-X c #C5C5C5",
";X c #C6C6C6",
":X c gray78",
">X c #C8C8C8",
",X c gray79",
"<X c #CACACA",
"1X c #CBCBCB",
"2X c gray80",
"3X c #CDCDCD",
"4X c #CECECE",
"5X c gray81",
"6X c #D0D0D0",
"7X c gray82",
"8X c #D2D2D2",
"9X c LightGray",
"0X c gray83",
"qX c #D5D5D5",
"wX c gray84",
"eX c #D7D7D7",
"rX c #D8D8D8",
"tX c gray85",
"yX c #DADADA",
"uX c gray86",
"iX c gainsboro",
"pX c #DDDDDD",
"aX c gray87",
"sX c #DFDFDF",
"dX c gray88",
"fX c #E1E1E1",
"gX c #E2E2E2",
"hX c gray89",
"jX c #E4E4E4",
"kX c gray90",
"lX c #E6E6E6",
"zX c #E7E7E7",
"xX c gray91",
"cX c #E9E9E9",
"vX c #EAEAEA",
"bX c gray92",
"nX c #ECECEC",
"mX c gray93",
"MX c #EEEEEE",
"NX c #EFEFEF",
"BX c gray94",
"VX c #F1F1F1",
"CX c gray95",
"ZX c #F3F3F3",
"AX c #F4F4F4",
"SX c gray96",
"DX c #F6F6F6",
"FX c gray97",
"GX c #F8F8F8",
"HX c #F9F9F9",
"JX c gray98",
"KX c #FBFBFB",
"LX c gray99",
"PX c #FDFDFD",
"IX c #FEFEFE",
"UX c white",
/* pixels */
"u.i.y.e.0.7.6.6.5.5.5.5.5.5.5.5.5.5.6.9.e.u.i.i.n.b.b.b.n.n.v.c.;.%.=.>.c.n.M.c.t.y.y.e.9.6.6.7.4.5.5.5.4.4.5.6.7.6.6.0.r.i.i.u.",
"u.u.y.e.8.5.4.4.9.9.9.9.9.9.9.9.9.9.9.w.y.p.p.p.v.v.c.v.b.v.c.z.:.*.-.>.x.v.b.l.u.i.u.r.9.6.5.6.0.0.0.9.8.8.8.8.5.5.6.9.t.i.p.p.",
"y.u.t.e.9.6.5.5.1.1.1.1.1.1.1.1.2.2.3.6.0.w.e.e.n.b.b.n.n.n.b.c.=.$.=.>.x.n.M.v.u.u.y.w.8.5.4.4.5.4.3.3.4.4.3.2.5.5.7.0.r.u.p.p.",
"y.u.u.t.w.0.0.0.t.t.t.t.t.t.t.t.t.t.y.i.d.g.h.h.n.n.b.n.m.n.b.c.:.=.>.<.c.b.M.v.d.d.s.p.y.r.e.e.4.3.2.5.9.w.q.9.0.0.0.q.e.r.r.r.",
"u.i.p.i.y.y.y.u.b.b.b.b.b.b.b.b.v.c.c.v.b.n.b.b.v.c.c.v.v.v.c.z.7.4.6.5.v.x.c.k.n.b.v.v.c.c.x.z.:.-.-.1.0.y.y.r.y.y.t.e.q.9.8.8.",
"u.i.p.p.i.i.p.a.n.n.n.n.n.n.n.n.B.N.m.n.n.b.v.x.m.n.b.n.m.m.b.v.6.4.7.7.n.b.m.v.N.M.m.M.N.N.N.M.*.$.$.>.0.i.i.t.a.a.i.r.0.6.4.4.",
"u.i.p.i.y.y.u.i.m.m.m.m.m.m.m.m.m.n.b.n.m.M.m.n.m.n.n.n.m.m.b.v.4.3.7.7.n.b.M.n.b.v.x.c.b.n.v.c.<.-.=.2.t.f.d.i.i.p.i.r.0.6.5.6.",
"u.u.u.y.r.e.e.e.j.j.j.j.j.j.j.j.w.w.r.i.d.j.k.k.z.l.k.l.z.z.k.h.e.q.w.8.c.k.k.f.b.c.z.z.c.c.z.k.#...| @.<.8.5.<.t.y.y.r.0.8.8.9.",
"p.a.u.0.<.=.=.;.4.2.2.4.7.7.2.>.v n b V 3.8.5.6.1.q.3.7.2.7.1.q.b.v.b.l.7.3.5.5.r.r.t.y.u.y.r.q.F G G A M m N Z e.r.y.u.i.i.p.a.",
"e.u.u.9.,.*.-.,.7.5.4.6.9.9.5.1.V V M S 4.0.5.3.4.0.1.7.2.9.2.8.j.x.n.k.9.3.8.w.y.y.u.i.p.i.y.e.D F F Z M m N C y.u.i.i.i.u.u.i.",
"r.i.i.0.:.#.$.-.6.4.4.5.7.7.4.1.n b v D <.q.8.7.4.8.2.0.3.w.7.w.n.N.C.l.t.3.6.9.u.u.u.i.p.i.y.r.G H G S V B C A u.i.i.i.i.u.y.y.",
"i.a.p.r.8.3.3.5.9.8.7.8.0.9.7.5.E W T ( ,.7.3.4.8.q.7.0.$.=.%.-.s.p.i.9.u.8.7.4.r.e.e.r.r.r.w.q.Y Y Y I K J K P e.e.r.t.u.i.u.u.",
"i.y.y.s.k.c.c.x.u.u.y.u.u.u.y.t.t.u.9.6.2.,.&.=.u.p.t.7.E L H L h d z S 5.i.g.a.9.8.7.7.8.8.7.6.9.9.9.8.6.6.6.7.7.6.8.q.y.p.p.i.",
"i.r.e.s.b.C.V.n.p.p.p.p.i.i.i.i.f.k.s.i.>.-.%.-.i.a.p.7.G m m B H N B F u.f.s.9.6.5.4.4.5.5.4.3.8.8.7.7.7.7.6.6.4.3.4.9.t.p.p.u.",
"p.t.r.a.x.n.c.j.u.u.u.y.t.t.y.y.9.r.q.r.%.;.-.1.r.t.i.0.L S H K j d l m e.i.s.y.9.7.6.6.7.7.6.6.6.6.6.6.7.7.6.5.7.5.5.9.r.u.y.r.",
"u.y.u.f.x.m.b.c.i.i.i.u.y.y.u.i.a.d.y.p.*.:.=.>.r.w.y.q.I J U P H H U K u.q.r.w.w.0.9.9.9.0.0.9.0.9.9.0.q.q.0.9.w.9.8.0.r.y.r.0.",
"p.y.y.s.x.m.m.v.b.c.n.l.w.6.9.7.4.w.3.9.4.0.2.q.q.5.4.9.6.q.0.3.7.3.7.9.5.7.0.6.b.n.m.m.n.b.b.b.x.c.v.v.v.v.v.v.m.b.x.v.-.;.=.&.",
"u.t.t.s.z.m.m.b.v.v.M.l.8.<.4.4.4.9.<.6.2.9.<.6.6.3.4.7.4.7.8.5.6.2.6.9.5.7.q.8.x.v.b.b.b.v.b.n.m.m.M.N.N.N.N.M.b.n.b.v.:.;.-.;.",
"i.u.u.d.x.m.M.n.b.n.V.x.9.<.4.6.6.8.1.0.4.e.7.q.q.9.0.8.9.6.7.5.6.3.7.9.4.6.0.7.v.n.m.m.m.m.M.B.z.x.c.c.v.c.c.c.m.N.M.x.,.=.*.-.",
"t.r.r.i.g.l.l.j.l.l.v.k.q.6.0.9.8.q.6.0.&.:.=.:.-.*.-.&.8.6.8.6.q.7.q.0.2.2.5.2.s.d.f.d.s.s.d.f.x.c.v.v.b.b.v.v.g.h.g.p.5.<.,.<.",
"7.5.5.7.0.w.w.q.a.y.p.p.e.e.y.w.r.t.w.6.! Y I Y L H I T 3.6.0.8.u.r.y.w.<.;.>.=.I I P K H G H J 4.4.5.6.6.6.6.5.,.,.1.2.e.r.y.y.",
"5.4.3.4.5.6.5.4.p.e.t.p.u.a.f.y.u.p.p.9.I S D G C N Z D 6.8.w.9.s.u.i.e.>.*.=.$.L L J F A Z A S 6.7.7.8.8.8.8.7.%.$.$.&.u.p.a.p.",
"8.7.7.7.8.8.8.7.a.t.i.p.t.u.a.t.t.t.i.w.T K Y T K G K F 9.5.8.6.p.y.i.e.>.&.=.&.R T Y P J H J L 2.3.3.4.4.4.4.4.;.;.-.%.p.t.r.e.",
"7.7.7.8.8.9.9.9.y.e.y.t.7.6.9.6.9.6.0.6.L G P K S S H C 4.;.<.1.y.r.u.w.>.*.;.=.K J H D A A D G 8.8.9.0.0.0.0.9.:.,.<.&.s.e.e.t.",
"n.b.b.v.v.c.x.x.s.u.u.9.Y U R L S D D A V N N B M B V M b b N Z t.s.s.y.y.s.i.9.Z m n B N v n A z.x.c.v.b.b.b.b.N.l.N.x.:.$.,.$.",
"n.n.b.b.v.v.v.c.i.i.i.9.I L Y L D D D A B M m M m N N m v v m V q.u.i.e.r.i.y.9.C n n B M v n A n.n.M.N.N.N.N.N.c.j.N.z.;.#.,.=.",
"n.n.n.n.n.n.n.n.y.p.i.6.P G H G G G F A V M m M m N N M b b M V t.a.s.u.u.s.p.r.N b b M m c b V z.z.x.c.v.v.v.c.b.c.V.z.;.O.=.&.",
"l.l.l.l.z.z.z.z.t.p.y.9.( / ~ ^ P P P K G D D D D F F D A A D G e.u.i.r.w.r.e.0.F S S F D Z A H x.c.v.v.b.b.v.v.c.z.b.h.3.-.,.:.",
"u.u.i.i.i.i.i.i.r.p.t.y.:.3.<.<.5.6.7.6.4.3.3.4.3.4.4.4.3.3.4.5.5.7.7.3.,.>.:.-.6.5.6.7.6.4.5.8.4.5.5.6.6.6.5.5.p.u.p.p.e.e.t.e.",
"y.y.y.y.t.t.t.t.u.f.t.i.8.y.8.8.6.7.8.8.6.6.7.8.7.7.7.7.7.7.7.7.6.7.6.2.;.*.*.*.6.7.7.8.7.5.6.8.7.7.8.8.8.8.7.7.y.t.r.y.p.s.a.p.",
"i.i.i.u.u.y.y.y.r.f.e.r.5.0.<.3.6.7.7.7.5.5.5.7.6.6.6.6.7.7.6.5.7.8.8.4.>.=.-.:.2.4.5.4.3.3.3.4.3.4.4.4.4.4.3.3.i.a.y.t.a.p.t.y.",
"y.y.t.t.r.e.e.e.3.u.0.q.3.9.1.8.9.9.0.9.7.6.6.7.7.7.7.7.8.8.7.6.,.<.<.:.%.+.@.&.7.0.q.0.9.9.9.9.9.9.0.0.0.9.9.8.e.i.y.t.p.u.t.a.",
"u.p.y.e.B L L A M V v J *.:.#.4.x.m.M.k.e.3.4.9.e.t.a.7.g.r.u.e.I I I P H D H Y x.c.x.b.v.n.v.v.b.b.b.b.b.b.b.b.b.b.b.b.b.b.b.b.",
"r.i.u.e.V J L F B B z G %.:.@.,.k.v.b.h.e.5.6.q.a.p.s.q.j.p.p.w.L K K K F A F P z.b.b.n.b.b.b.M.c.c.c.c.c.c.c.c.c.c.v.v.c.c.v.b.",
"w.u.y.8.N C Z B N m z H &.1.-.2.m.B.N.l.t.5.5.7.t.e.t.9.a.i.p.q.I P P P J F J U b.N.N.v.N.v.c.n.M.M.M.M.M.M.M.M.b.n.m.n.b.b.n.m.",
"y.i.y.0.T T R U S A B I O.=.$.-.x.v.c.f.w.5.4.5.a.a.d.t.0.9.q.4.K H J J G D F L p.d.s.i.C.M.n.M.z.z.z.z.z.z.z.z.b.m.m.n.c.z.x.c.",
"p.i.p.p.;.<.1.:.4.4.1.5.w.w.0.e.8.0.q.9.6.4.6.8.4.4.4.&.R K L G B m M N N n n B Z Z A G 2.5.4.4.0.0.0.0.0.0.0.0.x.c.c.l.d.i.i.a.",
"i.t.y.u.9.w.w.8.7.7.7.6.4.2.2.3.1.3.4.5.4.5.6.7.9.q.w.<.J A D Z v x x v v x x v x z z b 5.9.8.6.3.3.3.3.3.3.3.3.x.v.v.k.p.r.r.y.",
"u.r.r.w.8.4.3.1.6.4.7.7.4.6.9.6.7.7.7.7.6.6.6.6.4.4.6.,.D D H D M b b M N m n m N M m n 0.8.6.4.8.8.8.8.8.8.8.8.b.m.m.x.s.y.y.i.",
"u.u.p.t.e.6.7.8.q.6.7.9.6.9.q.4.3.3.3.5.7.8.9.9.q.8.8.4.H L I G B m m V C B N B B C C M e.8.7.8.6.6.6.6.6.6.6.6.x.b.b.l.a.t.t.i.",
"r.p.u.r.i.u.u.g.b.b.m.j.9.4.5.,.V N C H n.b.b.n.x.x.n.j.6.>.2.2.&.$.$.=.<.5.4.2.g.z.z.j.n.c.c.M.z.x.j.j.s.a.u.u.r.p.u.t.p.u.r.p.",
"t.p.y.e.y.t.e.p.x.x.b.h.0.6.8.2.D V V H v.v.x.l.x.x.m.l.q.4.8.8.%.$.$.=.1.5.5.4.M.B.m.v.M.n.x.v.n.B.M.x.s.t.e.u.p.s.u.t.p.i.r.t.",
"u.s.u.t.p.u.t.p.n.b.n.h.9.5.5.>.b l c G k.m.M.m.M.m.N.x.w.4.7.5.-.=.-.,.5.9.0.9.x.c.z.b.n.B.N.B.l.m.m.j.f.r.t.s.u.y.r.y.p.s.p.i.",
"q.r.q.q.p.p.y.a.c.x.c.g.0.7.7.<.G S G Q h.v.b.n.v.x.v.j.q.6.8.5.;.-.;.,.3.5.6.5.b.m.b.N.d.j.h.k.v.b.l.i.c.s.y.y.p.u.a.p.e.e.t.e.",
":.<.>.1.r.u.r.u.u.u.d.a.e.t.p.e.:.-.*.;.f.a.i.a.i.y.s.s.e.r.i.y.c.c.c.v.n.m.m.m.y.p.e.8.W U H L n n B L i.x.n.b.c.z.b.h.3.-.,.:.",
"$.*.%.>.r.p.y.i.r.r.p.p.e.u.s.t.w.q.9.0.a.y.r.i.u.r.i.a.t.u.d.p.b.b.b.b.b.b.b.b.a.f.p.r.K D V S Z m b D l.V.N.c.b.x.V.l.:.O.-.&.",
"*.-.*.,.y.d.i.i.i.u.a.p.e.y.i.q.3.1.1.8.t.i.p.f.s.y.p.a.t.y.p.r.n.m.m.m.n.n.n.m.0.e.q.e.G J F K n x x V z.N.N.b.x.h.M.z.:.#.<.-.",
"=.-.&.>.t.a.r.e.t.r.i.i.r.i.s.r.9.4.1.9.e.y.r.y.u.w.t.i.t.u.a.y.k.l.z.z.l.l.z.x.y.y.q.r.D H A A b n m B g.j.l.z.m.k.M.z.:.%.<.%.",
"p.i.t.w.9.6.5.5.5.q.8.5.8.6.5.q.8.8.4.6.5.8.6.6.7.6.5.7.8.8.4.1.I P Y D / Y W E U K J J N M M v M N V V V C A D 7.5.5.8.r.y.t.w.",
"r.y.u.r.9.6.8.q.5.7.4.2.5.4.1.4.<.2.2.3.5.6.6.9.5.4.4.6.8.7.5.2.Y K L Z E L P J S A G H C C D D N N B N N N B C 7.6.6.0.y.p.p.u.",
"r.u.i.e.6.1.2.5.7.7.6.6.9.0.0.q.q.e.q.5.0.5.3.5.4.4.5.6.7.7.5.3.C M V N P L Y P S S F V M x v v b n n v x x c v 1.<.1.6.w.t.t.r.",
"u.i.i.t.w.9.8.9.9.7.9.7.,.:.<.,.>.>.;.&.e.9.6.6.8.8.8.8.8.7.5.4.I L U P J G P L G S S N K S S Z Z Z Z C B B V C 7.7.8.w.y.p.p.i.",
"u.t.t.a.k.c.x.k.7.5.7.;.^ P T U A S F I q.u.u.u.r.r.e.q.9.6.5.4.1.,.,.O.G n m n B n B A %.-.>.-.9.9.0.9.8.8.0.q.k.k.l.x.v.b.b.b.",
"p.t.t.d.b.V.M.c.5.2.7.*.J n Z B l l x B r.s.a.i.i.i.y.e.9.6.5.5.q.q.w.,.A z c v m x n C 6.w.y.w.u.i.p.p.i.p.s.f.n.n.m.M.M.M.M.M.",
"a.u.y.d.x.n.x.h.7.1.9.:.I Z L F C V V Z a.p.y.r.u.i.u.e.9.6.5.6.1.1.4.>.B b N B N v n n 4.4.6.1.t.y.u.u.y.u.i.a.x.c.v.v.c.c.c.c.",
"t.t.i.g.x.n.b.c.q.1.8.:.I A L Z c n M N p.i.u.u.y.y.y.w.8.5.6.8.8.6.6.1.V n M n n v N m 7.5.0.8.u.u.i.u.y.y.i.p.c.v.n.n.n.b.b.n.",
"i.i.i.i.i.i.i.i.e.t.t.q.4.<.<.1.1.3.,.<.9.9.4.5.7.8.8.7.7.7.7.7.r.r.e.w.q.0.0.9.g.g.g.j.l.z.x.z.t.u.i.r.9.5.6.8.0.8.8.q.u.s.s.p.",
"u.u.u.u.u.u.u.u.u.i.i.r.8.4.4.6.3.8.6.5.q.0.7.q.6.6.7.7.7.7.7.8.i.i.i.i.i.i.i.i.x.x.x.c.v.b.b.b.u.i.p.t.9.6.6.8.6.5.5.9.t.p.p.i.",
"i.i.i.i.i.i.i.i.u.p.p.y.q.7.7.9.7.w.9.6.8.4.<.4.3.4.5.4.3.3.4.5.y.y.u.i.i.p.a.a.N.N.N.N.N.N.M.M.u.p.i.t.9.6.5.7.4.3.4.8.e.u.u.y.",
"y.y.y.y.y.y.y.y.e.r.r.w.8.6.6.7.3.6.3.3.0.9.5.7.9.q.q.9.6.5.5.7.e.r.r.t.y.u.u.i.b.b.b.c.z.l.l.l.r.t.t.w.8.6.6.6.7.7.7.0.e.y.y.y.",
"8.8.8.8.8.8.8.8.9.9.9.8.6.5.4.5.=.-.*.2.f.c.l.l.h.k.k.f.u.r.r.t.u.i.i.i.i.i.i.i.p.a.a.u.r.q.q.w.9.9.9.8.7.6.6.6.r.r.e.r.y.u.y.y.",
"6.6.6.6.6.6.6.6.7.7.6.6.6.6.5.5.*.&.$.3.z.Z.N.M.b.m.n.z.d.u.y.i.p.p.i.i.u.u.u.y.r.t.t.w.8.4.4.6.6.6.6.6.6.6.6.6.i.i.i.i.u.u.u.y.",
"7.7.7.7.7.7.7.7.6.5.5.6.7.7.7.6.-.-.&.3.j.m.v.c.c.n.n.l.a.t.t.u.u.y.y.y.y.t.t.t.y.i.i.t.9.6.6.8.6.6.5.6.6.6.6.5.i.i.i.i.u.y.y.u.",
"6.6.6.6.6.6.6.6.5.4.4.5.6.7.7.6.&.-.-.5.h.n.b.m.c.n.n.z.s.t.y.p.u.u.u.u.u.i.i.i.t.u.i.r.8.4.5.7.8.7.6.6.7.7.5.4.t.y.u.u.y.t.y.u."
};
