/* XPM */
static char *eea4be57a26b46e7d83f23d514b060f6bWFqrhUNYgDe8Beh[] = {
/* columns rows colors chars-per-pixel */
"64 64 256 2 ",
"   c black",
".  c #010101",
"X  c #020202",
"o  c gray1",
"O  c #040404",
"+  c gray2",
"@  c #060606",
"#  c #070707",
"$  c gray3",
"%  c #090909",
"&  c gray4",
"*  c #0B0B0B",
"=  c #0C0C0C",
"-  c gray5",
";  c #0E0E0E",
":  c gray6",
">  c #101010",
",  c #111111",
"<  c gray7",
"1  c #131313",
"2  c gray8",
"3  c #151515",
"4  c #161616",
"5  c gray9",
"6  c #181818",
"7  c #191919",
"8  c gray10",
"9  c #1B1B1B",
"0  c gray11",
"q  c #1D1D1D",
"w  c #1E1E1E",
"e  c gray12",
"r  c #202020",
"t  c gray13",
"y  c #222222",
"u  c #232323",
"i  c gray14",
"p  c #252525",
"a  c gray15",
"s  c #272727",
"d  c #282828",
"f  c gray16",
"g  c #2A2A2A",
"h  c gray17",
"j  c #2C2C2C",
"k  c #2D2D2D",
"l  c gray18",
"z  c #2F2F2F",
"x  c gray19",
"c  c #313131",
"v  c #323232",
"b  c gray20",
"n  c #343434",
"m  c #353535",
"M  c gray21",
"N  c #373737",
"B  c gray22",
"V  c #393939",
"C  c #3A3A3A",
"Z  c gray23",
"A  c #3C3C3C",
"S  c gray24",
"D  c #3E3E3E",
"F  c #3F3F3F",
"G  c gray25",
"H  c #414141",
"J  c gray26",
"K  c #434343",
"L  c #444444",
"P  c gray27",
"I  c #464646",
"U  c gray28",
"Y  c #484848",
"T  c #494949",
"R  c gray29",
"E  c #4B4B4B",
"W  c #4C4C4C",
"Q  c gray30",
"!  c #4E4E4E",
"~  c gray31",
"^  c #505050",
"/  c #515151",
"(  c gray32",
")  c #535353",
"_  c gray33",
"`  c #555555",
"'  c #565656",
"]  c gray34",
"[  c #585858",
"{  c gray35",
"}  c #5A5A5A",
"|  c #5B5B5B",
" . c gray36",
".. c #5D5D5D",
"X. c gray37",
"o. c #5F5F5F",
"O. c #606060",
"+. c gray38",
"@. c #626262",
"#. c gray39",
"$. c #646464",
"%. c #656565",
"&. c gray40",
"*. c #676767",
"=. c #686868",
"-. c DimGray",
";. c #6A6A6A",
":. c gray42",
">. c #6C6C6C",
",. c #6D6D6D",
"<. c gray43",
"1. c #6F6F6F",
"2. c gray44",
"3. c #717171",
"4. c #727272",
"5. c gray45",
"6. c #747474",
"7. c gray46",
"8. c #767676",
"9. c #777777",
"0. c gray47",
"q. c #797979",
"w. c gray48",
"e. c #7B7B7B",
"r. c #7C7C7C",
"t. c gray49",
"y. c #7E7E7E",
"u. c gray50",
"i. c #808080",
"p. c #818181",
"a. c gray51",
"s. c #838383",
"d. c #848484",
"f. c gray52",
"g. c #868686",
"h. c gray53",
"j. c #888888",
"k. c #898989",
"l. c gray54",
"z. c #8B8B8B",
"x. c gray55",
"c. c #8D8D8D",
"v. c #8E8E8E",
"b. c gray56",
"n. c #909090",
"m. c gray57",
"M. c #929292",
"N. c #939393",
"B. c gray58",
"V. c #959595",
"C. c gray59",
"Z. c #979797",
"A. c #989898",
"S. c gray60",
"D. c #9A9A9A",
"F. c #9B9B9B",
"G. c gray61",
"H. c #9D9D9D",
"J. c gray62",
"K. c #9F9F9F",
"L. c #A0A0A0",
"P. c gray63",
"I. c #A2A2A2",
"U. c gray64",
"Y. c #A4A4A4",
"T. c #A5A5A5",
"R. c gray65",
"E. c #A7A7A7",
"W. c gray66",
"Q. c #A9A9A9",
"!. c #AAAAAA",
"~. c gray67",
"^. c #ACACAC",
"/. c gray68",
"(. c #AEAEAE",
"). c #AFAFAF",
"_. c gray69",
"`. c #B1B1B1",
"'. c #B2B2B2",
"]. c gray70",
"[. c #B4B4B4",
"{. c gray71",
"}. c #B6B6B6",
"|. c #B7B7B7",
" X c gray72",
".X c #B9B9B9",
"XX c gray73",
"oX c #BBBBBB",
"OX c #BCBCBC",
"+X c gray74",
"@X c gray",
"#X c gray75",
"$X c #C0C0C0",
"%X c #C1C1C1",
"&X c gray76",
"*X c #C3C3C3",
"=X c gray77",
"-X c #C5C5C5",
";X c #C6C6C6",
":X c gray78",
">X c #C8C8C8",
",X c gray79",
"<X c #CACACA",
"1X c #CBCBCB",
"2X c gray80",
"3X c #CDCDCD",
"4X c #CECECE",
"5X c gray81",
"6X c #D0D0D0",
"7X c gray82",
"8X c #D2D2D2",
"9X c LightGray",
"0X c gray83",
"qX c #D5D5D5",
"wX c gray84",
"eX c #D7D7D7",
"rX c #D8D8D8",
"tX c gray85",
"yX c #DADADA",
"uX c gray86",
"iX c gainsboro",
"pX c #DDDDDD",
"aX c gray87",
"sX c #DFDFDF",
"dX c gray88",
"fX c #E1E1E1",
"gX c #E2E2E2",
"hX c gray89",
"jX c #E4E4E4",
"kX c gray90",
"lX c #E6E6E6",
"zX c #E7E7E7",
"xX c gray91",
"cX c #E9E9E9",
"vX c #EAEAEA",
"bX c gray92",
"nX c #ECECEC",
"mX c gray93",
"MX c #EEEEEE",
"NX c #EFEFEF",
"BX c gray94",
"VX c #F1F1F1",
"CX c gray95",
"ZX c #F3F3F3",
"AX c #F4F4F4",
"SX c gray96",
"DX c #F6F6F6",
"FX c gray97",
"GX c #F8F8F8",
"HX c #F9F9F9",
"JX c gray98",
"KX c #FBFBFB",
"LX c gray99",
"PX c #FDFDFD",
"IX c #FEFEFE",
"UX c white",
/* pixels */
"0.q.u.q.&.O.*.*.=.#.;.;.|.~.).'.W.~.R.T.p.p.t.p.3.3.6.5.R.R.W.W.U.T.P.P.i.i.r.y.@.$.+.*.Q ) ^ / [ } ] ^ 6.<.,.1.H.I.Y.Y.W.).).Q.",
"p.t.i.e.;.$.*.$.+.} O.#._.!./.^.W.!.T.Y.u.y.w.y.3.1.2.7.E.^.(.^.P.U.K.L.y.u.w.t.%.*.%.:.^ ' _ '  .O.o.` 6.:.>.3.I.E.Q.!.).}.}.`.",
"a.e.r.9.=.$.%.O.$. .#.>.[.{..X{.^.).!.E.a.p.y.p.;.=.:.7.I./._./.P.U.K.L.y.u.e.t.@.$.@.*.W / ~ ( ` | | / 1.&.*.<.K.I.Y.R.~.`.`.(.",
"i.r.y.0.*.@.*.$.2.:.2.7.E.W.~.R.P.Y.L.K.e.e.0.r.t.e.t.d.A.J.L.J.R.W.Y.T.d.f.p.s.,.2.,.2./ ` ( ` ' } | ' w.8.0.t.P.I.I.Y.W.~.~.!.",
"g.h.z.p.-.+.-.>.Q.E.!.T.|.'.'.^.l.c.l.l.=.;.=.>.Y.U.P.J.b.z.k.k.^.).~.^.z.c.k.z.h.l.g.h.%.%.+.$.%.$.$.&.Z.F.F.G.y.r.e.r.y.u.y.y.",
"l.x.m.d.*...&.:.Q.~.).Q.!.E.Q.U.s.h.f.g.%.*.&.:./.).(.!.h.s.a.d._.].)._.b.m.c.n.m.B.b.v.-.*.#.&.&.$.#.-.P.Q.Q.W.g.p.u.p.p.u.y.u.",
"j.j.z.u.&.X.&.-.T.W./.(.!._.].^.j.x.k.l.-.:.;.1.Y.R.E.!.a.d.f.j.(.`./.).v.n.x.b.x.b.z.k.@.O. .O.+.o.o.$.D.L.P.L.f.u.r.y.u.r.e.y.",
"h.d.h.u.>.*.1.2.P.L.U.R.L.Q.Q.J.s.h.d.d.@.$.@.*.Q.W.E./.a.j.h.g.~./.!.~.z.x.k.x.c.m.c.z.%.@.o.#.$.&.&.=.A.F.H.K.h.i.t.p.a.u.u.s.",
"#.} #.<.K.K.P.D.t.e.e.t.p.s.a.p.e.i.t.e._ ( / ] T.Q.!.U.A.n.n.N.a.p.u.u.i.i.u.y.h.g.j.r.+.` [ ] o.:.O.*.+.=...-.c.B.A.M.h.u.u.s.",
"=...+.<.K.P.L.Z.9.9.9.w.t.i.i.i.t.a.u.r._ ) ^ ' T.Q.Q.I.Z.n.b.m.p.i.i.i.p.p.p.i.i.a.h.e.X.( ] } $.:.O.=.+.-...$.m.Z.F.V.l.a.s.g.",
"%. .X.1.K.E.T.J.9.0.q.w.r.t.y.u.y.a.y.e.` _ / ' Q.^.^.R.H.V.B.C.i.i.i.i.i.i.p.p.g.j.c.y.o.^ ` ] ..+.} %...*.X.@.b.V.A.M.j.p.p.d.",
"@... .:.c.B.m.m.s.d.f.s.u.t.t.y.q.t.q.0.` ` ( ] G.K.L.G.V.n.b.m.s.d.d.a.i.u.y.u.y.r.i.8...) ] ` 1.6.3.9.+.&.+.$.c.m.N.v.f.u.u.a.",
"#.$...$.>.,.&.,.B.C.V.v.f.y.t.u.4.8.5.6._ ' _ { p.d.g.f.p.u.i.p.z.x.z.j.a.u.y.u.X.{ ..X.' ] | ' F.L.L.F.>.&.@.%.X.+.@...' ^ ^ ) ",
"O.*...@...X.' $.H.L.K.V.h.t.r.u.,.3.<.3.) ] ' } q.e.y.u.y.y.u.p.m.M.M.x.f.i.u.i._ E ! ) ) { | ) T.~.).W.:.O.O.#.@.$.#.o.[ _ _ ' ",
"o.*. .*.+.-.+.3.A.H.H.N.d.w.e.u.<.2.,.3._ [ ] } t.u.p.s.s.d.f.g.v.n.n.z.s.t.t.u.X.' ] | [ | .._ S.H.R.I.%...@.+.@.#.@.X.[ ` _ ' ",
"$.;. .-.$.<.$.5.n.V.Z.v.i.9.q.y.2.4.<.4._ { ' { q.w.r.t.y.u.u.i.j.l.z.g.y.q.q.r.X.{ ..O.| X.#.X.L.K.W.R.-.#.&.@.#.#.@.X.[ ` ` ' ",
"V.Z.J.N.).E.!.Y...^ { ) | ` o.) ' ] ] ] ] [ }  .*.$.%.1.r.d.a.t.^ ^ ~ ) _ { { | P.R.(.W.S.S.H.C.p.i.y.y.y.t.r.w.%.@.O.#.-.,.<.,.",
"S.A.G.N./.W.W.J.' ! [ ^ [ /  .` ) _ _ _ ) ) _ ` ;.*.*.1.w.i.t.q.W ~ ~ ^ / ) _ [ I.E.).Q.D.D.J.S.a.p.i.i.p.i.i.u.:.%.+.$.>.2.<.;.",
"A.V.D.Z.~./.(.U.| ] X.) } ~ ] ( ` ` _ _ _ _ ) ) *.%.*.2.e.a.s.p._ ] ` ~ ' / / ` E.Q.`.^.G.D.K.F.u.u.u.u.y.y.y.y.#.X.| +.>.5.3.,.",
"G.D.K.G.H.K.P.A.[ _ { / &...+...O.o.o.+.@.#.@.+.$.#.%.:.4.9.q.0.~ / ~ E *.$.$.&.T.T.~.R.V.n.B.m.a.a.a.p.y.t.t.t.-.=.*.-.,.2.2.<.",
"!.!.^.I.f.p.s.r.8.6.9.e.R.Q.!.E.K.K.L.U.E.Q.W.R.&.%.@.O.X...| } ;.;.:.3.).}. X.XK.H.P.F.j.i.d.a.x.c.x.k.d.p.i.p.s.g.f.t.3.-.=.;.",
"`.'.{.^.r.q.r.9.3.2.2.0._.}.].`.U.U.Y.W.(.`.)./.%.$.+. .] ) ( ( %.#.#.;.+X-X;X-XP.G.K.D.g.r.u.u.b.n.n.z.d.u.u.i.j.v.n.d.3.$.%.;.",
"/./.`.).e.u.d.u.6.9.6.0.`.].^.^.P.K.L.T.~.(.~.E.#.$.#.o.} [ {  .>.-.*.&.@X@X+XOXU.G.K.G.j.y.a.d.x.v.v.k.a.t.t.u.y.f.j.u.1.%.&.:.",
"~.E.Q.!.6.r.u.9.:.5.4.7././.E.^.L.K.K.U.Q.~.E.I.*.=.*.+.{ ` ' { *.*.&.O..X[.[.{.H.Z.D.A.g.r.i.s.c.n.n.x.f.i.p.d.s.h.h.u.3.*.$.&.",
"w.8.7.w.s.j.f.p.o.X.@.&.J.L.L.H.a.p.i.y.t.e.w.q.i.r.q.p...%.@.X.@...@.*.#.&.;.$.u.t.t.a.j.c.c.z.d.g.k.z.x.v.b.m.@.o... . . .| } ",
"9.7.6.e.d.l.j.d.$.O.O.&.S.G.S.M.d.d.a.i.t.e.q.q.u.y.t.a.o.%.$.#.$.o.#.%.o.O.#. .i.u.u.d.x.m.m.n.c.x.x.v.m.N.m.b.@.O...| | | { ] ",
"8.6.6.e.d.k.j.f...[ | =.A.Y.Y.H.s.a.i.y.e.q.9.8.i.i.y.t.O.o...X.@.o.%.=.+.@.*.#.e.w.e.i.h.x.c.x.g.s.s.j.b.N.M.b.@.O...| | | { ] ",
"0.8.8.w.i.d.a.u.+.o.+.,.h.M.M.v.p.i.y.t.e.q.9.9.7.6.5.5.;.;.-.=.=.&.>.>.+.O.%.@.u.t.y.a.j.x.c.z.k.l.l.x.x.x.x.z.+.o... ...X... .",
"r.w.0.q.e.r.q.8.8.6.2.1.$.@...} Q Q Q W W E E E X. ...&.r.f.h.f.E.Y.E.K.z.a.d.i...| }  .+.$.#.+.2.6.6.:. .( / _ o.....X.+.#.$.#.",
"r.w.q.0.0.9.6.3.9.8.5.3./ ~ W E W W W W Q Q Q Q ( ! ^ { s.x.v.l.E.T.Q.K.h.t.y.r.@.O.X.O.#.%.#.+.5.q.e.1.| ! ! _ X.....o.#.*.=.=.",
"0.0.9.0.0.0.8.7.3.2.3.9.`  .....Q Q Q W W W W W ] ` ` ] f.h.h.d.I.U.Q.P.l.p.f.f.o...| ..+.#.+.o.:.3.5.;.| ( ) [ ......o.#.*.=.=.",
"6.6.8.0.w.e.e.w.r.0.7.t.] O.X.| / / ^ ~ ~ ! Q Q X.X.O.X.c.z.c.v.E.W./.Y.z.i.d.d.@.O.X.+.&.=.*.%.6.8.8.<.@.{ [ { X.....o.@.%.&.&.",
"#.X.o.>.R.~.W.R.W.R.Y.T.E.W.R.Y.u.s.u.u. ... .@.E.~.^.Y.A.n.m.C.E.E.W.Q.Q.W.E.E.n.Z.z.x.1.3.&.<.S.H.J.A.v.g.f.h.:.#.O.%.*.#.+.#.",
"&.+.@.<.R.Q.R.T.^.!.W.W.!.~.Q.E.t.a.u.u...o.o.%.E.~./.E.H.Z.S.H.W.Q.!.!.!.!.Q.W.z.B.x.z.,.,.&.2.C.D.H.S.M.c.v.n.>.%.@.%.&.@.O.+.",
"+.X.+.1.W././.(.Q.E.T.R.R.E.T.U.y.s.i.i...X.o.%.~././.R.F.B.N.V.W.Q.Q.!.!.Q.Q.W.N.F.B.c.3.:.&.1.S.F.F.Z.n.z.l.z.:.*.$.%.%.+.o.o.",
"X...o.-.H.L.L.U.~.!.Q.W.W.E.R.T.d.k.f.a.| } { O.R.E.T.L.D.V.N.B.E.E.W.W.W.W.E.E.x.b.z.f.8.2.<.4.B.B.N.m.v.z.l.l.,.:.;.:.;.=.&.&.",
"%.@.o.O.l.f.p.s.f.f.d.s.p.u.u.u.x.n.z.d.[ _ / ] &.*.-.>.<.2.4.6.W.W.Q.Q.Q.Q.W.W.3.<.2.3.q.e.y.t.( ( _ [ ..+.#.$.I.Y.R.R.R.R.T.T.",
"*.%.+.o.f.r.q.t.j.j.j.g.a.i.i.i.b.N.c.f.' ~ W ( %.%.*.:.3.7.9.9.Q.!.~.~.~.~.!.Q.>.$.=.-.y.i.f.y.! Q ! ) | @.$.$.I.E.~.!.Q.~.^.!.",
"@.@.+.O.g.i.i.g.d.g.g.s.y.e.e.t.z.m.x.s.` ! W _ -.*.*.;.1.4.3.1.E.W.W.Q.Q.W.W.E.8.,.4.>.p.r.a.w.) ~ ! )  .@.#.+.K.E.~.W.R.Q.Q.R.",
"+.O.o...p.w.w.i.j.l.l.h.a.y.u.i.g.c.k.a._ ~ ! ] %.#.#.=.1.7.7.4.U.U.Y.Y.Y.Y.U.U.5.:.6.:.u.9.p.w./ ! ! ` +.:.,.:.K.E.~.E.Y.R.R.U.",
") ] ) ( | ....$.g.j.k.h.p.y.t.y...! ' ` $.@.:.| X.$.@.@.;.;.*.,...X.o.{ d.y.u.i.d.0.a.r.' ~ [ R X.$.+.+.P.W.R.E.!.!.(.T.x.p.d.s.",
"^ ` ^ ^ { | } +.l.z.z.j.s.u.y.y.( Y ) ^ o. .*.X.#.$.O.O.-.-.%.&...| } [ a.i.u.r.u.0.d.t.] ! { / ..O.X.@.I./.~.!.!.Q.^.I.l.u.p.i.",
"^ _ ^ ^ }  .} O.g.h.g.s.u.e.q.q.' ^ { ) @. .%.o.@.O.o.#.:.1.,.>.' ) ) { y.s.d.i.p.y.j.t.' R ) ! O.@.o.&.G.Q.R.U.~.!./.Y.x.a.d.p.",
") ] ( ) X.O...@.g.g.g.d.a.i.y.y.~ E ^ Q *.$.-.%.-.&.-.;.&.*.;.=...|  .O.4.9.0.8.w.0.y.7.{ ~ _ ( ..&.-.7.F.^.).`.T.U.E.K.l.a.d.a.",
"` ] ( _ O.@.X.@.{ { { } | | } { %.@.%.:.D.K.U.L.~.W.(.T.z.s.j.f.3.2.<.:.X.| { [ $.$.=.=.+.o.#.+.~.`.W.H.m.l.i.u.C.B.A.B.a.r.i.t.",
"_ ] / _ +.#.X.O.` ` ' [ |  .| } o.X...%.J.R.T.Y._./.|.~.f.w.s.i.8.8.7.3.^ Q E E ..X.X.+.$.%.%.%.E.].`.!.b.x.h.x.b.c.M.b.i.r.i.t.",
"' [ ) ` $.&.o.+._ ) ( ` { } { ] &.-.%.=.P.Y.L.U.(.E.[.^.f.t.l.s.5.5.4.8.^ _ ) ) o.$.@.+.$.+.X.@.W.]._.^.h.g.i.s.m.v.N.n.s.u.s.u.",
"} | ' { *.;.#.#...| }  .O.+.o. . .$.@.$.G.J.G.U.'.R.`.Q.s.e.h.e.w.9.6.r.`  .} ' } $.$.+.$.O.o.=.T.(.~.^.g.l.d.d.n.c.m.v.i.t.i.r.",
"X.%.#.&.H.J.S.J.Z.Z.Z.Z.V.B.N.M.` +.` } y.s.9.s.P.U.U.G.N.x.x.v.T.E.W.E.R.T.Y.T.:.o.o.#.X.o.#.O.W.^./.I.m.g.f.j.f.g.s.f.+...{ o.",
"%.*.$.=.L.I.G.H.D.D.D.S.A.Z.V.B.[ @.[  .r.p.8.p.K.Y.E.L.B.c.n.C.~.~.^.~.!.W.E.E.-.X.O.%.+.@.=.%.J.R.Q.J.z.i.p.j.d.f.a.f.+...[ o.",
".. . .$.G.I.L.H.F.F.F.D.S.Z.C.V./ | `  .w.p.e.f.I.E.Q.L.n.h.k.v.!.~.~.!.!.W.E.R.%. .o.$.o.o.&.$.R.(._.U.v.i.p.j.s.d.p.d.O. .[ X.",
">.:.1.5.K.P.U.K.A.Z.Z.C.V.N.m.n.` | [ X.5.0.7.r.F.H.H.Z.b.l.l.x.E.E.E.Q.!.~.!.Q.:.#.*.-.O.X.#.#.K.U.Y.F.c.d.s.h.a.s.i.s.o.| ' ..",
"S.Z.G.C.~.U.R.P.m.m.n.b.c.z.k.j.*.=.$.#.=.*.@.$.] ` ` } @.=.=.&.7.7.8.w.u.p.p.i.e.7.0.8.*.O.$.$.t.y.u.a.f.g.g.g.p.a.u.a.X.} ` | ",
"E.Y.(.Y.^.L.E.I.c.c.x.z.k.h.f.s.>.;.=.&.@.o.X. ./ W R ) #.>.;.%.7.6.8.e.a.h.h.f.a.r.i.r.=.X.@.@.8.5.5.w.d.l.k.f.i.p.y.p...[ _ } ",
"H.Z.Y.J.R.J.Q.L.b.v.c.x.l.h.f.d.*.$.=.=.+.@.%.@.' / ! ` +.=.%.o.5.4.4.0.p.f.f.s.t.w.u.e.&. .O.@.y.e.e.u.h.l.j.d.u.i.t.i. .[ ) { ",
"U.A.U.K.W.I.~.J.M.m.n.b.c.l.j.g.:.*.>.:.+.O.%.+.` ) ) } $.;.;.=.4.2.3.8.y.s.a.u.e.q.i.t.-.o.$.*.6.7.9.e.p.d.f.f.y.u.r.u.| ] ) { ",
"*.-.:.*.M.x.c.v.E.J.T.J.s.r.s.w.4.8.5.5.y.i.t.s.r.i.w.u.| o.[ } O.O.O.o.o.o.X.X.i.t.e.f.O.*.#.X.-.>.>.*.X.] ' [ _ } [ { $.%.#.-.",
"=.*.*.%.b.x.x.l.L.G.Y.H.a.e.a.u.9.9.3.4.t.u.e.r.q.i.t.i.+.#.o.&.X....... . . .| q.w.r.a.o.$.#.@.>.<.,.&...` ) _ ' | [ { $.%.@.=.",
"&.$.&.;.c.M.N.m.R.T.!.K.d.w.u.y.9.5.3.7.i.f.d.a.y.f.u.w.X.[ / ' +.+.+.+.O.O.O.o.u.p.a.a.#.+.O.+.>.,.:.%. .` ( ( ` [ ) ` +.#.O.$.",
"<.<.1.3.u.a.d.d.G.G.H.V.g.u.u.i.0.6.8.0.8.q.r.q.w.y.0.6.,.=.+.$.X.X.X..... . . .8.9.8.6.&.#.@.@.>.,.>.-.#.X.....{ | ` [ *.>.=.>.",
"u.p.u.0.$.o.o.+.y.u.t.u.f.h.f.g.u.e.u.9.O.{ o.| *.:.;.5.N.F.S.G.a.a.a.p.p.i.i.i.[ ] ] { &.=.-.=.K.L.I.I.P.P.P.I.%.%.X.#.9.y.e.t.",
"h.l.j.u.' ~ ^ ` 7.8.2.7.h.x.g.j.p.r.d.w.' W ' ( @.$.#.<.I.~.Q.!.u.y.y.y.t.t.t.t.~ W E E -.;.;.=.K.L.U.R.W.!.~.^.-.*.O.&.t.h.d.f.",
"g.j.h.d.` ` ]  .w.u.7.9.l.x.a.h.p.0.d.t.{ ( o.[ =.-.%.*.K.L.D.F.s.a.a.a.p.p.p.i.` _ ( R ,.*.*.=.K.K.P.Y.W.!.~.!.=.$.| @.e.f.p.p.",
"g.g.a.s.( ` ' [ 5.t.7.8.k.l.a.x.g.0.a.r.[ ( ../ $.-.=.-.Y.Y.I.R.i.i.u.u.u.y.y.y.! / ( Y >.$.*.>.P.P.I.Y.E.W.W.E.;.%.| @.e.f.i.u."
};
