/* XPM */
static char *result[] = {
/* columns rows colors chars-per-pixel */
"43 155 249 2 ",
"   c #030202",
".  c #0B0502",
"X  c #0C0C0D",
"o  c #0A0706",
"O  c #130B02",
"+  c #1C0D01",
"@  c #140A06",
"#  c #1B1207",
"$  c #070D16",
"%  c #0A121D",
"&  c #141414",
"*  c #1B1C1B",
"=  c #1B1716",
"-  c #1C0F1C",
";  c #220E01",
":  c #251201",
">  c #2B1501",
",  c #291A08",
"<  c #341C01",
"1  c #381D04",
"2  c #271D17",
"3  c #351B15",
"4  c #3B2101",
"5  c #34250D",
"6  c #3C2A0E",
"7  c #3B240C",
"8  c #28221A",
"9  c #332413",
"0  c #3C2B13",
"q  c #32241B",
"w  c #3B2817",
"e  c #332916",
"r  c #01132B",
"t  c #071628",
"y  c #181E27",
"u  c #051A37",
"i  c #030D25",
"p  c #221B25",
"a  c #152537",
"s  c #0C2234",
"d  c #232424",
"f  c #2B2B2B",
"g  c #262627",
"h  c #362B25",
"j  c #39332B",
"k  c #262B35",
"l  c #2C3233",
"z  c #333434",
"x  c #3B3B3B",
"c  c #373739",
"v  c #302F30",
"b  c #1A211A",
"n  c #442C0D",
"m  c #422E14",
"M  c #452B1A",
"N  c #443114",
"B  c #4C351A",
"V  c #493319",
"C  c #54381B",
"Z  c #53310E",
"A  c #493627",
"S  c #543B23",
"D  c #573E28",
"F  c #453C38",
"G  c #523E33",
"H  c #482F2F",
"J  c #5C412B",
"K  c #5B4225",
"L  c #494238",
"P  c #564739",
"I  c #4E4430",
"U  c #63462C",
"Y  c #67492C",
"T  c #6C4C32",
"R  c #664937",
"E  c #745236",
"W  c #7A5639",
"Q  c #7A573A",
"!  c #6D5137",
"~  c #061D43",
"^  c #141F43",
"/  c #082747",
"(  c #172949",
")  c #0D2D53",
"_  c #142957",
"`  c #173759",
"'  c #17314E",
"]  c #383B45",
"[  c #243A5A",
"{  c #31394E",
"}  c #1C3766",
"|  c #18316A",
" . c #253B67",
".. c #443D44",
"X. c #56304C",
"o. c #6C3B5C",
"O. c #3E4349",
"+. c #294266",
"@. c #2A466C",
"#. c #28446A",
"$. c #2D4A72",
"%. c #314D76",
"&. c #324E78",
"*. c #33517A",
"=. c #1F4066",
"-. c #444444",
";. c #4B4B4B",
":. c #494747",
">. c #544D48",
",. c #5B5448",
"<. c #4A4B54",
"1. c #545353",
"2. c #5C5C5C",
"3. c #585557",
"4. c #505053",
"5. c #675748",
"6. c #765849",
"7. c #635B59",
"8. c #684D4C",
"9. c #736449",
"0. c #6C6456",
"q. c #776958",
"w. c #726852",
"e. c #56596A",
"r. c #635D62",
"t. c #744769",
"y. c #5E6263",
"u. c #646363",
"i. c #6B6769",
"p. c #726C6A",
"a. c #746C72",
"s. c #747273",
"d. c #7C7A7B",
"f. c #797578",
"g. c #6E7170",
"h. c #5D635F",
"j. c #815B3D",
"k. c #886856",
"l. c #936C5B",
"z. c #87775A",
"x. c #99795D",
"c. c #86674D",
"v. c #884874",
"b. c #877966",
"n. c #9B7662",
"m. c #837D7B",
"M. c #846F66",
"N. c #926B59",
"B. c #988668",
"V. c #978975",
"C. c #948974",
"Z. c #A6936D",
"A. c #A99776",
"S. c #B99A78",
"D. c #A48B6F",
"F. c #B9A37C",
"G. c #C3A47E",
"H. c #223D83",
"J. c #1B3985",
"K. c #2B4695",
"L. c #2C499C",
"P. c #27428D",
"I. c #2D4BA3",
"U. c #787A85",
"Y. c #717389",
"T. c #97598B",
"R. c #877885",
"E. c #A36094",
"W. c #7D8285",
"Q. c #7F8199",
"!. c #848383",
"~. c #8D8A8A",
"^. c #898587",
"/. c #948C8B",
"(. c #86889A",
"). c #8D9497",
"_. c #989697",
"`. c #9D948C",
"'. c #A99887",
"]. c #A29D9E",
"[. c #A79994",
"{. c #BD9F93",
"}. c #ADA28B",
"|. c #B9A787",
" X c #B9AA96",
".X c #B7AC99",
"XX c #9799A9",
"oX c #8F90A6",
"OX c #99A2A6",
"+X c #A5A2A3",
"@X c #ACAAAA",
"#X c #A9A5A7",
"$X c #B3ACAC",
"%X c #A7AAB6",
"&X c #ABB4B8",
"*X c #BBB5B6",
"=X c #BCBABB",
"-X c #B6B5B7",
";X c #B8B1AB",
":X c #A29CA0",
">X c #C5A785",
",X c #C7B79A",
"<X c #D1B293",
"1X c #C2BDBD",
"2X c #D0B9A8",
"3X c #D3AA8D",
"4X c #CDC2A6",
"5X c #DCCBAD",
"6X c #D6C6A8",
"7X c #DACAB2",
"8X c #D7CCB2",
"9X c #E7D7B8",
"0X c #F0D1AF",
"qX c #EDC19E",
"wX c #B6BCC4",
"eX c #AEBAC0",
"rX c #C4BFC1",
"tX c #BBC5C9",
"yX c #C3C2C4",
"uX c #CBC5C5",
"iX c #CBCBCC",
"pX c #C5C7CA",
"aX c #D2CDCD",
"sX c #C9CDD2",
"dX c #C9D2D7",
"fX c #D3D2D3",
"gX c #DAD4D4",
"hX c #DEDAD9",
"jX c #D5D7DB",
"kX c #D6D0CF",
"lX c #E4DEDE",
"zX c #FDECCC",
"xX c #F8E6C5",
"cX c #FFF4D3",
"vX c #FEF8D8",
"bX c #F4E7CE",
"nX c #DADAE4",
"mX c #D9DDE5",
"MX c #DAE3E8",
"NX c #E6E1E1",
"BX c #EAE4E4",
"VX c #E3E2EC",
"CX c #EEE9E9",
"ZX c #EAE7E9",
"AX c #F2EBEB",
"SX c #FAF5F6",
"DX c #F3F3F0",
"FX c #E0DFE8",
"GX c None",
/* pixels */
"GXGXGXGXGXGXGXGXGXGXGXGXGXGXGXGXGXGXGXGXGXGXGXGXGXGXGXGXGXGXGXGXGXGXGXGXGXGXGXGXGXGXGX",
"GXGXGXGXGXGXGXGXGXGXGXGXGXGXGXGXGXGXGXGXGXGXGXGXGXGXGXGXGXGXGXGXGXGXGXGXGXGXGXGXGXGXGX",
"GXGXGXGXGXGXGXGXGXGXGXGXGXGXGXGXGXGXGXGXGXGXGXGXGXGXGXGXGXGXGXGXGXGXGXGXGXGXGXGXGXGXGX",
"GXGXGXGXGXGXGXGXGXGXGXGXGXGXGXGXGXGXGXGXGXGXGXGXGXGXGXGXGXGXGXGXGXGXGXGXGXGXGXGXGXGXGX",
"GXGXGXGXGXGXGXGXGXGXGXGXGXGXGXGXGXGXGXGXGXGXGXGXGXGXGXGXGXGX+ GXGXGXGXGXGXGXGXGXGXGXGX",
"GXGXGXGXGXGXGXGXGXGXGXGXGXGXGXGXGXGXGXGXGXGXGXGXGXGX# : GX+ : GXGXGXGXGXGXGXGXGXGXGXGX",
"GXGXGXGXGXGXGXGXGXGXGXGXGXGXGXGXGXGXGXGXGXGXGXGXGX: 4 4 < < 4 < < : GXGXGXGXGXGXGXGXGX",
"GXGXGXGXGXGXGXGXGXGXGXGXGXGXGXGXGXGXGXGXGXGXGXGX# > : 4 4 4 4 4 4 4 < . GXGXGXGXGXGXGX",
"GXGXGXGXGXGXGXGXGXGXGXGXGXGXGXGXGXGXGXGXGXGXGX+ : : : < 4 1 4 4 1 4 4 > + GXGXGXGXGXGX",
"GXGXGXGXGXGXGXGXGXGXGXGXGXGXGXGXGXGXGXGXGXGX+ > ; + > 4 4 4 4 < < < 4 n 4 > GXGXGXGXGX",
"GXGXGXGXGXGXGXGXGXGXGXGXGXGXGXGXGXGXGXGXGXGX> : + : 1 4 4 1 4 < 9 > < 4 < 1 : GXGXGXGX",
"GXGXGXGXGXGXGXGXGXGXGXGXGXGXGXGXGXGXGXGXGX# : ; ; > 4 4 4 4 < 9 l.S . : > > 4 > GXGXGX",
"GXGXGXGXGXGXGXGXGXGXGXGXGXGXGXGXGXGXGXGX+ + : ; ; < 1 > > 1 ; P qXG.q   > > > < O GXGX",
"GXGXGXGXGXGXGXGXGXGXGXGXGXGXGXGXGXGXGXGX+ : ; ; > 1 < O : ; + x.0XcX>Xh . > > + GXGXGX",
"GXGXGXGXGXGXGXGXGXGXGXGXGXGXGXGXGXGXGXGXO > ; ; : 1 < . + + q >XxXcXvX X2   > + GXGXGX",
"GXGXGXGXGXGXGXGXGXGXGXGXGXGXGXGXGXGXGXGX; ; + ; > 4 >   . . G 0XxX.X8XcX X2 + + GXGXGX",
"GXGXGXGXGXGXGXGXGXGXGXGXGXGXGXGXGXGXGXGX+ + ; ; > < 9 j @ o 6.xXcX,Xb. XvX}.@ O GXGXGX",
"GXGXGXGXGXGXGXGXGXGXGXGXGXGXGXGXGXGXGXGX. O ; ; ; + >.<XG   z.zXvX6Xp.w.7X4X= . GXGXGX",
"GXGXGXGXGXGXGXGXGXGXGXGXGXGXGXGXGXGXGXGXGXO : ; ; @ A 0X4X:.'.zXcX8XM.0.A.>.GXGXGXGXGX",
"GXGXGXGXGXGXGXGXGXGXGXGXGXGXGXGXGXGXGXGXGX. + + ; + # n.9X2X9XzXzXxX9X6X4X:.GXGXGXGXGX",
"GXGXGXGXGXGXGXGXGXGXGXGXGXGXGXGXGXGXGXGXGXGX+ + ; ; . q V.5XxXzXzXzXcXcXvX4XL GXGXGXGX",
"GXGXGXGXGXGXGXGXGXGXGXGXGXGXGXGXGXGXGXGXGXGXGX: . . . . V.5X7X5X9XzXvXcX9XxX6X,.GXGXGX",
"GXGXGXGXGXGXGXGXGXGXGXGXGXGXGXGXGXGXGXGXGXGXGXO . h 6.9.2X|.}.|.9XxX8XxX,X5.V.5.GXGXGX",
"GXGXGXGXGXGXGXGXGXGXGXGXGXGXGXGXGXGXGXGXGXGXGXGXGXP <X9XbX,X`.,XzX9X}.5X'.GXGXGXGXGXGX",
"GXGXGXGXGXGXGXGXGXGXGXGXGXGXGXGXGXGXGXGXGXGXGXGXGXG 3XcXcXxX9XzXvXzXxXgXw.GXGXGXGXGXGX",
"GXGXGXGXGXGXGXGXGXGXGXGXGXGXGXGXGXGXGXGXGXGXGXGXO P 3X0XzXcX9X0X0XcXvX8XGXGXGXGXGXGXGX",
"GXGXGXGXGXGXGXGXGXGXGXGXGXGXGXGXGXGXGXGXGXGX@ 3 3 R 3XqXzX9Xq.5.k.|.5Xq.GXGXGXGXGXGXGX",
"GXGXGXGXGXGXGXGXGXGXGXGXGXGXGXGXGXGXGXGXGX@ 3 3 M G k.3XzX8Xh GXGXq 8.GXGXGXGXGXGXGXGX",
"GXGXGXGXGXGXGXGXGXGXGXGXGXGXGXGXGXGXGXGXGX@ C 3 3 ! P l.0X9X5.GXGXGXGXGXGXGXGXGXGXGXGX",
"GXGXGXGXGXGXGXGXGXGXGXGXGXGXGXGXGXGXGXGXa.h 1 R A A 8.G S.xX}.2 ; @ GXGXGXGXGXGXGXGXGX",
"GXGXGXGXGXGXGXGXGXGXGXGXGXGXGXGXGXGXGXr.1X_.+ M k.G G I 6.qX2Xw + 2 GXGXGXGXGXGXGXGXGX",
"GXGXGXGXGXGXGXGXGXGXGXGXGXGXGXGXGXGX:.-XSXNXf.q 6.n.k.6.L q.b.A H A GXGXGXGXGXGXGXGXGX",
"GXGXGXGXGXGXGXGXGXGXGXGXGXGXGXGXGX:.uXSXkX1XgX+X8.D j.n.n.8.P q.l.G GXGXGXGXGXGXGXGXGX",
"GXGXGXGXGXGXGXGXGXGXGXGXGXGXGXGX1.1XgX~.a.1XAXBX*Xp.G G J A M c.6.@ GXGXGXGXGXGXGXGXGX",
"GXGXGXGXGXGXGXGXGXGXGXGXGXGXGX4.:X1Xa.a.$XNXBXNXBXgX-X~.7.P F H >.h GXGXGXGXGXGXGXGXGX",
"GXGXGXGXGXGXGXGXGXGXGXGXGXGXGXi.].a.~.rXBXNXlXNXNXBXBXlXiXyXrX/.'.7.GXGXGXGXGXGXGXGXGX",
"GXGXGXGXGXGXGXGXGXGXGXGXGXGXGXi.f.^.lXBXNXlXlXgXlXNXlXBXBXCXBX$X2Xm.GXGXGXGXGXGXGXGXGX",
"GXGXGXGXGXGXGXGXGXGXGXGXGXGXGXi.a.$XAXNXlXlXlXrXgXNXlXlXlXCX%X[.7Xn.GXGXGXGXGXGXGXGXGX",
"GXGXGXGXGXGXGXGXGXGXGXGXGXGX3.2.i.rXAXlXlXlXNX$X*XBXlXlXAXaXp.3X2Xm.GXGXGXGXGXGXGXGXGX",
"GXGXGXGXGXGXGXGXGXGXGXGXGXGXR.F m.aXCXlXlXlXBX*X#XlXBXBXCXf.M.2X2X:Xp.GXGXGXGXGXGXGXGX",
"GXGXGXGXGXGXGXGXGXGXGXGXGXGX3.c R.gXCXlXNXlXBXuX#XkXCXDX:XX.{.2XC._.m.GXGXGXGXGXGXGXGX",
"GXGXGXGXGXGXGXGXGXGXGXGXGXGX= ../.gXCXlXlXNXNXaX@XaXSXaX>.M.0X'.y.f.7.GXGXGXGXGXGXGXGX",
"GXGXGXGXGXGXGXGXGXGXGXGXGXGXX :.~.gXCXlXlXlXNXgX1XlXSXa.G 2X{.R.!.f.4.GXGXGXGXGXGXGXGX",
"GXGXGXGXGXGXGXGXGXGXGXGXGXGX8 1.R.aXAXlXlXlXNXlXrXBX$XG n.2X`.rX).^.i.GXGXGXGXGXGXGXGX",
"GXGXGXGXGXGXGXGXGXGXGXGXGXGXf 2.f.rXAXlXlXlXlXlXkX[.G 6.2X'.2XAX/._.~.GXGXGXGXGXGXGXGX",
"GXGXGXGXGXGXGXGXGXGXGXGXGXGX:.u.r.1XAXNXlXlXlXBX1X>.G n.'.`.rXnX/.U.p.GXGXGXGXGXGXGXGX",
"GXGXGXGXGXGXGXGXGXGXGXGXGXGX/.r.r.$XAXNXlXlXBXBX[.R 6.n./.iX[.:.c >.;.GXGXGXGXGXGXGXGX",
"GXGXGXGXGXGXGXGXGXGXGXGXGX4.=Xa.3.R.$XlXBXlXBXBX#X6.R p.*XNXlXuX^._._.GXGXGXGXGXGXGXGX",
"GXGXGXGXGXGXGXGXGXGXGXGXGXL rXR.F s.#XrXgXNXNXCX#XR G ].CXBXBXCX+X+X1XGXGXGXGXGXGXGXGX",
"GXGXGXGXGXGXGXGXGXGXGXGXA j ).:X..f.rXkXgXNXNXNX`.A m.BXBXlXlXBX1X#XkX:.GXGXGXGXGXGXGX",
"GXGXGXGXGXGXGXGXGXGXGXK V m i.$X;.7.rXAXNXlXNXNXm.m.lXCXlXlXlXBX1X].lXf.GXGXGXGXGXGXGX",
"GXGXGXGXGXGXGXGXGXGXJ 6 m w j ,.F 4.+XNXNXNXNXlX`.@XuXlXlXlXlXCX$Xm.lX_.GXGXGXGXGXGXGX",
"GXGXGXGXGXGXGXGXGXGX0 n B S 2 M G ;.^.aXCXlXNXlX+X].a.].CXlXlXBX1Xm.gX#XGXGXGXGXGXGXGX",
"GXGXGXGXGXGXGXGXGX5 0 V J J q J H c a.1XCXlXNXNX_.^.2.3.kXAXlXCXiXR.kXwX1.GXGXGXGXGXGX",
"GXGXGXGXGXGXGXGXw 6 V T Q A e U R x r.:XNXNXNXAX].m.f...[.NXNXBXgX~.uX8X;.GXGXGXGXGXGX",
"GXGXGXGXGXGXGXw 5 B K W T w 0 K 5.4.3.R.aXCXlXAX=Xm.].3.r.uXCXBXlX/.uX1X:.GXGXGXGXGXGX",
"GXGXGXGXGXGXD 0 V K I W Y 0 6 A G ] 1.a.$XCXNXBXkX/.1X^.;.].lXBXlX+XrXgX7.GXGXGXGXGXGX",
"GXGXGXGXGXGXw N C J T W J V 6 K G g 4.i.~.lXCXNXNX/.@XiXr.d.gXCXlX;XrXNXs.GXGXGXGXGXGX",
"GXGXGXGXGX, N V S U j.E J V 5 S P p ..i.a.1XCXNXCX_.R.NX+Xa.$XNXBX1X1XBX!.GXGXGXGXGXGX",
"GXGXGXGXGX, N V D E W E Y 6 5 S 8...c i.r._.NXBXBX-Xp.aXlXR./.uXBX1X+XBX_.GXGXGXGXGXGX",
"GXGXGXGX8 5 V A R E T Q Y 5 7 C 7.3.c r.r.a.rXCXCXuXu.;XSXrX1X1XBX1Xd.lX@XGXGXGXGXGXGX",
"GXGXGXGXw 6 0 S W C C Q S 5 6 I 7.r.F 1.f.i._.NXCXgXf.+XAXAXCXNXBXaXs.uX1Xc GXGXGXGXGX",
"GXGXGXGX5 N S R E V S T B N n 0 0.f.x ..R.^.m.rXAXlXf.].CXNXlXlXBXlXm.1XkXF GXGXGXGXGX",
"GXGXGX9 , C J T T m U T V V n K m.R.;.4.m.*X/.R.lXBXu./.BXBXlXlXNXlX~.#XlX:.GXGXGXGXGX",
"GXGXGX# 6 D A E K 6 Y E S B n P :X_.;.1.p.1XuX_.fXAXs.m.BXBXlXlXNXBX].].lX1.GXGXGXGXGX",
"GXGXe , B D e W C 6 Y W T V n 6.rX#X;.>.r.].aXNXNXBX].~.lXBXlXlXNXBX*X_.aX1.GXGXGXGXGX",
"GXGX# 5 Y S m W 0 0 E W E N 6 q.kX1Xr.<.r.i./.lXAXBXuX/.aXBXlXlXlXNXyX:XaX0.GXGXGXGXGX",
"GXGX, N E A A Y 6 B W W T V n 7.lXrXr.;.3.r.~.lXAXBXgX`.1XBXNXlXNXBX=X/.hXf.GXGXGXGXGX",
"GXGX, S W w J Y 6 C Q Q Y N 0 >.gXgXa.X...7._.uX1X#X#XR.$XNXNXlXNXBX;Xs.gX~.GXGXGXGXGX",
"GXq 5 U E A T Y 6 I Q E U n 5 3.VXgXf.:.v 3.~.R.7.] O.;.#XBXNXlXlXCX*Xs.hX_.GXGXGXGXGX",
"GX5 6 T E D Q U 0 J Q Q K 6 2 U.SXkXd.;...u.a.<.k r ~ ( @XAXNXlXlXCX1Xs.hX+XGXGXGXGXGX",
"GXe n E Y A E T V U j.E K < 8 +XSX1Xa.4.X.<.{ ~ r _ H.u /.AXBXlXNXBX*Xu.gX;XGXGXGXGXGX",
"q 0 m W D 5 Y T N S E Q K , 2 #XSXuXf.>...] r u _ K.I.^ <.gXAXlXlXCX*X2.kXiXGXGXGXGXGX",
"8 , 0 Q S 5 K ! 0 5 J Q K , X ^.SXlX^.;.:.] i ~ H.I.I.H.p p.uXCXBXCX#Xp.AXkXGXGXGXGXGX",
"GX. m E V n C W S 5 K Q C #   2.lXkX^.4.3.] i u H.I.H.[ A , p.ZXSXCX^.3.$Xs.GXGXGXGXGX",
"GX. m Q A 0 N U C 0 T W B #   x r.R.a.t.8.8.p r _ _ p 7 Z 7 h d.].].>.g t.t.GXGXGXGXGX",
"GX  , E R e 6 0 5 m Q W N . - t.v.v.v.v.t.8.P 2 2 1 1 Z K V ; X.t.E.X.X.T.T.y GXGXGXGX",
"GX  X U Q J K C B J Q S ,   - v.T.E.T.v.t.G K B n Z T x.x.6.H o.E.E.t.o.X.- GXGXGXGXGX",
"GXGX  9 j.Q Q W E Y B : @ GXGXv H H ....c d 1 Z C j.Z.>XS.S.P z O.{ f - GXGXGXGXGXGXGX",
"GXGX  o V Q E K A 9 @   GXGX2.l k p d f z y ; n Z c.G.G.F.G.z.g l l b   GXGXGXGXGXGXGX",
"GXGXGXGX@ w N 5 # o   GXGXGX:.4.1.g.!.!.h.l * 5 Z C Q Z.G.G.D.L <.~.i.b GXGXGXGXGXGXGX",
"GXGXGXGXGX  @ 9 8 GXGXGXGXGXb 1.).yXaXfX+X;.g e C Y K E Z.S.S.6.h.tXpX2.GXGXGXGXGXGXGX",
"GXGXGXGXGXGXGXGXGXGXGXGXGXGX& 3.&XfXpXsXiXW.x g n j.D.B.S.F.G.B.,.-XMX).GXGXGXGXGXGXGX",
"GXGXGXGXGXGXGXGXGXGXGXGXGXGX& 1.+XiXtXtXsX-Xg.l , E G.G.G.S.B.q.~.tXfX+XGXGXGXGXGXGXGX",
"GXGXGXGXGXGXGXGXGXGXGXGXGXGX* ;.).fXyX8XpXsXW.x v J c.q.5.A 8 4.yXsXaX@Xd GXGXGXGXGXGX",
"GXGXGXGXGXGXGXGXGXGXGXGXGXGXX x W.iXyXtXpXtX~.-.-.-.b & & & X d /.sXfX-Xx GXGXGXGXGXGX",
"GXGXGXGXGXGXGXGXGXGXGXGXGXGX  g i.-XaXtX8XtX_.L x O.d & & y -.g h.yXfXtX;.GXGXGXGXGXGX",
"GXGXGXGXGXGXGXGXGXGXGXGXGXGXGX* ;._.jXyXtXdXOX;.x :.v b & * -.f l -XfXpXg.GXGXGXGXGXGX",
"GXGXGXGXGXGXGXGXGXGXGXGXGXGXGX& z g.pXiXtXiXOX1.x :.z & v f d b * ).fXfX).GXGXGXGXGXGX",
"GXGXGXGXGXGXGXGXGXGXGXGXGXGXGXGXd :._.dXuXsX@X1.x :.f X g.~.x x = h.iXfX).GXGXGXGXGXGX",
"GXGXGXGXGXGXGXGXGXGXGXGXGXGXGXGXb x h.=XaXiX#X,.x O.f X L _.L c * -.tXfX].= GXGXGXGXGX",
"GXGXGXGXGXGXGXGXGXGXGXGXGXGXGXGXf x -.W.iXdX&X2.x ;.z = & O.v f = -.=XjX=Xz GXGXGXGXGX",
"GXGXGXGXGXGXGXGXGXGXGXGXGXGXGXGX,.f L h.@XaXyXg.z :.x b & z d * & 4.tXfXiX2.GXGXGXGXGX",
"GXGXGXGXGXGXGXGXGXGXGXGXGXGXGXF w.b x W.@XtXiXW.x O.x b & z * f f g.yXiXiXW.GXGXGXGXGX",
"GXGXGXGXGXGXGXGXGXGXGXGXGXGXGXq B.,.X h.tXiXdX].:.x O.d X & X X g ).pXpXiX+Xz GXGXGXGX",
"GXGXGXGXGXGXGXGXGXGXGXGXGXGXGXGXz.F.P # :.&XjX=Xh.x -.x X X & o x &XsX8XpXyX2.GXGXGXGX",
"GXGXGXGXGXGXGXGXGXGXGXGXGXGXGXGX9.F.F.9.X b W.tXm.x -.-.b X & X f.dXpXyXiXjXW.GXGXGXGX",
"GXGXGXGXGXGXGXGXGXGXGXGXGXGXGXGXq.Z.|.F.B.I f h.g.-.-.-.b b b b ~.jXsXiXtX#Xf.8 GXGXGX",
"GXGXGXGXGXGXGXGXGXGXGXGXGXGXGXGXz.B.B.F.|.F.z.I z x x O.l & b f u.@X=X#Xs.-.z GXGXGXGX",
"GXGXGXGXGXGXGXGXGXGXGXGXGXGXGXGXq.B.j L A.F.F.A.z.,.,.,.] $ b g ] <.3.:.z v b GXGXGXGX",
"GXGXGXGXGXGXGXGXGXGXGXGXGXGXGXGXI A.,.# I A.,XF.F.A.C.'.1.X & b ( a y t a y GXGXGXGXGX",
"GXGXGXGXGXGXGXGXGXGXGXGXGXGXGXGXb z.A.P f I C.4X,X,X6X9X}.b X & r i u _ _ _ GXGXGXGXGX",
"GXGXGXGXGXGXGXGXGXGXGXGXGXGXGXGXGXI Z.Z.z.,.I z.4X5X6X5X}.8 & & t ^ H.L.I.| ^ GXGXGXGX",
"GXGXGXGXGXGXGXGXGXGXGXGXGXGXGXGXGXGXP Z.|.4XC.I q.|.4X5XC.& & * u ^ H.I.I. .( GXGXGXGX",
"GXGXGXGXGXGXGXGXGXGXGXGXGXGXGXGXGXGXk 5.Z.,X9X2XC.B.}.5Xz.X b b t ~  .K.K.H._ GXGXGXGX",
"GXGXGXGXGXGXGXGXGXGXGXGXGXGXGXGXGXGXY.<.L q.|.0X9X.X.X4XP $ b & i u | K.K.K._ GXGXGXGX",
"GXGXGXGXGXGXGXGXGXGXGXGXGXGXGXGXGX<.oXQ.3.] 8./.4X5X9X,Xg & b X % u | K.K.K._ GXGXGXGX",
"GXGXGXGXGXGXGXGXGXGXGXGXGXGXGXGXGX] oXoXXXY.&.<.g. X5XA.& & b X i u | K.K.L._ GXGXGXGX",
"GXGXGXGXGXGXGXGXGXGXGXGXGXGXGXGXGXx (.oXeX%XXXR.e.f.;Xs.o X = $ u ~ | K.K.I.| GXGXGXGX",
"GXGXGXGXGXGXGXGXGXGXGXGXGXGXGXGXGXd Y.oXwXFXnXjXwXXXwX%X1.d o % ~ ~ | | | | ^ GXGXGXGX",
"GXGXGXGXGXGXGXGXGXGXGXGXGXGXGXGXGXGXr.oXeXVXVXVXVXVXFXVXmX_.b $ s u ~ u ~ ( d GXGXGXGX",
"GXGXGXGXGXGXGXGXGXGXGXGXGXGXGXGXGXGX] (.%XnXVXnXnXVXnXmXSXsX-.8 v ] { { <.1.3.x GXGXGX",
"GXGXGXGXGXGXGXGXGXGXGXGXGXGXGXGXGXGXp Y.XXeXMXVXmXnXnXnXVXXXz z L h.i.u.u.g.i.x GXGXGX",
"GXGXGXGXGXGXGXGXGXGXGXGXGXGXGXGXGXGX>.c e.oX%XdXmXmXnXnXVXwX..k x 3.u.0.u.y.3.g GXGXGX",
"GXGXGXGXGXGXGXGXGXGXGXGXGXGXGXGXGXw.Z.0 $ y.Q.OXwXjXnXVXVXsXr.f c 2.i.2.h.y.-.GXGXGXGX",
"GXGXGXGXGXGXGXGXGXGXGXGXGXGXGXGXGXj Z.B.8 % e.W.oX%XrXnXVXnXi.g z 4.1.:.:.-.z GXGXGXGX",
"GXGXGXGXGXGXGXGXGXGXGXGXGXGXGXGXGXX 9.>X|.5.j -.e.Y.Q.OXjXAXU.k z x z z z * GXGXGXGXGX",
"GXGXGXGXGXGXGXGXGXGXGXGXGXGXGXGXGXo 9.F.,X6XZ.,.-.<.<.e.Y.wXa.k f * * z GXGXGXGXGXGXGX",
"GXGXGXGXGXGXGXGXGXGXGXGXGXGXGXGXl X B.G.Z.C.,X,XV.B.q.>.:.i.F GXGXGXGXGXGXGXGXGXGXGXGX",
"GXGXGXGXGXGXGXGXGXGXGXGXGXGXGXOXs.b I A.Z.9.,.Z.4X8X6X.XV.V.0.GXGXGXGXGXGXGXGXGXGXGXGX",
"GXGXGXGXGXGXGXGXGXGXGXGX1.W.OXtXtXy.  I B.Z.B.0.q.}.4X5X9X9X|.& GXGXGXGXGXGXGXGXGXGXGX",
"GXGXGXGXGXGXGXGXGXGXGXz OXMXtXtXtXOX%   j B.F.F.B.q.A..X4X9XC.GXGXGXGXGXGXGXGXGXGXGXGX",
"GXGXGXGXGXGXGXGXGXGXGXl tXdXtXtXtXf.t r % d 9.<X9X,X|..X4X5X,.GXGXGXGXGXGXGXGXGXGXGXGX",
"GXGXGXGXGXGXGXGXGXGXGXO.eXtXtXMX&Xy r ` s % * 0..X9X9X5X6X5X0.GXGXGXGXGXGXGXGXGXGXGXGX",
"GXGXGXGXGXGXGXGXGXGX1.g.W.OX&XsXs.o ) $.` a r t l p.}.6X9X4XC.GXGXGXGXGXGXGXGXGXGXGXGX",
"GXGXGXGXGXGXGXGX% W.tX&X).).OX&XW.s ) %.%.` ` / r r k h.C.B.C.GXGXGXGXGXGXGXGXGXGXGXGX",
"GXGXGXGXGXGXGXl W.dXdXdXtXtX&XtXOXk u =.@.@.$.$.#.) ~ u y y GXGXGXGXGXGXGXGXGXGXGXGXGX",
"GXGXGXGXGXGXGX4.@XdXtXtXtXtXtXtX%XO.r / ` $.%.$.%.%.@.} / t GXGXGXGXGXGXGXGXGXGXGXGXGX",
"GXGXGXGXGXGX:.g.U.W.OX).OX-XtXtX&XO.u / / ` $.$.$.%.%.*.$.t GXGXGXGXGXGXGXGXGXGXGXGXGX",
"GXGXGXGXy 3.&XeXOX).).).OXeXeXtXtXg.r / s ' @.%.$.$.$.%.$.& GXGXGXGXGXGXGXGXGXGXGXGXGX",
"GXGXGXGXY.tXdXtXtXtXeXtXdXjXMXMXjXW.u / s ' $.%.$.@.@.%.#.% GXGXGXGXGXGXGXGXGXGXGXGXGX",
"GXGXGXX W.VXtXeXtXtXtXtXjXhXjXyX&Xg.r s ) =.@.$.$.$.$.%.@.% GXGXGXGXGXGXGXGXGXGXGXGXGX",
"GXGX& -.l g.&XdXtXtXeXeX).W.).).&XW.s / =.@.@.$.$.$.$.%.#.% GXGXGXGXGXGXGXGXGXGXGXGXGX",
"GXGX& 4.d * u.OXtXtXdXMXtXeXiXMXDX_.r ) @.@.@.$.$.@.$.%.#.% GXGXGXGXGXGXGXGXGXGXGXGXGX",
"GXGXGX* L b.z.2.g.Q.OXtXtX&X&XeXOX:.$ ` @.+.@.$.$.$.$.%.+.% GXGXGXGXGXGXGXGXGXGXGXGXGX",
"GXGXGXGX:.6X<XA.0.g.h.b.m.m.m.P GXGXr ` @.+.@.$.$.$.@.%.=.% GXGXGXGXGXGXGXGXGXGXGXGXGX",
"GXGXGXGXGXq.C.'.|..X|.A.D. X4Xb.GXGXu ` #.+.@.$.$.$.$.&.[ y GXGXGXGXGXGXGXGXGXGXGXGXGX",
"GXGXGXGXGXGXg 5.B.B. X,X4X5XcX1XGXGXt ` #.+.@.$.$.$.$.$.+.a GXGXGXGXGXGXGXGXGXGXGXGXGX",
"GXGXGXGXGXGXGXGXe e P q.B.'.kX,XGXGXu ` @.@.@.$.$.@.$.$.@.a GXGXGXGXGXGXGXGXGXGXGXGXGX",
"GXGXGXGXGXGXGXGXGX# , w A P M.M.b GXs ` @.+.#.$.$.$.$.$.$.a GXGXGXGXGXGXGXGXGXGXGXGXGX",
"GXGXGXGXGXGXGXGXGXGX, B 0 7 S 6.h o u ` $.#.$.$.$.$.$.$.@.a GXGXGXGXGXGXGXGXGXGXGXGXGX",
"GXGXGXGXGXGXGXGXGXGXo M V m M c.6.$ u ` @.+.#.$.$.@.$.$.%.' GXGXGXGXGXGXGXGXGXGXGXGXGX",
"GXGXGXGXGXGXGXGXGXGXGX9 Z V n R k.H r ` #.[ +.$.$.$.$.$.&.[ % GXGXGXGXGXGXGXGXGXGXGXGX",
"GXGXGXGXGXGXGXGXGXGXGXGX3 C M B 6.6.s ) +.' [ $.$.$.@.$.*.*.a GXGXGXGXGXGXGXGXGXGXGXGX",
"GXGXGXGXGXGXGXGXGXGXGXGXO 0 C V Y 6.a ) #.[ +.$.$.$.$.*.%.#.u GXGXGXGXGXGXGXGXGXGXGXGX",
"GXGXGXGXGXGXGXGXGXGXGXGXGXGX2 w U 6.a ) #.[ @.$.$.$.$.` / u a GXGXGXGXGXGXGXGXGXGXGXGX",
"GXGXGXGXGXGXGXGXGXGXGXGXGXGXGX@ 3 g t ` @.+.$.$.$.@.` / / e..X[.7.GXGXGXGXGXGXGXGXGXGX",
"GXGXGXGXGXGXGXGXGXGXGXGXGXGXGXGXGXGXt ` %.$.$.%.#.) u a d.8XbXbX8X'.;.GXGXGXGXGXGXGXGX",
"GXGXGXGXGXGXGXGXGXGXGXGXGXGXGXGXGX  s ` %.%.$.` u i a b.6XbXcXCXbX*Xq.g 2 2 GXGXGXGXGX",
"GXGXGXGXGXGXGXGXGXGXGXGXGXGXGXGXGX$ / #.%.#.} ` ] ,.B.,X,X[.V.b.0.8.8.c.c.8.G G GXGXGX",
"GXGXGXGXGXGXGXGXGXGXGXGXGXGXGXGXGX% ) ` ) u t x 0.0.,.P j A 8.6.6.6.k.l.l.l.k.c.8 GXGX",
"GXGXGXGXGXGXGXGXGXGXGXGXGXGXGXGXGX% s / s l f q w 9 3 3 n B j.l.l.l.l.l.l.n.n.k.2 GXGX",
"GXGXGXGXGXGXGXGXGXGXGXGXGXGXGXGXGXs s a g x g # q 2 , , 9 0 B 6.l.n.n.l.k.8.J h GXGXGX",
"GXGXGXGXGXGXGXGXGXGXGXGXGXGXGXGXGXGXGXGXGXGXGXGXGXGXGXGXGX= : 2 A H G h 2 GXGXGXGXGXGX",
"GXGXGXGXGXGXGXGXGXGXGXGXGXGXGXGXGXGXGXGXGXGXGXGXGXGXGXGXGXGXGXGXGXGXGXGXGXGXGXGXGXGXGX"
};
