/* XPM */
static char *e23ff3330ae24161bc74ed2dc9b40575rh7XaMRNvGhladDU[] = {
/* columns rows colors chars-per-pixel */
"64 64 196 2 ",
"   c #4C2E24",
".  c #562F28",
"X  c #533126",
"o  c #5C3727",
"O  c #55342A",
"+  c #5C352C",
"@  c #57392E",
"#  c #5C3A2D",
"$  c #5C3731",
"%  c #5C3C32",
"&  c #602E23",
"*  c #633426",
"=  c #6B3726",
"-  c #6B3926",
";  c #63362B",
":  c #6B372B",
">  c #643A2D",
",  c #6B3B2C",
"<  c #723C2C",
"1  c #793E2E",
"2  c #643731",
"3  c #633C33",
"4  c #6B3C33",
"5  c #633F38",
"6  c #6B3F3A",
"7  c #713A32",
"8  c #7B3F31",
"9  c #723E39",
"0  c #5E4135",
"q  c #5E4139",
"w  c #6B412F",
"e  c #73422F",
"r  c #7A422E",
"t  c #644234",
"y  c #6B4135",
"u  c #64433B",
"i  c #6B433B",
"p  c #66493D",
"a  c #6D493D",
"s  c #754435",
"d  c #7B4535",
"f  c #774836",
"g  c #7D4936",
"h  c #75453B",
"j  c #7B453A",
"k  c #75493C",
"l  c #7C4A3C",
"z  c #7F513F",
"x  c #654541",
"c  c #6D4541",
"v  c #654A42",
"b  c #6D4B42",
"n  c #744641",
"m  c #784742",
"M  c #744C44",
"N  c #7C4C43",
"B  c #764E48",
"V  c #6F5C4E",
"C  c #765146",
"Z  c #7B5145",
"A  c #735A46",
"S  c #75564D",
"D  c #7D554C",
"F  c #755A4D",
"G  c #7C5A4D",
"H  c #6D5C54",
"J  c #755652",
"K  c #7B5651",
"L  c #745B54",
"P  c #7B5B54",
"I  c #735D58",
"U  c #7A5E59",
"Y  c #77614D",
"T  c #6F6158",
"R  c #746053",
"E  c #7B6155",
"W  c #756058",
"Q  c #7C625B",
"!  c #7E6C5E",
"~  c #7E6A63",
"^  c #803E30",
"/  c #824435",
"(  c #894636",
")  c #814936",
"_  c #82463A",
"`  c #89473B",
"'  c #834B3C",
"]  c #8A4B3C",
"[  c #964E3F",
"{  c #9A4E3E",
"}  c #82503F",
"|  c #8C513F",
" . c #93543E",
".. c #99523E",
"X. c #834C42",
"o. c #894C42",
"O. c #804F4A",
"+. c #954F40",
"@. c #994F46",
"#. c #835144",
"$. c #8D5444",
"%. c #8E5945",
"&. c #84554B",
"*. c #8C5749",
"=. c #83594D",
"-. c #8C5A4B",
";. c #945444",
":. c #9A5544",
">. c #945946",
",. c #9B5946",
"<. c #94564A",
"1. c #9A5649",
"2. c #935A4B",
"3. c #9E5B49",
"4. c #9F5C4B",
"5. c #9C5B4B",
"6. c #815653",
"7. c #825B53",
"8. c #885D56",
"9. c #825D58",
"0. c #9C5751",
"q. c #975D56",
"w. c #9C5C52",
"e. c #A45546",
"r. c #A25B47",
"t. c #A4554C",
"y. c #A1594A",
"u. c #A15D4A",
"i. c #A55D4B",
"p. c #A15D4C",
"a. c #A35E4E",
"s. c #A55E4E",
"d. c #A35B4C",
"f. c #A95D4D",
"g. c #A15C51",
"h. c #A95D50",
"j. c #94614E",
"k. c #9C604E",
"l. c #856057",
"z. c #84645D",
"x. c #8A655C",
"c. c #836A5E",
"v. c #8C6A5E",
"b. c #946251",
"n. c #9E6255",
"m. c #9D6155",
"M. c #93695E",
"N. c #A3614D",
"B. c #A36051",
"V. c #846662",
"C. c #8B6661",
"Z. c #866D66",
"A. c #856B64",
"S. c #8A6961",
"D. c #8D6A61",
"F. c #8E6C63",
"G. c #8A6F66",
"H. c #8E6D65",
"J. c #8B6B64",
"K. c #866E69",
"L. c #8B6D6A",
"P. c #916763",
"I. c #906B62",
"U. c #936B63",
"Y. c #9A6E66",
"T. c #926E6A",
"R. c #857265",
"E. c #8B7166",
"W. c #85726B",
"Q. c #8D726C",
"!. c #84796F",
"~. c #8C796B",
"^. c #937066",
"/. c #91736B",
"(. c #92736C",
"). c #9A746D",
"_. c #957A6F",
"`. c #8F6F70",
"'. c #8D7571",
"]. c #877D73",
"[. c #8C7B74",
"{. c #8E7C78",
"}. c #927573",
"|. c #987271",
" X c #937B75",
".X c #9B7C75",
"XX c #977779",
"oX c #947D79",
"OX c #997C7A",
"+X c #A27E75",
"@X c #8A8076",
"#X c #8E8279",
"$X c #948177",
"%X c #95827B",
"&X c #9D807A",
"*X c #A08282",
/* pixels */
">.>.:.;.:.,.:.;.] *.&.D l.P L E m.i.f.f.i.i.i.f.i.i.N.,.,.:.:.:.;.>.:.:.,.:.:.,.$.o.l Z I./.Z.I.n.h.i.d.t.,.,.:.,.:.;.>.>.;.>.>.",
">.;.;. .:. . . .d X.N D E E R l.5.i.y.y.,.r.,.,.y.u.u.,.:.+. ... . . ..... .:.;.] o.l D F./.Z.F.w.y.t.1.:.;.+.+.@.;.;.;.;.;.;.;.",
">.>.;.;.;.>.;.;.) #.Z C P U H K n.B.i.i.d.p.p.3.3.4.u.3.,.:.:.:.;.>.:.;.:.:.:.;.] o.N Z v./.Z.F.q.w.p.4.1.1.>.1.;.;.1.<.<.<.;.1.",
">.%.| ;.;.;. .;.' o.l C l.E L P 2.>.1.,.,.3.1.,.1.3.3.,.:.:.@.1.;.;. .;.;.;.;.;.' X.j Z F./.Z.F.2.1.1.1.>.1.1.1.;.<.;.;.;.;.;.$.",
"} ] } ] ] } } ) s s s C z.G.A.S.s r 1 r / ) _ / ] | +.] ` ] +.` ] ' ] ] ` ] ] ] _ N h C C./.L.J.s 8 8 d _ _ ` ) ] o.] ] ] ] o.' ",
"X.} ' g ' ] ' ' s f a C v.~.K.E.> - - - s / d d ) ' ] _ ` ` ` ` ' ' ' ] ) ] ' X.l l h B D.E.L.J., : < < j ' ' ' o.` X.] X.` o.' ",
"#.#.} } } } #.l l l a C S.E.A.A.t , , s d l l j o.o.o.o.] ` o.o.#.z X.#.} #.X.X.j k i B C.Q.K.L.y , 4 s l #.#.#.X.' o.' X.X.o.' ",
"Z l l l l z l k f a u M G.}.Q.G.t > > , y h h s l X.N o.X.X.o.o.N l X.l l l l N h k a B J.Q.L.L.3 , , w j Z X.l N l m X._ X.X.` ",
"y y y > > > > > # o 0 t E._. X~.% # o # # > ; ; h h h j m 9 j j 4 2 4 > > ; ; ; 3 + $ 3 L.`.`.L.% o o > a l k s 4 4 4 4 7 7 7 7 ",
"t t t > > > > # t # 0 0 /. XXXE.0 % % # % 3 3 3 m n m n m m m n 6 6 6 6 2 ; ; > t 3 % u L.L.L.V.t 3 > t p k b h 6 4 4 4 4 y 7 y ",
"3 3 0 # o o o o #   O 0 /. XOXQ.@ @ O O O @ + $ c b c n n 9 c n 5 5 3 + + + O X @ O $ % V.L.`.V.+ O + % i a b a 3 3 3 3 3 3 3 3 ",
"x p p t t 0 0 0 t 0 0 p (. XOX}.q q q 0 % 0 % 5 b b b b M M M M 6 x 5 5 u u u u u q x x `.`.`.L.% t t u b b b M i u i a i i i a ",
"K J S S A A A A l.c.v.E $X(. X}.V.z.Q Q L F J J L J K L J J J K J J J U 9.V.z.z.V.z.V.U OX}.XX`.L.C.C.l.P G D S D S S S S F S S ",
"Q Q Q E E R U E R.~._.R.&X/. XXXQ.Q.Q.L.z.Q l.Q U U U U U U E U U U J V.L.`.}.(.Q.L.}.A.*XXXXX}.T.(./.G.z.9.L U U U E E U I E P ",
"U U U L Y Y Y Y c.c.E.c..X~.}.OXL.L.K.V.U J L I J I J I I L L I J J J U V.L.L.K.A.A.L.V.OX}.XXXXV.J.D.V.P J L E L L L F L L L L ",
"K =.G G #.G Y Y v.v.F.x.+X).).).D.I.I.x.P K G 7.P J L L I J I K U 6.6.9.C.P.I.C.F.F.^.z.+X|.|.|.I.U.Y.M.8.G D 7.K G P F L R H R ",
"k.5.k.k.k.k.k.k.>.>.>.%.%.j.-.%.=.} ] #.%.2.-.&.N N D S T.L.`.T.q.w.w.w.<.2.2.*.-.*.*.-.-.-.-.-.&.} z #.*.*.*.&.l #.C C P U J R ",
"u.N.3.r.r.r.r.,..... . . . . . .) ) ) ( ;.%.;.$.' l Z N T.C.L.P.2.t.e.1.@.@.+.+.>.;.>.%.%.%.%.%.) ) g ] %.;.;.$.' #.N M P I H W ",
"N.N.u.N.N.N.i.u.:.....;. .>. .%.| } ( | %.2.2.%.o.N &.N T.H.T.P.w.g.p.1.1.1.1.;.>.>.%.;.*.>.$.%.} ) ] } $.1.1.<.' X.M B P I H I ",
">.>. .;.,.u.,.,.;...;. .%. .%. .| ) | } o.$.$.$.l k N M ).T.`.T.q.1.1.;.1.1.;.;.;.$.$.$.$.*.$.$.} } ) } $.$.$.$._ X.m B 9.V.U U ",
"r r r / ( | ] ( ] ] ] ] ] ( ' ] ' ' ' ' ) ' g j 7 4 a i C.J.L.C.9 1 1 8 d _ / d / _ _ _ _ j _ ' g d d d / j / j j N m B x.J.V.K.",
"w - - < g ] ] ( ] ' ] ( ) } ' ' } X.l g _ d d d , > 4 5 J.L.T.J., = : < s g d d j d d d d d d d d d d d 8 d j 8 8 m h B C.H.K.`.",
"w - w w ' } } ] ' ] ] ] | } ] #.#.#.#.N l j h h 4 > 6 u T.L.}.G.y , , s j l l j g j j j j j j j g j j j j j j j j n 9 M C.T.L.`.",
"w w > w l Z ' g X.' l ' l ' l l l N N l k s h f 3 > 3 5 J.L.L.A.y > > , y k k s h s h s j j j j s h h h j h j j h n c M C.`.K.L.",
"t t w w a s j s N X.X.l s , 4 y 3 3 4 4 4 > 4 4 # + % t Q. XoX}.3 # 0 o 0 o > > 4 > 4 4 h h l h h n h h s , 4 4 ; ; + u C.}.}.`.",
"t t t p k M Z N N #.Z N s 3 4 4 i u i y y t t y t + % q Q.XXoXQ.@ # O O o o o o 3 > 4 y h j m m n n n h 6 y 3 > 3 3 % x V.L.L.L.",
"0 0 0 0 i a k k B N N M y 3 # 3 3 q 3 3 3 3 > > $ O X % Q.oXoX'.0 0 % @ % # 0 # 3 # 3 y a b M n n c c a 3 3 > # O O X u Q `.L.`.",
"p p p p b b b M B C B M b u p p u u u u a p p i u % q x '.[.%X[.% @ @ 0 0 # % % u u u i c M M M B B M M p u p p % p q v V.'.W.'.",
"c.v.z.z.9.K P 6.K 7.6.P L F J J I J J P z.x.x.z.z.z.V.Q oXQ.[.[.Z.A.A.A.A.R.S.S.S S S S G P J D J K P K S F F F c.c.E ! [.{.'.[.",
"_.~./.C.z.9.6.P 9.P E P P U E E U U U Q S.^.^.E.~.(. XA.OX!.[. XR.E.S.J.A.A.A.E.E U P L U P U L L I U U L L E R ~.~.R.!.oXoX'.{.",
"E.E.F.z.P J D K J J P L L R R I I J L U c.D.S.c.v.S.~.! %XQ.{. XE.E.E.E.E.E.E.~.E L L L L P L J J L J L L F V Y ! R.A.~ [. X{.oX",
"M.Y.U.M.8.6.7.7.7.P P P E I H I 9.6.6.8.v.U.Y.M.M.U.Y.x.+X/. X(.F.F.v.v.J.v.F.S.P G F G I E U U P 6.8.6.=.G G E v.^.F.S._.}.L.|.",
"<.1.2.<.2.2.2.*.N N Z M T.V.L.I.w.w.g.n.w.p.g.p.w.4.1.1.1.1.<.;.' f f g =.-.-.=.a a a b E.R.K.C.w.g.g.g.i.g.p.5.1.;.>.>.1.;.<.<.",
"1.;.+.@.;.;.+.$.o.N &.N T.J.L.P.5.i.e.e.e.i.e.e.e.e.r.e.+.{ { [ / d r g | %.%.%.f f k b E.G.`.I.g.t.e.e.e.e.e.e.:.;.+...;.:...:.",
"1.1.@.;.1.1.;.$.' N O.B T.J.`.I.m.p.N.i.N.p.i.u.B.N.u.3.,.:.;. .d d r ] %.%.-.=.j h k b T.G.Q.I.g.d.d.d.N.B.i.N.:.,.,.:.,.,.,.>.",
"1.;.<.+.+.<.%.*.N l N M T.H.L.J.2.>.>.>.>.1.>.>.>.,.>.;.;.o.| | ) g / ) } %.%.} s y a c H.L.L.I.2.>.:.,.>.5.5.:.;. .;.$.$. .$.;.",
"o.o.` ' ] o.' ' g h M n T.L.L.C.l ) ) ) ) ) ' ) ' ) ) ) ) g ) ) d d d d ) ' g j 7 , i i J.L.L.J.h e r r g g g g d g d g d d / / ",
"o.o.o.' ' ] ' l l h h c I.J.L.C.a s s s s s s s s s d s s f d s j j d d d g d s 4 > 4 3 C.H.L.C.> = - w w e s s d d d d d d d d ",
"#.o.X.X.o.#.#.l h h a i L.L.`.C.k f g f h f h f j f f f d j j h l j j j l j g j 4 ; 2 5 T.H.L.J.y y w y g l z l f f d h j d d d ",
"N N m j N N l l m a c b /.L.`.J.h h h h f j h f k k j h h h h h h h h h j j j h 4 2 4 5 H.`.'.J.3 > > y y k f k h h j j h j j j ",
"6 4 2 , 4 , 4 4 + + > % V.L.'.L.i 4 4 4 4 7 4 4 h n j n k j n j 4 4 4 : , : 4 4 : + 3 5 /.}.OX|.% ; + ; , 4 4 7 , 7 7 7 7 7 7 7 ",
"i i 6 u 6 y y y 3 % 3 5 L.L.`.K.6 6 6 4 7 6 9 9 m n m m m M m m 6 6 6 6 i 4 4 y 6 2 3 5 /.XX}.L.3 > 2 2 6 6 6 6 6 h 9 9 9 9 9 9 ",
"u % 3 % 3 3 3 # $ . O @ V.L.L.V.3 2 2 2 2 3 4 3 n n n h n n n c 5 3 2 3 3 > 2 3 + . O % }.XXOX'.$ + + 2 2 2 3 4 4 3 4 4 2 6 2 7 ",
"x u u u p b k p 6 % 5 x L.L.'.L.c i c i 6 6 6 6 M M M M M M M M 6 u 6 u i i u y u 5 u x '. XoX}.x i 6 6 5 i 6 i 6 6 6 6 6 6 6 6 ",
"I L F P 9.z.v.z.x.v.J.Q OX'.}.}.V.J.V.l.U J K K K J P K P J K L J J K K J K G D x.z.A.Q oX'. X'.V.z.V.9.U K P K K J J J K J J U ",
"U U L Q A.^.^.I.^.(..XJ.OX'.OXoXQ.Q.Q.Z.V.U U Q W E Q U U U U Q Q U U U l.E E E H.~. XA.%XQ.[.[.}.T.L.J.z.E U U Q Q E W U U I U ",
"I L J U c.F.S.S.C.C.I.V.OX}.}. XK.K.A.~ E H L I I L R I I I I R I U J U L F G L z.c.E.A.%X[.[. XW.Q.K.V.W I L H H J H H H H H H ",
"9.P K 7.v.^.Y.M.Y.Y.Y.x.+X).).(.Z.R.E.c.I L P E E P L R P I I U U 6.6.6.6.6.7.=.I.I.^.x.&X_. X}.E./.L.z.l.P J E G R I R T T I I ",
"w.;.o.1.w.g.B.p.g.g.g.g.w.g.g.q.M a k z =.b.j.j.j.%.%.=.7.K L K q.g.0.0.@.<.<.<.*.*.*.-.&.-.-.=.M k h N -.b.j.2.%.2.&.7.I.H.A.Q.",
":.+.+.+.y.i.g.d.e.d.f.e.d.f.t.p.d y s g %.j.k... .| | &.7.6.P 8.0.t.t.t.@.@.@.1.@.1.;.<.<.$.*.*.s s s ) ;.4.u.,. .>.<.-.M.I.J.L.",
"1.;.;.,.p.B.N.u.g.p.g.p.g.p.d.g.h a f X.j.k.N.N.;.;.%.&.=.P K K q.g.g.0.0.1.1.>.2.<.;.*.2.<.*.2.h s d ] >.B.N.g.:.,.$.-.P.T.J.L.",
">.;.$.;.>.>.>.>.>.1.,.1.,.,.1.1.l f f ]  .>.k.>.;.| $.&.8.9.U 6.0.0.0.<.@.$.$.$.$.$.$.*.*.*.*.*.j j l ' ;.3.y.t. .;.$.&.M.T.V.L.",
"$.' } g g ) d d ' g g ' _ ) / ' j h d j _ ( ( _ ) } ' =.l.J.E.J.X.$.} ] g g d g j g g g / j j g j d 9 ^ o.` o.^ ) o.X.&.D.T.G.L.",
"} z g f f f s s s d d d d d d d _ j j 8 / / / ^ ) ' N =.x./.E.H.m g g g g f r g d d s d 8 9 d d l _ _ ^ ^ ^ ^ ^ _ ' l Z v.E.Z.W.",
"Z z Z l f f f f j g j g l g j j l m _ _ _ _ _ / $.X.N =.z.H.K.c.Z } #.z l g g g g g d / m _ ^ _ X.X.X._ o.^ o._ ' ' l C A.Q.A.W.",
"g z l l f f f l l j g j l j l g j j j j / / _ j j l M D z./.Q.Q.k z z l j j j d j d j d _ ^ _ m 8 8 8 _ _ _ ` ^ X.#.M S S.Q.W.~ ",
"7 , , 7 j #.X.l l l X._ X.m X.X.l X.l X.l _ l X.: ; # u E. X XQ.t - * < d X.X.' m X.` _ ` ` ` ` X.X.X.o.o.' X.X.& 6 + 0 E.%XW.%X",
"h 4 4 9 M N N l X.#.O.X.X.X.X.X.N Z X.X.X.X.X.N 4 ; % u (. X[.R.3 > ; 4 j #.#.X.o.o.o.o.o.O.o.o.X.#.X.#.X.N X.Z ; 3 X q Q.%X~ @X",
"4 > > 4 h N N N Z X.Z O.O.O.m X.z l C l N m N N 2 . O % Q.%X%XQ.# * & 2 9 m N N m o.X.X.o.o.m m N N X.N m N N N o +   q R.%X].@X",
"i h a M N N &.D B N N N m N N N Z k C z B B Z C i % u v '.[. X Xi i 6 h N D &.O.O.m X.O.m O.o.O.Z C C Z D G D D u p q v W.@X].@X",
"v.v.x.l.P G D G G K &.G 6.&.6.&.G G G D G G G G V.z.A.~ %X'.[.~.C.x.9.C.P.I.P.P.6.K 6.6.6.6.6.6.=.G D =.l.v.v.v.Z.Q.A.A.[.@X].].",
"(././.v.E G J 7.P G P P 6.G G J G Y G Y P P P P L.Q.}.A.%X'.[.[.}.`.T.L.`.|.|./.U I U K P P P J G F Y E c.E.^.E.oX X%X%X[.].[.@X",
"R.R.R.c.R R E E S S S F S F S F F A F F S F S L V.A.'.~ %X'.[.oXK.K.K.K.K.K.K.K.H J J L L J J V V z A E c.E.E.R.~.Q.[. X].].#X@X",
"R.R.R.c.E V F R R R R L R F P E Y Y Y Y E E U I K.K.Q.~ %X[.[.[.K.K.K.K.K.`.W.K.I I I I I I T T Y Y Y E A.E.~.R.%XQ.[.[.].].@X]."
};
