/* XPM */
static char *_b72c0b6157f42a3b7b73acb69cbde38As0jnocRygE9qrdR[] = {
/* columns rows colors chars-per-pixel */
"64 64 184 2 ",
"   c #484524",
".  c #5C572F",
"X  c #595635",
"o  c #625F3E",
"O  c #65643C",
"+  c #69663D",
"@  c #6B693D",
"#  c #666341",
"$  c #696643",
"%  c #6C6946",
"&  c #726C42",
"*  c #727143",
"=  c #7B774A",
"-  c #7D794C",
";  c #7E7D51",
":  c #817A4E",
">  c #837D51",
",  c #848153",
"<  c #888457",
"1  c #8D865A",
"2  c #8D895A",
"3  c #928E5D",
"4  c #95935C",
"5  c #98925E",
"6  c #8D8C60",
"7  c #959163",
"8  c #999566",
"9  c #9B9C6B",
"0  c #9C9E75",
"q  c #A19B67",
"w  c #A19E6F",
"e  c #9AA26D",
"r  c #9DA172",
"t  c #9FA37B",
"y  c #A0A86F",
"u  c #A3A272",
"i  c #A3AB70",
"p  c #AFAA73",
"a  c #A1A27A",
"s  c #ACAA7C",
"d  c #B2AC7D",
"f  c #AAB574",
"g  c #ADB876",
"h  c #ADB67B",
"j  c #B1B57E",
"k  c #BBB67F",
"l  c #B2BA7E",
"z  c #A7A880",
"x  c #B1AE81",
"c  c #ADB580",
"v  c #AFB088",
"b  c #B4B583",
"n  c #BAB786",
"m  c #B4BA84",
"M  c #BCBB85",
"N  c #B3B488",
"B  c #B4BB8B",
"V  c #BDBC8B",
"C  c #B6BD92",
"Z  c #BDBD91",
"A  c #C2BE86",
"S  c #C2BE8D",
"D  c #C2BE91",
"F  c #B7C087",
"G  c #BEC286",
"H  c #BEC18B",
"J  c #BAC090",
"K  c #BFC893",
"L  c #BBC299",
"P  c #C0C185",
"I  c #C4C38C",
"U  c #C8C68E",
"Y  c #C6C88E",
"T  c #C9C88F",
"R  c #C5C492",
"E  c #CAC694",
"W  c #C6C991",
"Q  c #CBCB93",
"!  c #C4C398",
"~  c #CBC799",
"^  c #CDCC9A",
"/  c #D0CD96",
"(  c #D1CD9D",
")  c #CBD296",
"_  c #CED29B",
"`  c #D2D196",
"'  c #D1DA97",
"]  c #D3D49B",
"[  c #DAD79F",
"{  c #D5DA9D",
"}  c #D9DA9E",
"|  c #CDCBA3",
" . c #D2CEA3",
".. c #D0CEA8",
"X. c #D6D3A3",
"o. c #D9D6A3",
"O. c #D6DBA2",
"+. c #DADCA3",
"@. c #D2D0AA",
"#. c #DBD4A8",
"$. c #D7DEA8",
"%. c #DDDCAB",
"&. c #D8DFB5",
"*. c #E1DAAE",
"=. c #DBE2A5",
"-. c #DFE8A7",
";. c #DDE3AA",
":. c #DFE8AD",
">. c #DCE3B2",
",. c #DEE5B9",
"<. c #E2E5AB",
"1. c #E4ECAD",
"2. c #E9EEAE",
"3. c #E6F1AE",
"4. c #E9F2AF",
"5. c #E6E4B4",
"6. c #EAE6B7",
"7. c #E5EDB2",
"8. c #E9EDB3",
"9. c #E6EFB8",
"0. c #EBEDBA",
"q. c #E7F1B2",
"w. c #EBF4B4",
"e. c #EDF9B6",
"r. c #EDF5BB",
"t. c #EEF9BB",
"y. c #F1F6B6",
"u. c #F0F9B6",
"i. c #F1F6BC",
"p. c #F1F9BC",
"a. c #F8FCBF",
"s. c #E5ECC3",
"d. c #EDEFC2",
"f. c #EEF5C2",
"g. c #EDF8C0",
"h. c #EFF6CA",
"j. c #F2F6C2",
"k. c #F1F9C4",
"l. c #F2FAC6",
"z. c #F2F9C6",
"x. c #F4F8C6",
"c. c #F5F9C7",
"v. c #F4FBC7",
"b. c #F3FCC7",
"n. c #F3FAC3",
"m. c #F9FEC4",
"M. c #F2F5C8",
"N. c #F3F6C9",
"B. c #F1F9C8",
"V. c #F2FACA",
"C. c #F6FAC8",
"Z. c #F7FBC9",
"A. c #F5FCC8",
"S. c #F6FFCA",
"D. c #F7FECB",
"F. c #F7FFCB",
"G. c #F3FBCC",
"H. c #F7FFCF",
"J. c #F6FECD",
"K. c #F5FCCA",
"L. c #FCFBCB",
"P. c #F9FFCB",
"I. c #F9FDCB",
"U. c #F8F9CF",
"Y. c #FAFECE",
"T. c #FFFFCE",
"R. c #F9FCCA",
"E. c #F3FAD0",
"W. c #F6FED0",
"Q. c #FAFBD1",
"!. c #FDFFD1",
"~. c #FCFDD3",
"^. c #FCFFD2",
"/. c #FFFFD2",
"(. c #FAFFD5",
"). c #FDFED4",
"_. c #FEFFD5",
"`. c #FFFFD6",
"'. c #FFFFD7",
"]. c #FDFFD6",
"[. c #FBFFD2",
"{. c #FFFFD9",
"}. c #FCFFD9",
"|. c #FFFFDC",
/* pixels */
"t s.>.,.,.>.>.:.K F c g g g g f l h h h B F Z B H B H B N h h h N v s 0 0 0 0 t 0 0 a a 0 0 0 0 e e e r r e 0 0 r 7 6 ; + @ & . ",
"L |.E.(.H.J.J.V.H.k.t.t.t.n.p.p.k.t.f.h.P.^.'.^.(.^.^.[.S.l.k.l.'.'.'.Q.Q.U.U.U.~.{.|.{.'.~.~.Q.H.S.S.S.P.G.R.P.'.T.'.d. . . .V ",
"C }.h.E.H.l.V.V.7.:.:.:.1.q.q.3.5.:.:.5.r.f.M.M.r.f.g.r.9.7.,.7.f.j.M.N.M.f.d.d.j.h.M.j.d.d.d.f.g.g.r.r.f.r.f.r.j.j.L.6.! n n s ",
"C (.h.E.k.h.k.k.r.9.q.9.w.e.q.q.w.r.q.w.g.B.n.S.M.l.l.M.r.w.q.q.j.M.N.c.M.j.f.d.C.N.C.C.C.N.n.l.g.r.r.f.f.r.j.j.j.M.L.i.( D D x ",
"C (.f.W.V.l.V.k.f.r.w.w.w.w.q.3.r.r.w.r.r.g.g.i.g.g.g.r.w.7.1.1.r.j.i.r.f.i.r.0.r.j.r.r.r.r.i.r.r.r.t.t.g.t.g.k.i.0.i.6.~ E E b ",
"B H.f.h.f.f.g.g.t.t.g.t.t.t.e.t.u.u.t.i.i.g.i.k.r.j.p.r.0.7.3.1.i.i.i.i.i.j.x.m.w.7.7.6.0.r.r.r.g.t.g.g.t.g.p.t.8.7.8.*.Q E E b ",
"B [.f.S.h.k.n.k.r.r.t.e.e.e.e.t.w.u.r.u.r.r.r.r.r.r.r.r.q.1.1.1.w.r.r.r.r.e.u.i.w.7.7.w.r.i.p.p.e.w.e.e.e.e.9.t.r.8.w.<.Q Q / M ",
"B P.f.h.g.g.t.t.g.t.t.e.e.e.e.e.4.r.u.t.u.r.r.u.r.i.r.r.4.3.1.1.w.r.i.u.u.r.r.w.1.<.1.1.w.r.e.e.t.e.e.e.t.t.t.t.8.7.w.<.T Y T n ",
"c k.,.9.r.g.t.r.t.t.t.e.w.3.3.3.4.u.u.a.t.r.p.k.p.t.r.t.u.u.4.4.4.e.u.u.e.e.e.u.w.3.1.1.w.u.e.e.e.e.e.q.e.e.e.e.8.<.1.<.] +.} P ",
"c g.7.q.r.t.t.t.w.t.t.r.w.3.3.3.4.u.u.u.u.e.r.i.r.r.i.t.u.u.u.e.u.u.u.u.t.e.u.u.1.1.1.1.e.e.u.e.e.q.e.e.e.q.e.e.1.-.1.<.] +.+.I ",
"l t.:.q.9.r.t.e.t.t.t.e.3.3.3.1.e.u.u.u.t.r.r.r.r.r.r.p.u.u.u.u.e.t.p.u.t.t.t.t.3.3.1.3.9.t.t.e.e.q.e.q.q.e.e.q.1.=.1.-.{ } +.Y ",
"h n.7.q.q.t.t.r.t.t.e.e.q.3.3.3.4.r.r.r.i.r.t.p.r.i.p.i.u.t.e.r.t.u.p.p.e.e.w.t.q.q.q.3.w.t.g.e.q.e.e.q.e.q.e.e.1.-.1.1.{ O.=.Y ",
"h p.3.q.w.t.t.e.e.u.e.e.4.3.3.3.w.w.w.w.t.p.k.a.p.p.n.u.w.q.q.w.t.t.t.t.9.w.e.q.t.w.t.t.t.t.t.t.e.e.9.q.e.e.e.e.w.1.r.7.{ O.=.Y ",
"g p.:.q.w.e.e.e.e.e.e.e.4.4.3.3.4.w.7.w.t.p.n.n.k.n.k.p.r.7.1.7.w.w.t.9.9.q.,.q.g.n.n.p.g.t.r.r.e.q.q.t.e.q.e.9.t.q.i.w.O.=.$.Y ",
"g p.-.3.w.e.u.e.e.t.e.e.3.3.3.3.w.7.9.w.r.k.S.k.k.S.S.p.q.7.:.7.r.r.f.r.r.9.9.q.n.g.k.n.k.g.g.t.9.9.t.q.e.e.9.e.r.w.k.w.O.+.+.Y ",
"h u.3.q.w.t.u.u.e.e.t.e.4.3.3.3.w.w.7.w.p.p.n.p.n.m.m.n.w.7.q.q.g.g.g.f.r.,.9.q.g.t.k.n.n.t.t.t.t.t.q.t.e.t.e.t.w.q.p.w.{ } $.W ",
"l a.1.8.1.8.1.<.w.p.a.i.i.i.i.i.p.r.p.p.k.k.p.n.r.f.w.9.9.q.q.7.r.r.r.t.t.g.g.g.g.t.g.t.t.t.t.t.t.t.9.e.q.3.3.3.4.e.w.2.) W _ m ",
"l p.<.8.1.<.<.<.y.i.a.i.i.i.x.j.t.i.i.p.p.p.p.a.t.w.w.r.w.q.q.:.r.g.r.t.n.n.n.t.t.t.t.t.t.t.r.t.t.t.t.9.w.3.3.3.w.e.r.8.` W _ m ",
"h j.<.7.1.<.<.<.y.a.p.i.i.j.j.i.r.t.p.t.t.p.p.p.w.t.t.w.q.7.7.q.t.9.t.t.n.n.g.g.t.t.9.g.g.r.t.t.t.t.t.e.4.3.1.3.r.u.r.w.) H ) b ",
"b n.9.0.2.1.<.1.w.i.u.r.r.i.i.i.t.t.t.t.t.p.t.n.t.t.w.t.w.r.9.w.g.t.t.t.g.t.g.g.g.t.t.t.t.g.g.t.t.t.t.e.4.3.3.4.4.e.r.2.) R ) c ",
"B H.r.g.w.7.7.1.q.w.w.w.r.r.t.r.t.t.t.g.g.t.p.t.t.p.t.t.e.r.w.r.e.e.e.9.t.g.t.t.t.g.t.g.t.g.g.g.g.t.t.e.q.q.1.q.2.w.8.1.) W _ N ",
"B W.f.B.r.7.7.q.3.3.4.3.w.u.t.w.t.t.t.t.t.p.t.p.n.p.n.t.t.t.t.r.w.w.q.e.e.t.t.t.t.t.g.g.t.g.g.g.t.t.t.t.q.3.3.3.1.2.0.7._ R _ B ",
"B [.f.h.r.7.7.7.3.3.3.3.w.e.t.w.t.t.t.t.t.t.t.t.n.p.k.p.t.t.u.e.e.e.e.e.e.t.t.t.t.g.g.g.h.h.f.f.g.t.t.e.q.q.3.q.1.2.7.1.) W X.N ",
"v H.f.h.9.7.:.1.q.q.3.3.e.u.u.w.t.t.t.t.t.t.t.t.p.p.t.p.t.t.r.r.e.e.q.e.e.t.t.e.g.9.g.g.f.f.f.g.g.t.t.9.q.q.3.3.1.8.6.7.^ R ^ m ",
"J (.f.B.g.r.7.7.r.e.e.4.4.u.u.w.r.r.u.r.8.8.w.0.7.7.1.7.0.8.i.w.3.e.4.e.e.e.w.w.p.n.n.t.g.f.f.f.k.p.x.r.8.1.1.1.p.i.a.8./ E R b ",
"B [.f.l.0.<.:.<.w.r.e.w.w.a.a.e.i.k.p.p.y.8.8.w.8.7.7.w.y.y.i.r.3.e.w.w.4.w.w.w.m.n.S.k.l.f.f.j.S.n.a.i.8.1.2.1.i.i.m.6.~ R E n ",
"Z '.C.Z.r.8.2.4.2.y.w.4.y.i.p.u.i.y.i.r.6.2.2.2.2.2.7.8.8.y.y.8.4.e.w.w.w.w.r.r.i.x.j.i.j.i.g.i.p.x.p.i.8.1.1.1.m.m.L.i.~ I R b ",
"m U.0.r.0.8.2.4.y.y.y.a.i.p.i.i.i.i.y.y.y.y.8.8.8.8.8.8.0.y.y.y.e.t.u.y.i.i.i.r.m.i.p.m.x.x.n.c.S.m.m.j.w.8.3.3.i.y.m.8.~ R ! x ",
"9 $.Q ] o.+.} } ] { ] ] ` T T W U U U U T T T U I A I I T T T U U Y Y E W U W T Q T W Q ` ] o.] ] X.{ ) W Y Y Y _ Q X.^ V R R x ",
"3 Q j I Q { } ` } ] } ] / I S I S A I U T T T U I I A I I T U U U U I U U I U U U U U Q ` [ ] ] ] O.O._ W Y G Y I M I I n R D s ",
"4 / M U ` } } ] ` ` ` ` Q S M I A A A A U U U I A A A A U U A I I A I A I S S P I I I E / ] ] / _ _ _ ) Y H G I Y I Q E V S D s ",
"4 ] A U Q ` ] ] ` ] } [ / R R ~ E U U U Q / T U T U U U U T E E R E R R R U U U / W T Q [ +.O.o.$.O.O._ ) W Y W Y Y _ ~ V R ! N ",
"j x.8.r.w.w.0.w.i.r.0.r.M.C.C.M.i.w.r.i.a.n.x.i.0.r.r.f.j.c.x.m.X.S S n 6.L.m.a.i.0.i.0.j.x.i.j.i.y.i.0.w.0.r.0.w.r.9.j.f.M.n.%.",
"l S.w.p.r.r.r.u.i.r.r.j.l.C.G.n.j.r.r.t.n.n.n.p.M.f.j.j.M.C.Z.U.X.S S n 6.L.a.x.p.p.j.c.x.x.L.L.i.0.r.i.r.9.9.r.r.M.r.l.M.l.S.>.",
"m m.r.p.p.i.u.p.p.r.k.k.n.S.C.S.k.i.r.p.n.m.m.n.k.j.k.l.l.n.G.U. .S S n 6.m.j.a.k.k.j.n.L.m.L.c.i.r.i.w.r.r.r.r.f.M.r.l.l.l.R.>.",
"l n.w.t.r.r.r.w.t.p.u.k.M.n.k.x.r.r.w.r.a.m.n.k.p.p.t.j.k.j.n.n. .S S S 8.m.p.p.p.p.i.i.j.c.x.j.i.r.i.r.r.r.r.r.r.g.0.j.k.l.B.;.",
"l m.w.r.w.3.1.3.r.t.p.p.p.k.l.k.w.1.1.w.r.u.p.p.r.r.r.r.r.r.r.r.o.S I M 8.a.i.a.p.r.r.i.i.j.j.j.i.u.t.r.r.p.r.i.r.r.0.g.r.j.k.$.",
"m m.w.r.w.1.1.1.u.a.a.n.k.k.k.p.1.1.:.1.4.r.t.e.w.w.w.9.w.7.r.0.[ A I G 6.y.y.u.p.u.r.u.a.j.i.i.i.r.i.r.p.r.r.r.r.g.r.j.j.g.k.;.",
"l n.q.r.4.4.1.3.u.u.a.p.p.p.p.g.3.-.-.1.w.r.u.u.w.w.w.7.q.w.w.w.] S I A 2.u.y.y.u.e.w.i.i.a.i.i.p.p.t.t.j.t.i.p.r.k.r.p.k.p.n.;.",
"l a.w.w.4.1.3.3.e.e.a.u.t.r.w.w.1.1.-.1.w.u.u.u.w.r.w.w.w.2.w.y.` I U I 2.y.w.u.e.y.w.i.y.y.i.r.i.k.i.p.t.p.g.p.r.p.r.p.t.t.k.=.",
"y L.t.r.e.e.w.u.4.4.1.1.3.4.q.7.e.r.u.u.u.u.u.u.e.4.u.u.u.4.4.y.] I U P 2.u.w.u.4.3.4.w.w.u.i.p.p.k.k.p.p.t.k.r.i.p.w.p.r.r.k.=.",
"y m.r.r.i.w.4.u.3.3.1.1.1.3.7.7.w.w.e.y.r.u.e.r.u.4.4.u.u.4.4.u.` I U G 1.u.w.u.4.4.3.3.r.t.i.i.p.p.p.p.k.i.p.p.t.k.r.p.p.p.p.=.",
"e n.r.r.r.u.w.u.3.1.1.1.7.7.5.7.r.w.e.e.r.e.r.w.u.r.4.u.4.4.4.y.] I Y G 1.u.e.e.4.3.3.4.r.r.p.p.k.p.k.p.p.p.p.p.r.u.r.u.u.u.p.=.",
"e n.r.r.k.p.u.u.w.3.1.3.w.w.q.q.r.r.r.e.u.u.r.u.u.w.u.r.y.4.4.y.] P Y G 1.u.w.e.e.4.q.e.r.t.i.p.p.k.p.p.p.r.r.r.w.r.3.r.t.e.u.{ ",
"0 C.f.g.n.p.p.a.r.w.w.w.w.r.r.r.p.u.p.u.p.i.t.u.u.r.e.u.4.3.2.y.] P W G 7.u.e.t.e.e.9.e.g.g.n.p.k.k.p.p.p.r.i.p.1.3.1.4.3.w.w.' ",
"e G.f.M.n.S.p.n.p.t.r.i.r.p.i.t.k.k.k.k.k.p.p.r.p.r.r.u.w.2.1.4.] I W G 7.t.w.e.t.e.t.t.t.g.n.n.p.p.t.i.r.p.t.r.1.1.-.3.3.3.4.' ",
"r H.f.f.k.k.p.n.u.i.r.r.t.k.k.r.k.p.k.p.k.t.i.r.p.u.r.u.4.4.1.8.] I W F 7.t.r.e.e.t.t.t.g.n.k.n.p.k.k.r.u.r.r.r.1.1.<.3.4.4.w.' ",
"r C.f.r.t.n.p.m.r.r.w.r.r.r.r.r.j.p.i.p.i.i.r.r.u.i.y.u.w.1.2.2._ R W H 7.i.r.t.t.t.e.t.g.g.k.n.r.r.p.p.t.r.r.e.q.q.1.w.4.w.u.' ",
"e S.r.r.t.k.u.y.u.u.u.r.3.1.;.;.8.y.p.i.y.8.8.w.y.i.a.i.y.2.<.8.] G U V 8.i.i.i.r.r.r.r.n.n.k.t.u.u.u.r.4.3.3.w.w.u.r.u.r.w.u.=.",
"e S.r.r.t.p.t.e.e.u.u.r.q.1.-.-.2.y.a.i.8.2.2.8.8.y.i.y.8.2.2.8.] I R G 6.m.i.k.j.r.r.g.n.k.n.g.t.u.u.w.3.1.1.3.t.u.r.u.r.u.u.=.",
"e S.g.r.t.p.u.e.e.u.e.e.q.1.:.:.y.y.u.u.y.2.2.2.y.y.y.y.4.2.2.4._ G I H 7.i.i.j.r.r.r.f.p.n.g.g.p.u.u.r.7.7.7.7.i.u.r.k.r.r.k.=.",
"e V.r.r.t.u.t.e.e.u.u.e.q.1.:.:.4.y.y.y.4.2.2.w.y.y.y.y.4.4.2.4.] H W I 6.i.i.t.r.r.w.t.t.t.g.t.p.u.u.r.w.r.r.w.t.S.r.n.j.r.h.;.",
"e n.r.r.t.t.t.e.e.e.t.e.w.q.:.1.3.3.4.4.4.4.4.e.y.y.u.u.4.4.4.u.;.) { ) r.a.p.n.9.q.q.r.9.t.t.t.r.k.p.k.p.k.n.k.k.n.j.n.g.j.l.$.",
"e S.f.r.t.t.t.e.e.e.t.e.w.q.7.q.3.3.3.3.4.4.e.e.u.u.u.u.u.u.4.e.-.] O.) t.n.t.p.7.q.7.9.e.t.t.9.t.i.i.j.n.m.m.m.x.S.k.S.l.g.V.%.",
"e S.t.r.g.t.t.t.e.t.t.t.9.q.q.q.3.3.3.4.e.e.w.4.e.u.e.4.u.e.e.u.=.' { ) w.p.t.t.9.q.q.q.e.9.t.t.r.y.r.i.a.m.n.x.p.L.x.n.x.j.n.;.",
"e k.f.r.g.t.t.t.e.e.t.t.t.q.q.q.3.3.3.4.4.4.w.w.e.4.4.e.4.u.e.4.-.) O.) t.n.t.g.9.w.q.w.t.t.9.t.r.w.w.w.p.p.p.i.a.L.p.m.x.i.k.;.",
"9 B.r.9.w.8.<.2.w.w.i.r.8.7.7.9.u.a.a.a.e.3.1.w.3.1.1.3.w.u.u.u.-.O.{ ' 7.n.w.r.t.t.t.t.t.t.t.w.2.2.2.4.y.y.y.a.a.a.a.i.8.m.i.<.",
"e B.0.r.0.1.<.<.u.p.a.i.w.7.7.1.r.p.p.u.w.1.1.1.q.q.1.1.w.r.r.y.=._ ] _ 7.n.w.p.r.r.t.p.g.w.w.q.2.2.2.4.y.y.y.y.i.u.a.a.i.m.i.<.",
"u C.r.0.6.7.<.2.r.i.i.a.i.r.0.0.p.m.m.m.r.w.w.r.8.1.8.0.y.p.m.x.;.o.o.O.8.L.i.m.j.i.k.k.n.t.r.r.4.2.4.y.y.y.a.y.a.a.m.m.a.L.a.<.",
"9 c.6.8.6.0.2.6.2.2.8.y.6.<.<.<.8.y.x.r.9.<.<.<.;.=.<.<.<.1.7.8.] Q ^ W <.r.*.7.<.;.-.;.;.$.$.O.} } { } } =.+.$.+.+.<.=.+.=.o.P ",
", #.E ~ ( [ / / ` ` ] / U I V V Q ^ ] ^ R V H G R I I G V n V n D S S S ( %.] +.! W R K K R R W P M M M V V H V R S R R I R D s ",
"- ^ V V E / / / / ` ` E U A S A ~ / X.^ Q I R R R R ! E E I R R S x n A ~ #.^ X.R J V B V J R W A V V V V V V V R Z Z ! Z ! ! N ",
"> #.E ~ [ *.[ [ [ [ o.[ / E E E  .o.%.o. .~ E ~ ~ ~ ( ^ / ~ ~ ( ( ~  .( *.6.&.5.X.X.X.X. .( ^ ^ | | ~ | | | | | @.| ........| Z ",
"& D d d A S A A A A k p q 5 5 3 9 w u w 8 7 7 8 8 8 8 7 1 1 > > > : : : 1 7 < 3 , , , ; - * @ O @ $ O O O # O O % # $ $ # o X   "
};
