/* XPM */
static char *aabb8d9d37964f1f957c0229f125d7bbmos3boyPNFnmRSrk[] = {
/* columns rows colors chars-per-pixel */
"64 64 153 2 ",
"   c #24030F",
".  c #28000F",
"X  c #260411",
"o  c #2B0414",
"O  c #260B13",
"+  c #2C0916",
"@  c #2E0619",
"#  c #2E0A19",
"$  c #310617",
"%  c #310917",
"&  c #320719",
"*  c #340A1B",
"=  c #380D1E",
"-  c #2E1018",
";  c #36101E",
":  c #39111E",
">  c #360D20",
",  c #3B0E22",
"<  c #371121",
"1  c #3C1224",
"2  c #3E1827",
"3  c #3E1128",
"4  c #420E24",
"5  c #470F28",
"6  c #421426",
"7  c #411927",
"8  c #441629",
"9  c #4C162D",
"0  c #461A2C",
"q  c #4B1B2E",
"w  c #51162F",
"e  c #501B2F",
"r  c #471D31",
"t  c #4D1C31",
"y  c #541732",
"u  c #531C34",
"i  c #591D36",
"p  c #561E39",
"a  c #5B1E39",
"s  c #601F3D",
"d  c #4E2134",
"f  c #532135",
"g  c #562239",
"h  c #5C223C",
"j  c #62233E",
"k  c #5E2440",
"l  c #642442",
"z  c #682545",
"x  c #652A43",
"c  c #692A46",
"v  c #662B4A",
"b  c #682B4C",
"n  c #6A2A4C",
"m  c #6B2B4D",
"M  c #6C294C",
"N  c #6D2A4D",
"B  c #6E2B4E",
"V  c #692C4D",
"C  c #6B2E4D",
"Z  c #6A2D4E",
"A  c #6F2E4C",
"S  c #6E2F4C",
"D  c #6C2C4E",
"F  c #6D2D4F",
"G  c #6F2C4F",
"H  c #6C2F4E",
"J  c #6C2D4A",
"K  c #712E4D",
"L  c #712E4F",
"P  c #712F4D",
"I  c #6A3049",
"U  c #6C314D",
"Y  c #6D314D",
"T  c #6F304D",
"R  c #6F334D",
"E  c #6E324E",
"W  c #6F334F",
"Q  c #6D324C",
"!  c #6C384F",
"~  c #70314C",
"^  c #71314C",
"/  c #71324D",
"(  c #71304E",
")  c #70314E",
"_  c #73304F",
"`  c #72314F",
"'  c #71324F",
"]  c #72334E",
"[  c #73334E",
"{  c #74324E",
"}  c #70344E",
"|  c #71354F",
" . c #73344F",
".. c #70364F",
"X. c #74344F",
"o. c #71334E",
"O. c #6C2F50",
"+. c #6E2E50",
"@. c #6F2F51",
"#. c #702D50",
"$. c #6F3251",
"%. c #6F3253",
"&. c #6F3450",
"*. c #6E3350",
"=. c #6E3852",
"-. c #703150",
";. c #733051",
":. c #723151",
">. c #713251",
",. c #733250",
"<. c #723350",
"1. c #703052",
"2. c #713052",
"3. c #713153",
"4. c #723153",
"5. c #703352",
"6. c #733252",
"7. c #743351",
"8. c #743353",
"9. c #763352",
"0. c #703551",
"q. c #713551",
"w. c #733451",
"e. c #723650",
"r. c #733753",
"t. c #723753",
"y. c #753452",
"u. c #743552",
"i. c #763553",
"p. c #753653",
"a. c #703354",
"s. c #723254",
"d. c #733254",
"f. c #743355",
"g. c #713455",
"h. c #723554",
"j. c #723556",
"k. c #753454",
"l. c #763555",
"z. c #753655",
"x. c #763754",
"c. c #773654",
"v. c #743456",
"b. c #753456",
"n. c #753557",
"m. c #733552",
"M. c #783755",
"N. c #743854",
"B. c #753955",
"V. c #773855",
"C. c #763A56",
"Z. c #743852",
"A. c #763658",
/* pixels */
"&.N.N.,.j j { j s i f q -   O - v m m #.d.b.f.d.+.%.d.%.O.b b D l z z s s s s k k k p k k l z s v.v.1.O.v l l l l l l l l s z l ",
"0.0.p.) j j j j i i f q -   O + x M m B ,.f.d.d.d.d.j.%.O.b b b l z z z z s k k h p p s k z z z #.s.%.O.v l l v l l z l z l z z ",
"N.N.p.) { j j j i i i q %   O + v M B B #.d.d.+.A.A.A.j.%.O.b D s s s s s s p p p y i p s k l l 0.h.j.O.l h a j s l s l z s l z ",
"E E ) J j j j j y y i e % + O % b B B +.d.d.d.d.+.+.+.+.Z b b b z l z s k s b k h a a j l z z l ) E U m z l l l l l l l z z z s ",
"h h j s j j j j w w u 0 % % % = E L L ,.9.9.p.) s a s p s s s s K c c J F %.%.O.E E Y J L 9.{ ) l a a l U 0.p.) { ) ^ K M M M M ",
"i y y i j j j j w w e 8 : % ; = &.9.#.9.f.p.p.] y p y y p p p s J M M E s.A.j.g.N.Z.p.p.p.c.9.{ a u u h E N.V.0.p.X.X.^ M M M M ",
"i i y i j j j j w w w 9 = & ; * 0.) ) { p.p.[ R a p y y p k s p c c x c R 0.%.@.X.] ^ ) ) X.{ K l p i x I ..] I ) ) ^ J K c z z ",
"h u u i j j j j u w w 9 = & = * ] ) ) ) 0.) } R a p p p p p k p I c x I R 0.$.$.^ ^ ^ ) X.X.{ { p p i h v R ! ] ] ] ^ ^ K K M K ",
"w 9 w w y y u u u g g q 8 , = , h i h i u y f u p u u u 9 9 9 9 u u u u p g i g w w w y i a a a u p u p u p t p q w y y y y y 9 ",
"q q 9 q u u t u w e t q 6 , , 6 e e e u e e e e u t u q 9 0 8 8 t t t u p p i u w w w w y i i y t t t t t t t t q 9 9 9 9 9 9 9 ",
"q q q q t f f t g f g t 8 4 , , f f f f u e f f f t f d q 0 q q d d d f f f p p 9 w w w u i i u p d d f p f p u u t 9 u 9 y y t ",
"8 8 7 0 0 q d t d d d 0 8 3 , , e f e e e q q e 0 0 0 0 2 8 6 6 r 0 0 0 t t q u 9 9 9 w t u u u r r 0 r r r r r 8 8 8 8 8 8 8 8 ",
"= % = = 1 1 3 3 & @ > > , 3 3 3 6 6 6 1 : = % = ; = = % & @ @ % # # > > > 3 4 4 4 4 4 4 5 5 8 8 & @ & > & & & & > * * * * & & & ",
"% + % % > < 1 < o o o @ > 3 3 , = : = % % o o . % o + % X X X O o O O # > > 4 , , 4 4 = 4 4 6 1 X o o X X o o o & & & @ & @ & @ ",
"% % % ; < 1 3 3 > @ @ > 3 3 3 , : : : = % % % + + - % + @ X O O # O # # > 1 1 1 4 = 4 4 6 6 6 6 # @ O @ + + @ @ & & & & & & & o ",
"= % % % > < 1 , & @ @ @ 3 8 8 , : 4 : = * % % % % % % + O o o @ # # # > > 3 3 1 , 4 4 = 4 6 6 4 o o @ o @ o @ @ * > > & * & & & ",
"h h g h x x v x g g g g j x h h g g f p f f f f t r d r > > 3 > d t f f f f f f p f g f f e f u k k h h j j j j j j j j j j j s ",
"j h h x x I I x j h j j x h h h g g i g g p g g p t k r 3 3 3 , p p p g f i i f g g h g i f u f s l l k j j j K j j j j j s s j ",
"x x j x I I I I h h h g g h j h f g h g g h h g d t p r > > 3 3 p g g h g i u h p g i i u u f f j j l l j j j j j j j j j j j j ",
"j h j x x I x k j j j j h j h h h h h h h g h h u t u r > > > , g g h h h g h u i h h g h g j j j l j j j j j j j j j j j j j j ",
"i i i i g j i a j j j j i j j i j j j h h h g p p t d r > @ & * h h x h h i h h j j j x j ! j j l j j j j s s s i i i s j j j j ",
"i i i i g h h i j j j j j i i j j j j s h g i p d t g r & o @ @ h l h x j i i h j x x x j [ e...j z j j s i i i i i i i j j K j ",
"j h h i j h h i j j j j i i i i j j j j i h i f u d p r & o @ & h j x j j i i j j j h j j X.[ j j j j j i i i i i i i i j j j j ",
"i y y u u i i y j j j j i i i i j j j j j i g g u t d r & o & * j j j j j i i f j j j j j ..j j j j j h j i i i i y i s j j j j ",
"w q w e e e w w 9 9 9 9 e 9 e w y y i w w e w q q t d 0 1 > < 1 g f u e i u y e 9 w 9 w y i i i w 9 5 w w e w e y w w w e i i e ",
"w w q w 9 9 9 e 9 9 9 9 9 9 9 9 w w w w e w q q q d d 0 1 = > 1 f f f d e w e y 9 8 5 w e e i e 5 5 w w 9 w 9 9 w w e e e e i e ",
"e e e e e e e q e e e 9 e e e e e e w e e q q q d d d d 7 < 1 1 f f f f f f u u e 9 9 e e e f e e e e 7 e e e q w e e e i e i e ",
"8 8 6 6 8 0 8 9 7 8 8 8 7 9 9 9 6 9 6 9 8 8 0 8 r 0 r 7 1 : ; : t q e e q q q q 6 6 1 7 9 q q 7 6 4 4 6 6 q q e 5 5 5 e 7 q q e ",
"% % % & = 4 4 : % % = % = = $ = % % % % = % % * ; = = = @ o $ % = = % ; % % % = o o % % % % % % % % % % : 6 6 : % $ $ $ : % % % ",
"$ o $ $ = : : : o o . $ . . $ . . . X . . . o . o + % @ o o . $     . . . . X X + X . . o o % . % . . % : 7 4 : $ . $ $ % % $ % ",
"$ o $ % : 1 1 : . $ $ . $ $ $ $ O + O + + + + . % % % % $ $ $ . . O O . X O O X o X X O + + o o % $ $ % : 7 6 4 $ % $ % % % % % ",
"* $ $ % = 6 6 : % % $ $ $ = $ $ % % % % % % % % = * = % $ $ $ $ + + + + % % % % + + + + + + o $ % $ $ % 4 7 4 4 = $ % % % = % % ",
"p k p h U &.U E k k k k k a h h ! I ! I g p f e u u u u g h h g u d f f f f f g p t d r > @ @ > p y p p h x h h k k h h h h h g ",
"s k s l &.h.,.p.v l l l k k k h &.R =.R h i h i p y p g h k x k g g g g g a p g u t p r > @ @ > p p a s j x x l x x j l l j l h ",
"s l h l &.b.0.p.l l l l l l l h =.R ..R h g h u i i f h h x x j p p p i p p p p p t p r > @ > > i a a a j x j j j j j j j a h j ",
"s k a j ) V.) p.l l k l l l l x ! R ..R j i h i p p h g h h h h i i i g h h k h u u t r @ @ > > a a s s j j j j j j j j j j j j ",
"s s a l ) V.) p.k a s l c c M x 0.R Z.R j f j h i i i i i u i i j j j j c Y Y I p t u r > @ # > a a j j j j j x j j j j j j j j ",
"k l a l ] V.] p.a a a l x I J c ..R ! Q j u h e g h h g i i u i j j j I ) X.....u u f r > @ > > h l j x j j j j j x j j j j l j ",
"h j a k R ..) 0.i i p a x b I c ! Q ..R h u h i i h h i i u e i j j j j I ....} u t t r @ o # & g j x j j h j j j j h x j j j j ",
"a h p h Y R Y $.a i i h x I c x ! I ..I j u i f w f i e e u y i j j j j ^ X...} u t p r > @ > # h k x j j h j j j j j j j j j j ",
"i p i u u u y 9 u u i u p u p p w w w w u u f u q q q 9 9 9 w 9 f f j u u i i h e f f q 1 > > < f u i f i g i f t 0 9 w w f i e ",
"u u t t 9 9 9 9 u t u u u u u u q 0 0 e e f u u 9 9 9 9 q q q q f f u u f e e e e f d 0 < # # > q e e f e e i e 9 q 8 w e u u e ",
"t t t t t r r 9 d f u f u u d t e q q q d f e d q q q q u q f t f f i f f f e f d d d 0 2 ; * < d f f e f e f f 9 8 q q e f f f ",
"9 r t 0 0 8 0 8 t r r r r r t r 8 8 7 8 0 q q 0 8 0 0 8 8 8 8 0 q q q e t e q q 0 d q 0 < ; ; < 0 8 0 0 q 0 0 0 7 6 6 8 0 q 0 0 ",
"3 3 3 1 , > & > > , > > > * * * * $ % % ; = = = ; : = = = * % % - - % * = 4 : 4 : : 4 = % $ + % = = = * = * * = $ $ $ % ; = = = ",
"2 < 2 > @ o o o @ @ @ o o o o o . . . . o + % o * * % % $ o o o X     O + = = * $ % & % o . o + X o o X o . . o o o o o % + $ o ",
"< 2 2 < * @ @ @ % & % % & @ $ @ @ X o + + % % + = ; = % % + + o O O   + - ; ; = % $ % % % % % % + % % o o o o o $ o o + % + % + ",
"1 1 8 1 > & & > > , > > * * * * % $ $ % = = = = = = * = * $ $ % % % + % : 6 : = & = = & % % $ % % * * % * % % $ $ o O + + % + + ",
"x k k l x c x z x h a l H 0.,.U j j j j I ! R x g h g g y w i p ! U U ! ! *.U U h h s s a a j a R U =.U p t u u r r d r > O # # ",
"l k s l M J H M l l s v ,.A.b.,.j j j j I e.[ ^ j j j j i i y a *.*.*.$.$.h.h.9.z z z z z z z z p.E %.U a y p p u u d r # # # # ",
"l s l z c M M K l l l c ) V.b.p.j j j j [ Z.M.[ j s s a y i f h *.*.0.0.0.0.p.p.l l z z z z z z h.,.N.$.a y p y u u d r > # # # ",
"z z v z z z z c v l l z L { ) L j j j j I ^ ^ ^ j j j j j i j j $.&.0.R E C J H l s s s l z z z b.,.b.H a y u u t 9 t r # # # # ",
"H L ^ c z j s j z l j l c c c z j i j j s s s s j j j j j j j j &.N.N.U l j j s l z l z K ) { K p.) p.H a y i y 5 8 0 8 # @ # # ",
"9.9.X.K l s s j s l s j l l s j j j j i y y w w j j x j j j j I &.N.Z.b s i y i l l z n ) c.c.p.p.) p.J a y i y 5 4 8 3 > # > # ",
") V.V.^ l i s j l j j j j j l j j j j j i y i i j j j j j j j j R Z.Z.c h y w p l h s l Y ] 0.&.,.E 0.E a y i u 5 4 8 3 > # > # ",
") ] e.Y l h j j j j j j l j l j i h i i i y u f j j j h j h j j I ! Z.I h y y g l h k x Y ] 0.U E E 0.E a y i u 9 5 8 3 & # # # ",
"i i i i i p a p i u u u i p i i f u i u i g f h w w w w e u u e g i p p i p u y p u u u p p g p u i i f i u i u 9 p f 0 : o % - ",
"u u p p u u u u u u u u u u u u e e e e u e e d w q q q u u u u u u t u u u u u u t r u u p u r u f u f u u u u e t d 0 = o + % ",
"f f f f i g g g p d u d f f u u f f f f f f g f q q q t f e f e u f f g f f f g u t p t d g g d f g f h f f f f f f d 7 : + % + ",
"t u d t t t t t 9 9 0 9 t u t r q t 0 q q q r e 8 8 8 0 0 0 0 0 t f f t t q d t r r r r t d d d t t q e e f e e 0 q 7 7 - - + - ",
"= * > = * > = * * * * = 1 8 8 3 % = % * * * % % % % * = = = = = , 6 1 , = & & * > @ & @ > > > > * & > > 4 6 8 8 = % - % % O O O ",
"& @ & & & @ & & & o o $ 1 3 1 1 . + $ . o . o . % X . o % + @ @ , , , , & o o o @ @ @ @ # O # # + o o & : 6 6 : % o % . + - O - ",
"* * & & * * = & o o o @ < 2 7 2 % % % o % % + + + + o % % ; * % 1 1 1 < * @ @ # # # # # # # # - # @ @ & : 7 6 7 % % + + - - - O ",
"+ # @ @ + @ + @ o o X @ ; 2 2 < + + + + + . + . + . + o - % + # = < < = + o o @ @ O O O O # O # # @ @ & : 7 : : % . + . O - O O "
};
