/* XPM */
static char *_667bfbe40f546a7c9350a0e60f44a55EWDCS65pGon7iePj[] = {
/* columns rows colors chars-per-pixel */
"64 64 38 1 ",
"  c #1B1B1B",
". c gray11",
"X c #1F1E1E",
"o c #201E1E",
"O c #202020",
"+ c #222121",
"@ c #232323",
"# c #242323",
"$ c #252424",
"% c #282727",
"& c #282828",
"* c gray17",
"= c #2C2B2B",
"- c #2C2C2C",
"; c #2F2F2F",
": c #302F2F",
"> c gray19",
", c #313131",
"< c gray20",
"1 c #343333",
"2 c #353434",
"3 c #383737",
"4 c gray22",
"5 c #383939",
"6 c #3C3B3B",
"7 c #3C3C3C",
"8 c #3D3E3E",
"9 c #3F3F3F",
"0 c #403F3F",
"q c #424141",
"w c #444343",
"e c #444444",
"r c gray27",
"t c #464444",
"y c #484747",
"u c #484848",
"i c #4A4949",
"p c #4B4A4A",
/* pixels */
"########XX......*,;,;,,;X  .....................XXXXXXXXXXXXXXXX",
"########X .....X=:,;,;;;+X............... ......XXXXXXXXXXXXXXXX",
"########XX .....=,:,;,;;O......X........X ......XXXXoXooXXXXXXXX",
"####$$$$XXX O.OO=,,,,;,;OXXXXXXO.....O.XXoooXXXXX+oo++oooo+XXX+X",
"###$,2126668788553221313442222<>$++$><<<6868688688006006;;;;;;*;",
"###$2555wyrwerrr5555555377884444-$@$<444wwttwywywewwwwww,;;;;,;;",
"###$23530wwywrrr6353533577884444$@@$<544wwwwtwrwrwrrwwww,,;,,;;,",
"###$2535wwrwrwrw6535355377887442*@@@<544wrwwwywwwrwrwyww,,,;,,,,",
"###$36660000yyyy06666866rrur9777+XXX;,,,222260080008000845650www",
"###$38808668yiii88886888uiiiw774+X X*;,;,,>,6888868886888888yiii",
"###$38868868yiiiw8868888riiiw797+. X*,;,>>>,5888868886868888yiii",
"####38866880yiii06808660uiii9774+.  *;,;>>>,5858866686888668ryyy",
"###$388886685355886668884255>->;@+++;;;,>>>>,,,,,,,,,,,,,,,,1122",
"###$386888881:::56888866<>,,&+++@@$$;>,;>>>>,,>>:,,,;,,,,,,,,::,",
"###$58886085,,,,68888686,::,$$@+$$++*,;,>>>>>>>>;,,:,;;,,;,;:,,:",
"###$36666686,:::56668688,;::-+@++$$$*;,;>>>>;;;;;;;;;;;;;;;;,,,,",
"####%#$%$$$$$++$@$+@@@@@#o+oXXXXXXXX#%$%*$$%$++++++X++o+X+O@8eew",
"####ooooXX+XXoXX X..X..X  .o X..  X +###+$$++XoXX ... X ....wiii",
"####oXooXXXXXXXXX....... X........X +#####$$XXXX....X   ...Xwiii",
"####oXXXXXXXXXXX........ X ....... X+#####+$XXXXX...  XX...O8iii",
";*;*****+oXX:::,2333442433333333>;;;,,1:$##$:1,1,<2,,21,11118w0w",
";;;,,;:;+XX+1555wywyrruryywyyryw74445333*+#$38808898880888888885",
";;,;,;:,#ooo1553wwrrwrerwwwwwwrw74445552$##$38868888888886888888",
";,;,;;;;+oo+15358wwwwwrewywywwwr74445252*$$$36888487866686666685",
",;,;*$$$+XXo366631228080yyiyyiyyrrrr;%*%=;=;5886=%**,,2,1,,2,,22",
";,;;$$$$+XX+38881:,,6886yyiiiiiiiiii;+##;;;,5866%#+#;,,;:,;,,,>>",
",;,;$$##+XX+5888,:,,8888yiiiiiiiiiii:+##;;;,5686%##$;;:,,:,;>>>>",
";,;;$###XXXX36082,:,5888yiiiiiiiiuir;##$;,::6886*$$+;;:;:,;,>>>>",
",;;;$$##+XXX29851,;,,1,280wwriiy1;;:$###%%%=16558w86=%%=3353*$*$",
";,,;$###XXX+2888,,,;;,,;5868riiy=#+#########1356riiy=+#%5888*+$+",
",;,;$$$#XXX+58881:,,,;,,6868riiy=##########$1555iiiy=##%6886-$$+",
";,;;$$##+XXX2884,,;;;,;;3666wyyw=+#########$,333wyyr=+#%3685$+$$",
">>>;$+$@O...++++OOOO+++#$$$+$*$$ooo+XX+X####$*%%===*$$+$&-*$$+$$",
">>>;$$@$.... Xo.....oo+oXXoXXXXXooXXXXXX+####+######$$$$++$$$$$+",
">>>;&$$@O...... .. .XXooXXXXXXXXXXXXXXXX############$++$$$++$$$+",
">>,,$$$$O.X..Xoo.. XoXoo+X+XXX+XXXXXXX+X############$+$+@@$$++$$",
"$$$;<442,2,21111$++@,11122222222+XX+,222;=;=;=**oXXO*---=;=;;;*=",
"$$++497888990886*+$$688888887888$XXo1888,,;;;,;;XX..->>>;:;;,;,:",
"+$$$477797976888-@$$508888888887$XXo2688,,,;;:;;X...->>>:,;,;,;,",
"$$+$479797990888*$+*568858857774$XX+2886,,;,;,;;X..X->>>,;,;,;,;",
"$+$$5886wyyyyyir*+#$58862,<,<,,,+XXX2888,,>,,;,;X. .*,;,;,;,;,;,",
"$$+$5888yiiiiiiy;++*5888<>>>>,>>++XX2884,,,;;,;;o..X;;,;,;,;,;,;",
"++$$3868yiiiiiii*+#$58662>>>>>>>+XX+2887,,;,,;;;XXX.*;;,;,;,;,;,",
"$$$$3868ryiyiiiy*##$5688,>>>>>>>+XXX2888,;,;;;;;X   ;;,;,;,;,;,;",
"###$38685325iiiy=+#%66862,>>,;,;+OXO>,,,,,,;,;;;X...*;;,;,;,;,;,",
"###$5868,;,,riii;##$3886,,>>;,;;+XXX->>>;,;,;,;;O...;;,;,;,;,;,;",
"####38061,:,riiy=##%3886,,,;,;,;+XXO*>>>,;,;,;,;O...*;;,;,;,;,;,",
"####38861:,1ryiy=+##6886,,;,;,;,@XXO*>>>;,;,;,;;O..X;;,;,;,;,;,;",
"+o++$-*$$+++-***+XXX#*%*$&$-$$$+XX.X+$$$+*$-@+++O+O+++++*$$-$&&$",
"ooXoXX XXo....  ....  ..++@++XXX ...XXXX$@@@O X +@@@X.X ++$$$$$$",
"XXXXoXooX..... ....o....+$$+XXoo ...XXXX+$@$X.XX+$$@X .o@@$+$$$+",
"X+oooo+oX.XX.XX.XXXo.XX.$$$$+o+oX.. +X++$$@@OXoo$$$$XXoo$$$$$$$$",
";**;,231152277773222323124533232O..X:322253222254253223233332442",
";;,,88608888eeee0888868888858886+...2888888885888888888886888888",
",;,,58888688wrrr0886888888888866+..X1006688888888875888686068888",
";,;,58888888were0688868887786886@...2868886878888888866088688858",
"++++,,2,0yriyyyyrrrrurrrirrrurew*++@2888222,2<<<<<<,<<<,111,=+$*",
"...X,,,,riiiyiiiiiiiiiiiyiiiiiii-++$5885,,>>,,>>,>,>,>,>,:;;XX  ",
".. X*,;,wiiiiiiiiiiiiiiiiiiiiiir-+@$3686,,;,>>>>>>>>>>>>:,:;O...",
"..  ;;,,wyyyiyyiuiiiiiriririrrur*+$$2886,;,;>>>>>>>>>>>>::;;O...",
"....;;;;,1221222224,222,*###+#++XXXX2886,,,,-$&$$&$$OOOO$$*$X...",
"....*;;,,,,;,:,,>>>>,,,;X ..  X.   X2888,,;;$@$+@@$@...X$+++....",
"...O;;,;,,;,:,,,>>>>>>>;o..........X1866,,,>$$$$+$@$X..X$@@@X...",
"....*,;,;,,;,:,:>>>>>>;;+..........o1888,,;,$$+$$@$@X..X+$++X..."
};
