/* XPM */
static char *result[] = {
/* columns rows colors chars-per-pixel */
"64 64 79 1 ",
"  c #3C0606",
". c #3C0A0A",
"X c #271E1E",
"o c #2A1F1F",
"O c #351D1D",
"+ c #262424",
"@ c #2C2323",
"# c #2C2B2B",
"$ c #312727",
"% c #332A2A",
"& c #392C2C",
"* c #333333",
"= c #3C3333",
"- c #3B3B3B",
"; c #440505",
": c #4C0505",
"> c #530505",
", c #5C0404",
"< c #630202",
"1 c #6C0000",
"2 c #650808",
"3 c #740000",
"4 c #7C0000",
"5 c #7A0808",
"6 c #780F10",
"7 c #701010",
"8 c #412727",
"9 c #452E2E",
"0 c #492F2F",
"q c #453333",
"w c #4B3333",
"e c #413E3E",
"r c #4D3D3D",
"t c #513535",
"y c #543B3B",
"u c #593F3F",
"i c #454545",
"p c #4A4646",
"a c #4D4D4D",
"s c #544141",
"d c #5B4343",
"f c #514E4E",
"g c #5E4848",
"h c #515151",
"j c #614646",
"k c #644949",
"l c #694F4F",
"z c #675050",
"x c #6C5252",
"c c #840000",
"v c #8B0001",
"b c #850F0F",
"n c #8F0A0A",
"m c #940101",
"M c #9B0101",
"N c #940808",
"B c #9E0909",
"V c #861111",
"C c #8B1111",
"Z c #A30303",
"A c #AB0202",
"S c #A20807",
"D c #A50909",
"F c #AA0909",
"G c #B40202",
"H c #BA0404",
"J c #B40909",
"K c #BB0909",
"L c #AD1010",
"P c #B61515",
"I c #C10000",
"U c #CB0000",
"Y c #C20A0A",
"T c #CB0909",
"R c #D10000",
"E c #DC0101",
"W c #D10A0A",
"Q c #C31313",
"! c #E20101",
/* pixels */
"tjuuuuujduuypahstyuuuuuukkkkkjduuudypiakkkkkkkuuuyww0yukkuuuyy-*",
"WWYYYKKYKKKCrpkQTKYKKKKKYKYKYKKKYKJCredQWWWTTTTKTKKKKKKJJJFFFCq#",
"!UGGIMAHZGZ2&ikWIMAMGMGmAZGAAmAmGHZ3&iyKGHGGGGGmGmGGHMAZmGZGZ5&#",
"UAvMmMMvmm3,&ikYGmmMv4MMcmAmcmMcMM4>&idKAAc4MvcvMcmAZvMvcM3M4,$#",
"UmmMcmMmcm<;%ikJZAMmm4Mvm4M4ccm4vc1>$iuJcm3vm3m4mvMvM4MmcM4M3:$#",
"IMvmvcM4cm<;%igJGmMvvmM4c4Mc4vcc4m1:#=yDcMcmv3m34MMcmvMMcm3m4:##",
"GvMm4mm3v4,;#isFGmm4m4m4m3vc34m3vc1>%*yDmm3cm4c34cmcm3mccmcm3;##",
"Gm44<13,13<;#-dNm31,43331,34141,31<;#-sS41<13,3,1<4,1,4<,3433;$#",
"52,,;;;;;;; $-p72,,>>>,,>>>:;;; ;;;.#-r6<,,,,,,,,>>>>:,>>>>;;.##",
"w&$&%%#$$XX+#-pr&&%%&ooXo@%$oXX+%%%#*iaq&&&&&&=&&&&@ooo$$&$&&%##",
"ww00yyyyq99qqyriipyyyt090uyyt99tyyyyydwydgdglzlkgdyr-=euwuyyyuw9",
"KJJADDDFDASADSbradQTKYKKJKJFJJJJFDDFFFFFFFDFFFFJFFDVwidQTKYKKKKS",
"mmAMvZvmmZcAMm>=pjTMAGmAcmAmMGMZmvmMmMmZmAcGmMGGAGM>=iyTImAMAMAM",
"MmMccv3mc34MM3;%iuKZvMvMmvM4mc3cMcmcm4MMc4mmmcvZcm3:=pdJAvMvcMm3",
"MMmv3m4vvv3Mc1;#-yJvMmmvc3cc4mc3Mc43ccvm14cMcm4Mm41;%-uFmMZMcMc<",
"vvMv4cc4Mm3M31;$-yKcmMvm34m13v3cMcc4m3mc1v3m4c4mcm1;#=yJZvMcMmc4",
"M4m3c4v3m3cMm1;#idKS3mcmc3c<441mv414m1c14M3cm3cm4m3;+=yBvMm1mcc<",
"M1<,13c3c1<c3<;%igDM34<3v34<33<3c34143441c134,3v341 +-dBm43,1c1,",
">:;:::>:::::;;.=pdC2,<,,<,2,,,,,,>,>,>,>>>>>>>>,>>;.+ewb2:>;;,;;",
"%%@$&%o@o%%$oo#-ierq=&$&$$&&=qq=%&%@oooo$&&@ooo$&%%%-par&%&%%&$o",
"jt00yutuwyr099wyygyyywwwqwqeppudwdyw0000wyyywqqwyyydydydwqrsyri*",
"WTYKJKKKJADASSADFFFFFASDFSbrakQWKYKKJJHKKKFFSADDDDDDFFFFDDADDVw-",
"!AAGmGmAmAmAMAGMZMZmAAcAAc>=pkWHmHAAmAAMAMAc4MvcvZvmZMmMvmM4v>%*",
"EAmZmM44cMMmmmZc4mcMv3cmvm;%plYGMZ4m3c4mv4m3cM3v4mcMvm4MmcM33;#+",
"GcMM4c1v3McmvmM44m4vMc1cm3;%axYGvMcm3m4vMcmcmv3m44mm4mvMMcm11;@#",
"GAvm<v<4cMc44Mc43cm3Mc3v4<;%alKmmcvv3vv4m3c1cm4v3ccMvm4Mccm41;##",
"Gc3v<44v3v1v3mc1cmc1v34c4v;%ijYGcm4mcmv4v3v131<c<v1v1mmc1,4c1;#*",
"HM1311<1,1341c31431<3c3c31;#-gJZ3v34113131433<c11v,13<v1c,c31;##",
"Bv2,,<,,,,,,,2,,>::::>:::;.%-dC2,<,,,,,,,,<,<>,>>,:,,>,>>;,1>.##",
"sq&&&&$&$&%%&&&&&%&===&$$##%ipr&&&&&&&&@ooo@&==q&oX@$$&%&%%&&###",
"gggdyyqyw9=ehzzkgduyyrwq0w9qrdsyyswdydr---qwygdyy09wyyydwsyyyuw9",
"FFFFAFAFSbredPKKKJKKJADADDADSFFDFFSFDFVragLTKKKKYJJKJDFDDFFDFDDN",
"AAAAHAGGM>=itKAcMvZZcMmZMvMv4ZM4MMcMvm>qpkKAvZcAMcMvvvMcMmMvMcMv",
"cvMmZvMm3;%idJ4mvcMvmm4Mvc4ccMv3m4vM4v:=hlKS3m4Mv3mmMcvcmcmcmv4c",
"4MMvMcmm1;%iyJ4mMcmmcmcmmv3v<vvvv4vMcm:-hxKZcm4MvmmMMvmcvvMmcv43",
"ccMmZmcv1;=idKm4mcMc1vcvcccm1vv3vv4vN4;=hxKmMMcm4MMccmvmvmMvc4cc",
"ccMcmvvm1;=puF4mc<mm3vvMvm44,3c1mmcmcv:=pgJSvMmcmmvcmvm4vvMcvm44",
"34v33c33<;=isn3mv1m43v4v3v<41cc1c3vv31;%pgFM1v4mmvmcmcm4v4v4mm1,",
";::::>::;.%isV<<<,<,<2,,>,>>,,,>,>,,>;.#isC2,2<2222<<,2,,,,>,>:;",
"%&$%$#%%%##iar&@@o@&%=q=&@ooo#%%&&$&$#%-ppy&$&&=qpq&%@o$&&%&%&$o",
"uuwtw0ytq0qwsyw99tyyyyddytqq0yriipwywtttujduwsyglzgyytwuydysws-*",
"WKJKKJKKADASFDDASDDFDFDFDFASSF5rpyQTKJKJKKKJFSFFDFFDFDDFDDDDDCr+",
"RAmmM4AZvMMvM4mM4MvMmM4M4MMvcm>=pjTGZ4M4m3McM4Mv3vvcMvvMvmcvm>#*",
"UZ3Mc3mvvcM4c1mv3m1cvv1mcmvm4c:%iuKmM3414141v4m3v4v4v4mvcmm34:##",
"Um3m4443m4mcccm4vv41cv1v1c4vc3;$-yKmm31cm41vc1vv3v44m4Mcm4v3v;#@",
"UZvmc3mccvMcm1vv3v14m3vm4Mmm43;#*uKZ4vc3v1v4v44<43v4vvvmc4mcm:#+",
"UZ3vm3v4m4m3m4m31m144m4c3v4c3v:o-dKM33v34<m3v1c1v1c4M4cmcvv13;#%",
"HM3v343cv4mcc4mc143,1v<v3c4v3v;X-gFcv141v<4v4<c341v4v3vcc3v1c;#+",
"N2<<,,,<,,>>>>>:::::::::::>>:: $idC2<,,,<,,,,>,>>:>:>:>:::>::.#%",
"y&&&&&&&&&&=-=$#@@@$%$ooXo%$@@$*ier&%&&&&$@@&===&@%%$$XXX$#$%##+",
"wuwuydyyyygzzgyuqpiayt090wydytwyydruyyyyryyyydaapuyytw8OO&0yydyq",
"KJKKDFSFDFDFDFFDVradQTKKKJKJKJDSDDDFFSFSDSDDBVrijPYJKKADZZDASFBN",
"M4ZMcvcmvGvm4Mcm>&idYAAZZ4m1MmMcm4MMM4m4m3M41:=ikYZcvM4mcMcMcm43",
"44mvv4cc3m141c34;%iyJvmcm33,4vvvv3cm34c441m3c:=ikJ4m1mcm4vm4vc<4",
"4<cv3v34mc<m43v3;%iyJv43m343m3v1Mv4m3v3414c11;%ijK4v34mMc4c313cc",
"v1v33v3mcm<433m1;$itKm13m3v<v4v1m3c41m3m4<3c<;%ijKM31mv44v4v33m1",
"Mcv3v3cm3m31cmc4;%iyF1mm4vc3c<3<v3m33c1c3<43<;$iuJcmcm4mc411v4v,",
"M4c3vv3v34<v3m3c;%iuJ3v4m3434<c1c<v43vc3v1v13;#-uJ3v131m4m3<3v<:",
"v<c<14133v<v1341;%igFv,1v1c<31v1c11v14v1434<3;#-uF1<,c<v3v3c1v1,",
">:>::::::>:>:::;.#idC>;;;;::::>:>::>::::::::; @edV: :>:::>:>:>::",
"%%&%##%%%%#%%%%%%*php==*%%%%%%%#%#%%%#oo+Xo$@++-pp&#%%%%@X@@@$$X",
"a-p---iipipaa-iiiihhhhhiipapiphpi-iiie------i--ihpi-aiiii---ii-#",
"hahaaaahhahhhahafhhhhhhahahhhahaaaahhapaaaaapaaahffahhaaaaaaaaai",
"----------------------------------------------------------------"
};
