/* XPM */
static char *result[] = {
/* columns rows colors chars-per-pixel */
"44 149 245 2 ",
"   c #020202",
".  c #0B0C0C",
"X  c #090707",
"o  c #1C0C01",
"O  c #150904",
"+  c #191209",
"@  c #060D15",
"#  c #07111A",
"$  c #131313",
"%  c #1B1B1B",
"&  c #181716",
"*  c #220E01",
"=  c #210F0B",
"-  c #251301",
";  c #2A1501",
":  c #281B09",
">  c #331C01",
",  c #371F04",
"<  c #2A1D13",
"1  c #241A13",
"2  c #2F210D",
"3  c #3A2101",
"4  c #32240D",
"5  c #3B270E",
"6  c #2B2118",
"7  c #342413",
"8  c #3B2B14",
"9  c #3B2A1B",
"0  c #372518",
"q  c #000C24",
"w  c #051527",
"e  c #181B26",
"r  c #031A35",
"t  c #151E3A",
"y  c #2C1E28",
"u  c #08233B",
"i  c #182538",
"p  c #1C222A",
"a  c #232223",
"s  c #2B2B2C",
"d  c #282827",
"f  c #362B25",
"g  c #393329",
"h  c #2B2C35",
"j  c #343434",
"k  c #3B3C3C",
"l  c #393738",
"z  c #2E3330",
"x  c #1F201F",
"c  c #422E1B",
"v  c #452C15",
"b  c #463215",
"n  c #4B341B",
"m  c #4A3419",
"M  c #543B1D",
"N  c #5B3A1B",
"B  c #47290D",
"V  c #4C3523",
"C  c #473729",
"Z  c #533B23",
"A  c #573C28",
"S  c #463C38",
"D  c #49352C",
"F  c #441F36",
"G  c #3D403D",
"H  c #5D4227",
"J  c #4B4539",
"K  c #584938",
"L  c #524935",
"P  c #66482B",
"I  c #694A35",
"U  c #724E34",
"Y  c #7B5639",
"T  c #795539",
"R  c #6D5135",
"E  c #031A43",
"W  c #092846",
"Q  c #143355",
"!  c #1A375A",
"~  c #132B4F",
"^  c #3B3D44",
"/  c #253B5A",
"(  c #2D364E",
")  c #1C3A65",
"_  c #183271",
"`  c #253F63",
"'  c #233A78",
"]  c #423B43",
"[  c #553149",
"{  c #743C5F",
"}  c #3B434D",
"|  c #2A456B",
" . c #274266",
".. c #2E4A72",
"X. c #2A4975",
"o. c #314C75",
"O. c #314F79",
"+. c #375073",
"@. c #434444",
"#. c #4C4B4C",
"$. c #464749",
"%. c #554B46",
"&. c #5B5448",
"*. c #494B54",
"=. c #534B53",
"-. c #545254",
";. c #5C5A5B",
":. c #585659",
">. c #4D5152",
",. c #675847",
"<. c #785947",
"1. c #645C57",
"2. c #694F48",
"3. c #6C6456",
"4. c #766A57",
"5. c #776B51",
"6. c #595964",
"7. c #51546A",
"8. c #645E67",
"9. c #5E616D",
"0. c #646264",
"q. c #6B6569",
"w. c #6D6A6C",
"e. c #686668",
"r. c #756C69",
"t. c #6A6B77",
"y. c #736E73",
"u. c #6C7376",
"i. c #747173",
"p. c #79777A",
"a. c #7A746C",
"s. c #815B3D",
"d. c #815D4D",
"f. c #876857",
"g. c #887559",
"h. c #8C6853",
"j. c #877A67",
"k. c #987863",
"l. c #837D7C",
"z. c #91517D",
"x. c #8D8169",
"c. c #978766",
"v. c #988976",
"b. c #9E937C",
"n. c #908775",
"m. c #A68C69",
"M. c #A99777",
"N. c #B79C79",
"B. c #AD906F",
"V. c #B7A47B",
"C. c #9D825F",
"Z. c #C2A27D",
"A. c #213C86",
"S. c #1E3C91",
"D. c #2A4799",
"F. c #2B4388",
"G. c #2949A6",
"H. c #787A88",
"J. c #6E6F81",
"K. c #8F5A89",
"L. c #837E81",
"P. c #A8659C",
"I. c #7C8387",
"U. c #848384",
"Y. c #8D8A8C",
"T. c #878487",
"R. c #948D8B",
"E. c #878B95",
"W. c #959293",
"Q. c #9B9596",
"!. c #9D9A9B",
"~. c #96989B",
"^. c #8F9194",
"/. c #A89B84",
"(. c #A29D9D",
"). c #B89C8F",
"_. c #B7A78A",
"`. c #B9AA95",
"'. c #B5A992",
"]. c #999CA6",
"[. c #8E8EA0",
"{. c #9BA4A8",
"}. c #9DACB3",
"|. c #A4A2A3",
" X c #AAA5A5",
".X c #A9A8AA",
"XX c #B2ACAD",
"oX c #AAB3B9",
"OX c #BAB5B5",
"+X c #BBBABB",
"@X c #B5B5B8",
"#X c #B0B0AE",
"$X c #A49EA2",
"%X c #C6A782",
"&X c #C8B899",
"*X c #D1B796",
"=X c #CABCA3",
"-X c #C2BDBD",
";X c #D0B6A6",
":X c #D1C19E",
">X c #DCCCAD",
",X c #D4C5A7",
"<X c #DECBB4",
"1X c #D3C8AF",
"2X c #E5C9BA",
"3X c #E7D6B7",
"4X c #E4D0AE",
"5X c #B8BCC3",
"6X c #ADBAC1",
"7X c #C5BFC0",
"8X c #BBC3C8",
"9X c #BFCAD0",
"0X c #C5C2C3",
"qX c #CAC4C4",
"wX c #CCCBCC",
"eX c #C4C7CB",
"rX c #D2CCCC",
"tX c #CACCD4",
"yX c #CDD4D8",
"uX c #D4D3D4",
"iX c #DBD5D5",
"pX c #DDDADA",
"aX c #D5D7DD",
"sX c #D4CFD0",
"dX c #E4DEDE",
"fX c #EDD5C0",
"gX c #F8E9CA",
"hX c #FDF7D7",
"jX c #F0E7CB",
"kX c #DBDCE5",
"lX c #DDE2E6",
"zX c #E5E1E2",
"xX c #EAE4E4",
"cX c #E2E3EB",
"vX c #ECEAEB",
"bX c #EAE9E9",
"nX c #F2ECEC",
"mX c #EAEBF3",
"MX c #E7E7F2",
"NX c #EEF1F4",
"BX c #FDFEFF",
"VX c #F5F4F6",
"CX c #FFFCEA",
"ZX c #E3DFE1",
"AX c None",
/* pixels */
"AXAXAXAXAXAXAXAXAXAXAXAXAXAXAXAXAXAXAXAXAXAXAXAXAXAXAXAXAXo AXAXAXAXAXAXAXAXAXAXAXAXAXAX",
"AXAXAXAXAXAXAXAXAXAXAXAXAXAXAXAXAXAXAXAXAXAXAXAXAXAXAXAXAX; ; AXAXAXO AXAXAXAXAXAXAXAXAX",
"AXAXAXAXAXAXAXAXAXAXAXAXAXAXAXAXAXAXAXAXAXAXAXAXAXAXAXAXAX- 3 3 AX; ; - AXAXAXAXAXAXAXAX",
"AXAXAXAXAXAXAXAXAXAXAXAXAXAXAXAXAXAXAXAXAXAXAXAXAXAX; > > 3 3 3 , 3 3 , - AXAXAXAXAXAXAX",
"AXAXAXAXAXAXAXAXAXAXAXAXAXAXAXAXAXAXAXAXAXAXAXAXAXo - 3 3 3 3 3 3 3 3 3 3 o AXAXAXAXAXAX",
"AXAXAXAXAXAXAXAXAXAXAXAXAXAXAXAXAXAXAXAXAXAXAXAX- o - 3 3 3 3 3 , 3 3 3 3 , - AXAXAXAXAX",
"AXAXAXAXAXAXAXAXAXAXAXAXAXAXAXAXAXAXAXAXAXAXo * o - > 3 3 3 3 3 3 , , 3 3 B , - AXAXAXAX",
"AXAXAXAXAXAXAXAXAXAXAXAXAXAXAXAXAXAXAXAXAXo - * * > 3 > ; ; 3 3 3 3 3 3 , , B , O AXAXAX",
"AXAXAXAXAXAXAXAXAXAXAXAXAXAXAXAXAXAXAXAX* * * * ; 3 , > * ; , , 3 , > > , 3 , 3 3 O AXAX",
"AXAXAXAXAXAXAXAXAXAXAXAXAXAXAXAXAXAXAXAXAX* * * > , > > * - > B , ; O * , 3 3 3 3 - AXAX",
"AXAXAXAXAXAXAXAXAXAXAXAXAXAXAXAXAXAXAXAXAX* * * - * - > * * > , - R <.+ o ; , 3 : - : AX",
"AXAXAXAXAXAXAXAXAXAXAXAXAXAXAXAXAXAXAXAXo - * * * * > , * O > ; 9 ;X4XI O O > 3 - AX- : ",
"AXAXAXAXAXAXAXAXAXAXAXAXAXAXAXAXAXAXAXAX* * * * * * 3 , * O o o g.hXgX%XA X O > ; AXAXAX",
"AXAXAXAXAXAXAXAXAXAXAXAXAXAXAXAXAXAXAXAX- - * * * ; ; ; A c   < &XhX1X_.).I o * - AXAXAX",
"AXAXAXAXAXAXAXAXAXAXAXAXAXAXAXAXAXAXAXAXAXAX* * * ; O < /.B.o V jXhX).1.v.m.g O - AXAXAX",
"AXAXAXAXAXAXAXAXAXAXAXAXAXAXAXAXAXAXAXAXAXAXo * * * O < &XgXj.k.gXgX,Xn.b.v.6 AXO + AXAX",
"AXAXAXAXAXAXAXAXAXAXAXAXAXAXAXAXAXAXAXAXAXAXo * o - o O 5.fXjXjXgXgXhXgXjX>X%.AXAXAXAXAX",
"AXAXAXAXAXAXAXAXAXAXAXAXAXAXAXAXAXAXAXAXAXAXAXo o * o O = /.hXhXgXgXgXhXgXhX<X,.AXAXAXAX",
"AXAXAXAXAXAXAXAXAXAXAXAXAXAXAXAXAXAXAXAXAXAXAXAXo o O O O b.gX>X;XfXhXhXgX:X4X&XAXAXAXAX",
"AXAXAXAXAXAXAXAXAXAXAXAXAXAXAXAXAXAXAXAXAXAXAXAXO AXO   = `.3X).`.gX<X=XgXx.g 3.AXAXAXAX",
"AXAXAXAXAXAXAXAXAXAXAXAXAXAXAXAXAXAXAXAXAXAXAXAXAXAX6 ; < ,X3X`.3XhX,X&X<X,.AXAXAXAXAXAX",
"AXAXAXAXAXAXAXAXAXAXAXAXAXAXAXAXAXAXAXAXAXAXAXAXAXAXg k.f.4XhXhXhXhXgXhX=XAXAXAXAXAXAXAX",
"AXAXAXAXAXAXAXAXAXAXAXAXAXAXAXAXAXAXAXAXAXAXAXAXAXAXD *X3XgXhX=Xm.;XhXhXa.AXAXAXAXAXAXAX",
"AXAXAXAXAXAXAXAXAXAXAXAXAXAXAXAXAXAXAXAXAXAXAXAX1 c <.*XhXhXhXv.% D B.B.d AXAXAXAXAXAXAX",
"AXAXAXAXAXAXAXAXAXAXAXAXAXAXAXAXAXAXAXAXAXAXO F A I d.B.gXhXgXj.AXAXAXAXAXAXAXAXAXAXAXAX",
"AXAXAXAXAXAXAXAXAXAXAXAXAXAXAXAXAXAXAXAXAXAXf A U <.d.h.).CXhXr.< AXAXAXAXAXAXAXAXAXAXAX",
"AXAXAXAXAXAXAXAXAXAXAXAXAXAXAXAXAXAXAXAXAX=.L.%.B d.d.d.f.`.jXv.A f AXAXAXAXAXAXAXAXAXAX",
"AXAXAXAXAXAXAXAXAXAXAXAXAXAXAXAXAXAXAX$ =.(.ZX XF v d.k.k.h.c.j.d.A AXAXAXAXAXAXAXAXAXAX",
"AXAXAXAXAXAXAXAXAXAXAXAXAXAXAXAXAXAXAX#.p.$XZXxX-X1.0 U h.h.d.d.2.d AXAXAXAXAXAXAXAXAXAX",
"AXAXAXAXAXAXAXAXAXAXAXAXAXAXAXAXAXAXS L.y.Q.dXnXxXqXy.%.4.j.f.k.n.:.AXAXAXAXAXAXAXAXAXAX",
"AXAXAXAXAXAXAXAXAXAXAXAXAXAXAXAXAXa w.y.q.OXxXdXxXnXdX-XOX7XwXOX!.p.AXAXAXAXAXAXAXAXAXAX",
"AXAXAXAXAXAXAXAXAXAXAXAXAXAXAXAXAX=.8.-.R.dXxXdXdXrXxXxXxXxXnX7X Xl.AXAXAXAXAXAXAXAXAXAX",
"AXAXAXAXAXAXAXAXAXAXAXAXAXAXAXAXd #.=.l.rXxXdXxXdX XOXdXzXdXxXsX$Xr.V AXAXAXAXAXAXAXAXAX",
"AXAXAXAXAXAXAXAXAXAXAXAXAXAXAXAXl =.8.XXxXzXdXxXdX(.R.dXxXdXnXdXy.2.K AXAXAXAXAXAXAXAXAX",
"AXAXAXAXAXAXAXAXAXAXAXAXAXAXAXAX@.1.y.qXxXxXdXxXzXOXU.iXxXnXVX!.A k.r.AXAXAXAXAXAXAXAXAX",
"AXAXAXAXAXAXAXAXAXAXAXAXAXAXAXa #.-.p.rXxXdXdXdXxX-Xl.rXVXnXY.f <.;X).S AXAXAXAXAXAXAXAX",
"AXAXAXAXAXAXAXAXAXAXAXAXAXAXAXl #.=.l.sXxXdXdXdXxXOXr.zXBXL.y I ).fX;X[ AXAXAXAXAXAXAXAX",
"AXAXAXAXAXAXAXAXAXAXAXAXAXAXAX;.#.-.T.dXxXdXdXxXxXXXl.-Xw.1 2.).2X-Xj.AXAXAXAXAXAXAXAXAX",
"AXAXAXAXAXAXAXAXAXAXAXAXAXAXAXw.[ :.Y.iXxXdXdXdXnX-Xl a 6 4.;X;XfXk.% AXAXAXAXAXAXAXAXAX",
"AXAXAXAXAXAXAXAXAXAXAXAXAXAXAXi.=.=.W.dXxXdXdXxXnXOXa D k.;X;XfXR.4.q.AXAXAXAXAXAXAXAXAX",
"AXAXAXAXAXAXAXAXAXAXAXAXAXAX=.1.] =.Q.dXxXdXdXZXnX#Xs <.;XfX;Xf.e.Q. XAXAXAXAXAXAXAXAXAX",
"AXAXAXAXAXAXAXAXAXAXAXAXAXAX1 9 f ;.Q.dXxXdXdXdXnX+Xf <.2X;X%.y.OX-X XAXAXAXAXAXAXAXAXAX",
"AXAXAXAXAXAXAXAXAXAXAXAX: : 0 H D :.R.dXxXdXdXZXnX-Xg <.k.=.L.dXOXXXT.AXAXAXAXAXAXAXAXAX",
"AXAXAXAXAXAXAXAXAXAXAX8 7 8 C I S ;.L.sXxXdXdXdXvX0X[ 6 S .XVXnXOXXX6.AXAXAXAXAXAXAXAXAX",
"AXAXAXAXAXAXAXAXAXAX4 4 M R H I %.q.l.qXxXdXdXdXnX7X] 8.rXdXQ.R.W.-.& AXAXAXAXAXAXAXAXAX",
"AXAXAXAXAXAXAXAXAXAX4 M T Y I I %.w.w.-XxXzXdXdXxXsXw.R.nXpXl.:.p.r.s AXAXAXAXAXAXAXAXAX",
"AXAXAXAXAXAXAXAXAX4 b U U U P g S w.w. XxXxXdXdXxXiXq.L.dXxXiXrXOX-X0.AXAXAXAXAXAXAXAXAX",
"AXAXAXAXAXAXAXAX4 4 H H V U I S ] 8.q.Q.dXxXdXdXxXiXw.w.iXxXxXpX1XrXw.AXAXAXAXAXAXAXAXAX",
"AXAXAXAXAXAXAXAX2 5 H 8 H Y P g s ;.w.L.sXvXdXdXnXiXy.q.7XxXnXrX~.7XW.AXAXAXAXAXAXAXAXAX",
"AXAXAXAXAXAXAXAX2 M M 7 R s.U g a -.w.y.7XxXzXdXxXiXL.q.XXxXnXsX^.7XQ.AXAXAXAXAXAXAXAXAX",
"AXAXAXAXAXAXAXAX2 H 0 8 R Y T c d ;.y.q. XzXxXdXxXiXQ.l.Q.dXnXdXY.+X XAXAXAXAXAXAXAXAXAX",
"AXAXAXAXAXAXAXAX5 H 6 V Y Y Y H f ;.y.q.R.dXxXdXxXsXXX$XL.iXnXdXL. X(.AXAXAXAXAXAXAXAXAX",
"AXAXAXAXAXAXAX+ b H 2 c H R s.H f =.y.y.p.rXxXzXxXqXXXqXR.-XnXxXR. XW.AXAXAXAXAXAXAXAXAX",
"AXAXAXAXAXAXAX+ n n 0 b 5 H Y R 6 [ y.L.y. XxXzXdXrXXXiXqXqXxXxX(. XW.AXAXAXAXAXAXAXAXAX",
"AXAXAXAXAXAXAX: M m 9 m 8 H Y T 0 ^ q.R.R.R.iXxXxXiX-XiXxXdXdXnX|. XQ.AXAXAXAXAXAXAXAXAX",
"AXAXAXAXAXAXAX2 H n Z M 4 P Y T 0 z q.L.-XL.-XxXxXsX XiXxXdXdXnX X!. Xs AXAXAXAXAXAXAXAX",
"AXAXAXAXAXAX+ 5 H n P H 4 H Y T n d 1.L.rX(.Q.zXnXrXQ.qXxXdXdXnXOX$X-Xi.AXAXAXAXAXAXAXAX",
"AXAXAXAXAXAX: b M V P M 4 b H T V d :.L.sXqXL.rXnXdXL.W.xXxXdXxXrX-XqXT.AXAXAXAXAXAXAXAX",
"AXAXAXAXAXAX2 b M V P n 4 5 m U A y 6.l.rXxX$XXXxXxXl.y.iXxXdXnX-X!.-Xp.AXAXAXAXAXAXAXAX",
"AXAXAXAXAXAX2 m 9 g H b 8 8 m U D j :.y.7XnXrX XdXxX(.w.qXxXdXnX-XR.|.3.AXAXAXAXAXAXAXAX",
"AXAXAXAXAX+ 4 M 8 V P 8 8 8 m U D ] 1.y.7XxXxXsXdXnX-X8.XXxXdXnXwX!.W.:.AXAXAXAXAXAXAXAX",
"AXAXAXAXAX+ 5 M 2 C P 8 8 7 b U Z s #.i.qXxXxXxXzXnXdXq.a.dXxXnX-XW.(.8.AXAXAXAXAXAXAXAX",
"AXAXAXAX+ : b 5 + V P 2 2 1 c U K l l 8.XXxXxXdXdXiX-X=.l  XxXVX-Xp..Xi.AXAXAXAXAXAXAXAX",
"AXAXAXAX+ 8 m 2 1 I P : + + Z U I :.s =.L.OX7X Xl.8.S x l W.dXVX1Xy. X!.AXAXAXAXAXAXAXAX",
"AXAXAXAX2 m b & V T M : O : P H S w.h ] w.q.8.] $ e r t =.L.rXVXiXl.R. XAXAXAXAXAXAXAXAX",
"AXAXAX+ 4 N 8 0 R T n :   9 U 0 j w.$.y ] S y @ E A.G.' =.l.7XVXdXY.W.T.AXAXAXAXAXAXAXAX",
"AXAXAX+ 8 P 0 9 T U n 2 + R R + % 0.:.] s @ q _ G.G.D.A.^ r.XXnXnXQ.!.|.AXAXAXAXAXAXAXAX",
"AXAXAX2 b U 0 8 T U b + c Y V + y 2.=.-.^ w ~ S.S.A.S.A./ 6.L.-XzXXX|.7XAXAXAXAXAXAXAXAX",
"AXAXAX0 b H 2 8 U P 2 O H Z . AX{ P.K.[ y $ E ' D.D.D.S.~ h ;.w.$XW.#X#XAXAXAXAXAXAXAXAX",
"AXAXAX9 b M 6 4 m b + b H + AXAX[ K.P.K.{ y w _ D.G.A.A.( L 2.j #.=.l.l.AXAXAXAXAXAXAXAX",
"AXAXAXAX2 M Z 2 5 8 V T 9 . AXAXAXd [ [ { [ w E _ ' *.2.k.B.f.F [ [ S [ f AXAXAXAXAXAXAX",
"AXAXAXAX2 b I H H P s.R 1 AXAXAXAXs z j j ] h h h 2.k.N.%X%Xk.[ { K.[ [ [ AXAXAXAXAXAXAX",
"AXAXAXAX2 4 P s.Y Y s.V 9 AXAXAXAX^ $.#.} G L m N B.Z.Z.N.Z.g.K 9.[ AXAXAXAXAXAXAXAXAXAX",
"AXAXAXAXAX: M T Y Y I 0 AXAXAXAXAXj @.@.J } N B P B.Z.Z.N.Z.C.j.E.h AXAXAXAXAXAXAXAXAXAX",
"AXAXAXAXAX+ 4 P Y T V 9 AXAXAXAXAXk #.$.$.J 9 B H m.V.V.N.Z.Z.g.E.u.AXAXAXAXAXAXAXAXAXAX",
"AXAXAXAXAXAX+ n I c 6 AXAXAXAXAX. k $.#.>.} l 8 N m.%XZ.Z.k.<.3.oX|.a AXAXAXAXAXAXAXAXAX",
"AXAXAXAXAXAXAX0 H AXAXAXAXAXAXAX. G J #.:.#.G 8 B h.V.C.K 6   J wXwX#.AXAXAXAXAXAXAXAXAX",
"AXAXAXAXAXAXAXAXAXAXAXAXAXAXAXAX. z $.G 0.u.$.f 5 9 C &   d u.>.6.wXY.$ AXAXAXAXAXAXAXAX",
"AXAXAXAXAXAXAXAXAXAXAXAXAXAXAXAX$ z } G 0.@Xu.z f $   . . ^ oXu.$ ^.+Xs AXAXAXAXAXAXAXAX",
"AXAXAXAXAXAXAXAXAXAXAXAXAXAXAXAXAXd @.G >.@X+Xa.>.a $ a % x e.u.$ :.+X#.AXAXAXAXAXAXAXAX",
"AXAXAXAXAXAXAXAXAXAXAXAXAXAXAXAXAX$ G @.G U.uXwX|.0.x % x % a j $ @.@X0.AXAXAXAXAXAXAXAX",
"AXAXAXAXAXAXAXAXAXAXAXAXAXAXAXAXAXx z @.G :.@XyXyX@Xz . % x & d x d .X~.AXAXAXAXAXAXAXAX",
"AXAXAXAXAXAXAXAXAXAXAXAXAXAXAXAXAXAXx G } G U.wXaX+XG . $ & & a a x ~.0X$.AXAXAXAXAXAXAX",
"AXAXAXAXAXAXAXAXAXAXAXAXAXAXAXAXAXAX. x J } #.|.pX8X@.+ $ & & d d a ~.wXu.AXAXAXAXAXAXAX",
"AXAXAXAXAXAXAXAXAXAXAXAXAXAXAXAXAXAXJ 6 p G G ;.8XeXG . $ & & l z d {.uXp.AXAXAXAXAXAXAX",
"AXAXAXAXAXAXAXAXAXAXAXAXAXAXAXAXAXAXx.5.g & d G a.+X:.X . . & x % >.@XuXW.AXAXAXAXAXAXAX",
"AXAXAXAXAXAXAXAXAXAXAXAXAXAXAXAXAXAXAX5.M.,.6 & s I.-X0.. . +   l #XeXyX!.AXAXAXAXAXAXAX",
"AXAXAXAXAXAXAXAXAXAXAXAXAXAXAXAXAXAXAX+ g.V.m.L x >.8X+X} d z % J {.wXaX{.AXAXAXAXAXAXAX",
"AXAXAXAXAXAXAXAXAXAXAXAXAXAXAXAXAXAXAXAXJ c.V.V.c.5.4.W.0.d :.k x 0.@XzX{.AXAXAXAXAXAXAX",
"AXAXAXAXAXAXAXAXAXAXAXAXAXAXAXAXAXAXAXAXAX,.M.V.V.V.c.M.x.d G >.& d U.yXU.$ AXAXAXAXAXAX",
"AXAXAXAXAXAXAXAXAXAXAXAXAXAXAXAXAXAXAXAXAX,.M.x.c.V.V.V.V.,.d ;.p . 3.R.%.g f AXAXAXAXAX",
"AXAXAXAXAXAXAXAXAXAXAXAXAXAXAXAXAXAXAXAXAXx.V.,.g 5._._.V.b.z z d G _.,X'.,Xn.AXAXAXAXAX",
"AXAXAXAXAXAXAXAXAXAXAXAXAXAXAXAXAXAXAXAXAX5.V._.5.g L g.c.M.J d ;.#./.3X4XjXj.AXAXAXAXAX",
"AXAXAXAXAXAXAXAXAXAXAXAXAXAXAXAXAXAXAXAXAXJ ,.V.:XM.&.L 5.c.5.l *.J b.1X1X3X3.AXAXAXAXAX",
"AXAXAXAXAXAXAXAXAXAXAXAXAXAXAXAXAXAXAXAXAXAXL L M.>X1Xb.c.:X,X&.  J x.x./.,X4.AXAXAXAXAX",
"AXAXAXAXAXAXAXAXAXAXAXAXAXAXAXAXAXAXAXAXAXAXAXX z x.>X3X_.V.4Xv.X &._.x.L b./.AXAXAXAXAX",
"AXAXAXAXAXAXAXAXAXAXAXAXAXAXAXAXAXAXAXAXAXAXAXw e d 4.*X=XM.>X&Xz ,.4X&XM.:X&XJ AXAXAXAX",
"AXAXAXAXAXAXAXAXAXAXAXAXAXAXAXAXAXAXAXAXAXAXAXw i ] h &.M.M._.'.J 4.>X<X>X3X,XJ AXAXAXAX",
"AXAXAXAXAXAXAXAXAXAXAXAXAXAXAXAXAXAXAXAXAXAXAXq w *.J.( ^ 6.3.>.1 -./.`.:X1Xx.AXAXAXAXAX",
"AXAXAXAXAXAXAXAXAXAXAXAXAXAXAXAXAXAXAXAXAXAXAXq r e 6.H.t.9.9.9.( j 7.=.u.1.AXAXAXAXAXAX",
"AXAXAXAXAXAXAXAXAXAXAXAXAXAXAXAXAXAXAXAXAXAXAXw E r h J.H.J.[.5X-.*.[.J.J.^ AXAXAXAXAXAX",
"AXAXAXAXAXAXAXAXAXAXAXAXAXAXAXAXAXAXAXAXAXAXAXw ~ _ h 6.J.9.].MX6.] tXaXkX].AXAXAXAXAXAX",
"AXAXAXAXAXAXAXAXAXAXAXAXAXAXAXAXAXAXAXAXAXAX  r _ A.e a [ J.].kX-.d 5XmXVX5X#.AXAXAXAXAX",
"AXAXAXAXAXAXAXAXAXAXAXAXAXAXAXAXAXAXAXAXAXAX# E A.7.^ e 7.J.[.aX1.e ].MXMXtX#.AXAXAXAXAX",
"AXAXAXAXAXAXAXAXAXAXAXAXAXAXAXAXAXAXAXAXAX% x z / 8.J.7.L.L.[.tX6.$ L.cXmXtX:.AXAXAXAXAX",
"AXAXAXAXAXAXAXAXAXAXAXAXAXAXAXAXAXAXAXAXAX# g 5.K 7.H.J.t.J.].tX*.X J.kXMXcX9.AXAXAXAXAX",
"AXAXAXAXAXAXAXAXAXAXAXAXAXAXAXAXAXAXAXAXAX& 5.%Xj.] H.5X].J.].kXL.*.].kXMXMXy.AXAXAXAXAX",
"AXAXAXAXAXAXAXAXAXAXAXAXAXAXAXAXAXAXAXAXAX,.c.:X'.$.7.5XkXL.6XMXkXaXkXkXMXaX=.AXAXAXAXAX",
"AXAXAXAXAXAXAXAXAXAXAXAXAXAXAXAXAXAXAXAXx.c.V.:X,Xw.*.H.5X5XaXkXMXMXcXkXVX|.e AXAXAXAXAX",
"AXAXAXAXAXAXAXAXAXAXAXAXAXAXAXAXAXAXAXS m.V.C.M.>X).*.7.[.MXMXkXkXkXkXmXMXw.AXAXAXAXAXAX",
"AXAXAXAXAXAXAXAXAXAXAXAXAXAXAXAXAX# w g M.&X5.,.:X>Xr.] J.@XkXkXyX5X5X5X].j AXAXAXAXAXAX",
"AXAXAXAXAXAXAXAXAXAXAXAXAXAXAXAX@ u W x c.,Xc.J M.3X;X7.[ J.5XMXtXL.7.$.j AXAXAXAXAXAXAX",
"AXAXAXAXAXAXAXAXAXAXAXAXAXAXAXw w W W w x.:X_.&.5.:X3X/.>.} I.yXcXE.j AXAXAXAXAXAXAXAXAX",
"AXAXAXAXAXAXAXAXAXAXAXAXAXAXAX# W Q W w ,.V.:Xg.R x.,X3Xb.>.7.}.tX;.AXAXAXAXAXAXAXAXAXAX",
"AXAXAXAXAXAXAXAXAXAXAXAXAXAX@ r ! | W # g M.:XV.5.J c.3X4Xn.>.H.6.AXAXAXAXAXAXAXAXAXAXAX",
"AXAXAXAXAXAXAXAXAXAXAXAXAX  w W | o.W w $ 5.&X'.M.&.g M.3X>Xn.7.$ AXAXAXAXAXAXAXAXAXAXAX",
"AXAXAXAXAXAXAXAXAXAXAXAXAX@ u ! o.| Q u w L V.`._.'.C L `.3Xb.;.:.AXAXAXAXAXAXAXAXAXAXAX",
"AXAXAXAXAXAXAXAXAXAXAXAXX r Q ..| /  .Q W p g.&X/.,XM.L v.'.>.{.aXw.AXAXAXAXAXAXAXAXAXAX",
"AXAXAXAXAXAXAXAXAXAXAX@ w W  .+./  .o.) W W J _.&X=X>XM.M.c.>.yXBX@XAXAXAXAXAXAXAXAXAXAX",
"AXAXAXAXAXAXAXAXAXAX@ # u / .. ./ X...| ! ) i x.>X>X3X3X_.L u.bXBX|.AXAXAXAXAXAXAXAXAXAX",
"AXAXAXAXAXAXAXAXAX@ # u Q  . . .........X.X.! >.&X>X:X&Xw.&.9XBXuXAXAXAXAXAXAXAXAXAXAXAX",
"AXAXAXAXAXAXAX  . r u W !  . .......| ....X.X.` ;.x.w.>.e.9XBXlX:.AXAXAXAXAXAXAXAXAXAXAX",
"AXAXAXAXAXAXAX@ u W u ~  . . . .............O.) i 9.u.I.yXBXuX3.AXAXAXAXAXAXAXAXAXAXAXAX",
"AXAXAXAXAXAX# W ! Q W Q  . .W Q ............X.` >.{.9XNXBXbX-.AXAXAXAXAXAXAXAXAXAXAXAXAX",
"AXAXAXAXAX# W  . .W W  ...Q W ` ....| ....X.! } E.9XVXBXBX@X$.AXAXAXAXAXAXAXAXAXAXAXAXAX",
"AXAXAXAXw W  .X.i u / O. .W Q ......O.O. .Q +.U.9XNXBXnX@X@XeXAXAXAXAXAXAXAXAXAXAXAXAXAX",
"AXAXAXw W  ...Q u Q ..O.! W ` ....O...! / 9.{.yXNXNXeX{..XbXBXi.AXAXAXAXAXAXAXAXAXAXAXAX",
"AXAXw W ! |  .W Q ......Q W  ...O.O.u h I.6XyXyX+X~.H.{.zXBX@XAXAXAXAXAXAXAXAXAXAXAXAXAX",
"# u W !  ./ /  ...o...| ~ u  .O.O.~ x I.8X8X{.I.I.^.6XbXBXeXG AXAXAXAXAXAXAXAXAXAXAXAXAX",
"# u W Q ! ` o.o.o.| ....~ u  .| i AX>.oX8XoX{.oXaXNXBXBXtXU.AXAXAXAXAXAXAXAXAXAXAXAXAXAX",
"AX@ u u W ! ..o.........Q u / e AXAX} ~.8XaXmXNXBXBXVXoX^..XAXAXAXAXAXAXAXAXAXAXAXAXAXAX",
"AXz } # q W ! ..o.o.| o.` u w AXAXAXz {.yXbXlX.X8XlX8Xu.5XsXAXAXAXAXAXAXAXAXAXAXAXAXAXAX",
"AXG @.l l w r Q  .O.+.+.| W   AXAXAX} oX6XoX^.u.{.6XoX8XbXW.AXAXAXAXAXAXAXAXAXAXAXAXAXAX",
"AX& 6 K x.3.p q W ! ..F.o.Q # AXAX  p.9X{.u.u.^.oXtXVXkX.XAXAXAXAXAXAXAXAXAXAXAXAXAXAXAX",
"AXAX9 c R g.a.-.u r u W ) ..Q AXAX% I.8XI.u.~.9XlXBXzX|.!.AXAXAXAXAXAXAXAXAXAXAXAXAXAXAX",
"AXAXAX< 7 g ,.M.b.0.( i ( Q i AXAX. 6.{.oX8XlXVXBX8X{.0XuXAXAXAXAXAXAXAXAXAXAXAXAXAXAXAX",
"AXAXAX6 , 5 0 ,.n._.`. X`.j AXAXAX. u.8XbXVXNXlX].H.+XBXlXY.AXAXAXAXAXAXAXAXAXAXAXAXAXAX",
"AXAXAXAX1 7 v 5 C 4.'.gXCXn.AXAXAXz }.yXaX9X{.I.I.eXBXvX{.AXAXAXAXAXAXAXAXAXAXAXAXAXAXAX",
"AXAXAXAXAX< v v 5 V 2.j.OX`.s AXX 9.8X8XI.u.I.}.bXNXaX9X.XAXAXAXAXAXAXAXAXAXAXAXAXAXAXAX",
"AXAXAXAXAXAX< v v m R 2.,.:.& AXw I.8XoX{.oXpXNXlX6X8XcXNXw.AXAXAXAXAXAXAXAXAXAXAXAXAXAX",
"AXAXAXAXAXAXAX< v v A d.<.2.<   } 8XlXlXmXVXlX8XoXeXNXBX+X-.AXAXAXAXAXAXAXAXAXAXAXAXAXAX",
"AXAXAXAXAXAXAXAX< v B A h.k.A $ I.aXBXBXBXNX9X8XlXBXVX.Xl.XX/.S AXAXAXAXAXAXAXAXAXAXAXAX",
"AXAXAXAXAXAXAXAXAX0 n v I k.<.] }.yXlXNXVXBXVXBXBX+XU.n.;XjXdX&XJ AXAXAXAXAXAXAXAXAXAXAX",
"AXAXAXAXAXAXAXAXAXX < v v U h.3.I.}.u.u.9XBXmX+X(.R.b.&X3XfXhXCX(.6   AXAXAXAXAXAXAXAXAX",
"AXAXAXAXAXAXAXAXAXAX$ < 5 n <.k.3.$.^ k :.T.R.n./._._.).v.x.j.l.a.2.I S g 6 AXAXAXAXAXAX",
"AXAXAXAXAXAXAXAXAXAXAXAXV 7 v <.h.S ^ $.% %.c.x.,.J g d f V c c n A P d.k.d.f AXAXAXAXAX",
"AXAXAXAXAXAXAXAXAXAXAXAXAXAXO 7 I f AXAXAXAXj.AXAXAXAXO + : 2 5 B v v V <.2.AXAXAXAXAXAX",
"AXAXAXAXAXAXAXAXAXAXAXAXAXAXAXAXAXAXAXAXAXAXAXAXAXAXAXAXAXAXAX1 9 1 O X + AXAXAXAXAXAXAX",
"AXAXAXAXAXAXAXAXAXAXAXAXAXAXAXAXAXAXAXAXAXAXAXAXAXAXAXAXAXAXAXAXAXAXAXAXAXAXAXAXAXAXAXAX"
};
