/* XPM */
static char *result[] = {
/* columns rows colors chars-per-pixel */
"39 147 246 2 ",
"   c #040303",
".  c #0B0C0C",
"X  c #0A0605",
"o  c #140300",
"O  c #130A03",
"+  c #1C0C01",
"@  c #160D09",
"#  c #1B130B",
"$  c #1A1106",
"%  c #080D14",
"&  c #08111B",
"*  c #141414",
"=  c #1B1B1B",
"-  c #181717",
";  c #220E01",
":  c #241202",
">  c #2A1501",
",  c #281A08",
"<  c #341C01",
"1  c #381E04",
"2  c #251B15",
"3  c #291517",
"4  c #2E210D",
"5  c #3B2101",
"6  c #33220D",
"7  c #3B270C",
"8  c #2B2217",
"9  c #342513",
"0  c #3C2A14",
"q  c #3A291A",
"w  c #020D27",
"e  c #051628",
"r  c #161B23",
"t  c #031C3B",
"y  c #031834",
"u  c #161E36",
"i  c #281B23",
"p  c #38182B",
"a  c #092239",
"s  c #16253A",
"d  c #1E222D",
"f  c #232424",
"g  c #2C2C2C",
"h  c #292728",
"j  c #372C25",
"k  c #3B332A",
"l  c #2A2D33",
"z  c #333334",
"x  c #3B3B3C",
"c  c #373538",
"v  c #312E35",
"b  c #432D14",
"n  c #432E1B",
"m  c #453115",
"M  c #4A3316",
"N  c #4B3319",
"B  c #49341C",
"V  c #533B1D",
"C  c #583918",
"Z  c #46290B",
"A  c #463221",
"S  c #4A3322",
"D  c #48372A",
"F  c #533A24",
"G  c #563D29",
"H  c #453D35",
"J  c #4B302E",
"K  c #623C30",
"L  c #39403E",
"P  c #5C4225",
"I  c #5E422B",
"U  c #4B4439",
"Y  c #564839",
"T  c #5D5238",
"R  c #66492B",
"E  c #67492C",
"W  c #634632",
"Q  c #6C4C33",
"!  c #674B39",
"~  c #714E36",
"^  c #745235",
"/  c #79553A",
"(  c #6D5136",
")  c #081E44",
"_  c #092947",
"`  c #192D46",
"'  c #142C55",
"]  c #163557",
"[  c #112C52",
"{  c #263347",
"}  c #3C3D45",
"|  c #223553",
" . c #253B5A",
".. c #152D66",
"X. c #1D3B63",
"o. c #1C3869",
"O. c #1C387A",
"+. c #243967",
"@. c #223878",
"#. c #433F42",
"$. c #562F4A",
"%. c #6C3257",
"&. c #7B3C63",
"*. c #3B444A",
"=. c #284369",
"-. c #2D4A72",
";. c #2A4A76",
":. c #314D77",
">. c #364A69",
",. c #444243",
"<. c #4C4A4C",
"1. c #484648",
"2. c #544B49",
"3. c #5A5448",
"4. c #494A56",
"5. c #524E51",
"6. c #4E5155",
"7. c #555254",
"8. c #5D5B5C",
"9. c #585558",
"0. c #4E514F",
"q. c #665845",
"w. c #775947",
"e. c #645B59",
"r. c #654E4B",
"t. c #6C6455",
"y. c #786A57",
"u. c #7E725C",
"i. c #72644B",
"p. c #585965",
"a. c #47546B",
"s. c #635D61",
"d. c #6A5A64",
"f. c #7D5A70",
"g. c #5E6266",
"h. c #656264",
"j. c #696365",
"k. c #6C666A",
"l. c #6C6A6C",
"z. c #63666C",
"x. c #746C68",
"c. c #7C7366",
"v. c #686976",
"b. c #736E72",
"n. c #787678",
"m. c #6C7474",
"M. c #5D605F",
"N. c #886756",
"B. c #867659",
"V. c #8E7054",
"C. c #867A68",
"Z. c #987362",
"A. c #827C7C",
"S. c #8B7679",
"D. c #90605C",
"F. c #988868",
"G. c #968876",
"H. c #928877",
"J. c #A79776",
"K. c #B49C78",
"L. c #A88C6D",
"P. c #B5A27B",
"I. c #92815F",
"U. c #C3A27C",
"Y. c #233D86",
"T. c #1B3A8D",
"R. c #2B4798",
"E. c #28428C",
"W. c #2D4AA1",
"Q. c #757A83",
"!. c #6F7784",
"~. c #867982",
"^. c #7D8488",
"/. c #898587",
"(. c #938B8B",
"). c #9B9384",
"_. c #878A97",
"`. c #948E92",
"'. c #959193",
"]. c #9A9799",
"[. c #8C9598",
"{. c #A99985",
"}. c #A29D9C",
"|. c #B3988E",
" X c #AEA289",
".X c #B9A788",
"XX c #BBAB95",
"oX c #BEB194",
"OX c #9C9CA8",
"+X c #A9A7A9",
"@X c #B2ACAC",
"#X c #AAADB5",
"$X c #ADB2B6",
"%X c #B8B5B7",
"&X c #B7B0AF",
"*X c #A0A3A6",
"=X c #C3A884",
"-X c #C8B999",
";X c #C9B495",
":X c #CCB9A3",
">X c #C1BBBC",
",X c #DBBEB2",
"<X c #D4B8AD",
"1X c #C29D80",
"2X c #D4C29E",
"3X c #D7C8A9",
"4X c #DCC9B3",
"5X c #CFC3AE",
"6X c #E8D7B8",
"7X c #EBCEB5",
"8X c #FDE3BE",
"9X c #BABAC4",
"0X c #C5BFC0",
"qX c #BBC4C8",
"wX c #BFCBD1",
"eX c #C4C2C3",
"rX c #C5C5CA",
"tX c #CBCBCD",
"yX c #C9C6C7",
"uX c #D2CCCD",
"iX c #CACCD3",
"pX c #D4D2D3",
"aX c #DAD4D4",
"sX c #DEDADA",
"dX c #D6D6DB",
"fX c #CAD1D6",
"gX c #E3DDDD",
"hX c #E8DEC7",
"jX c #EAE6C9",
"kX c #F8E9C9",
"lX c #F8ECD2",
"zX c #FEF3D2",
"xX c #FDFAD9",
"cX c #DBDBE4",
"vX c #DADAE5",
"bX c #E5DFE0",
"nX c #E6E1E1",
"mX c #EBE5E4",
"MX c #EFE9E9",
"NX c #E5E3EB",
"BX c #F3ECEC",
"VX c #FDFBE6",
"CX c #EAEAF4",
"ZX c #FAF5F6",
"AX c #DFE2E2",
"SX c None",
/* pixels */
"SXSXSXSXSXSXSXSXSXSXSXSXSXSXSXSXSXSXSXSXSXSXSXSXSXSXSXSXSXSXSXSXSXSXSXSXSXSXSX",
"SXSXSXSXSXSXSXSXSXSXSXSXSXSXSXSXSXSXSXSXSXSXSXSXSXSXSXSXSXSXSXSXSXSXSXSXSXSXSX",
"SXSXSXSXSXSXSXSXSXSXSXSXSXSXSXSXSXSXSXSXSXSXSXSXSXSXSX$ : SXSXSXSXSXSXSXSXSXSX",
"SXSXSXSXSXSXSXSXSXSXSXSXSXSXSXSXSXSXSXSXSXSXSXSX+ : > < 5 < < > SXSXSXSXSXSXSX",
"SXSXSXSXSXSXSXSXSXSXSXSXSXSXSXSXSXSXSXSXSXSX+ : < 5 5 5 5 5 5 5 < SXSXSXSXSXSX",
"SXSXSXSXSXSXSXSXSXSXSXSXSXSXSXSXSXSXSXSX: ; ; > 5 < : 5 5 5 5 5 5 > + SXSXSXSX",
"SXSXSXSXSXSXSXSXSXSXSXSXSXSXSXSXSXSXSXO + ; ; < 5 > + < 5 5 5 5 5 5 > SXSXSXSX",
"SXSXSXSXSXSXSXSXSXSXSXSXSXSXSXSXSXSXO ; ; : < 5 1 : $ < 5 < 5 5 5 5 5 > SXSXSX",
"SXSXSXSXSXSXSXSXSXSXSXSXSXSXSXSXSXo ; ; ; > < Z < ; ; < 5 1 1 1 1 1 1 1 : SXSX",
"SXSXSXSXSXSXSXSXSXSXSXSXSXSXSXSX+ + ; ; ; ; > 5 < : ; > 5 1 > > ; > 1 Z < + SX",
"SXSXSXSXSXSXSXSXSXSXSXSXSXSXSXSX: ; ; ; ; ; ; 1 < + + > 1 > C b o ; < 5 < X SX",
"SXSXSXSXSXSXSXSXSXSXSXSXSXSXSXSXSX+ ; ; ; ; ; 1 < X o ; o J =XV.$ o > 5 < SXSX",
"SXSXSXSXSXSXSXSXSXSXSXSXSXSXSXSXSX+ + ; ; ; ; > B ! ,   #  XzX:X! O o < > SXSX",
"SXSXSXSXSXSXSXSXSXSXSXSXSXSXSXSXX + + + ; ; ; o y.3Xe.  r.jXzX;XJ.r.3 ; > > SX",
"SXSXSXSXSXSXSXSXSXSXSXSXSXSXSXSXSXX o ; ; ; ; o w.8X3Xu.-XVX4Xu.y.L.w.# $ < SX",
"SXSXSXSXSXSXSXSXSXSXSXSXSXSXSXSXSXSXSX: ; ; ; o 4 K.zXlXkXzX6X XH.{.t.SXO SXSX",
"SXSXSXSXSXSXSXSXSXSXSXSXSXSXSXSXSXSXSX+ : + : o o q.jXxXzXkXkXkXjXjXH.SXSXSXSX",
"SXSXSXSXSXSXSXSXSXSXSXSXSXSXSXSXSXSXSXSXSX+ + + o Y hXzXkXkXkXzXzXzXlX).SXSXSX",
"SXSXSXSXSXSXSXSXSXSXSXSXSXSXSXSXSXSXSXSXSXSX+ o o q.hX6X-X4XzXzXzX7X3X6XC.SXSX",
"SXSXSXSXSXSXSXSXSXSXSXSXSXSXSXSXSXSXSXSXSXSXSX  X C.kX;X{.3XkX:X6X:XY Y SXSXSX",
"SXSXSXSXSXSXSXSXSXSXSXSXSXSXSXSXSXSXSXSXSXSXSX. G 3XlX-X:XlXkXoX4X XSXSXSXSXSX",
"SXSXSXSXSXSXSXSXSXSXSXSXSXSXSXSXSXSXSXSXSXSXSXG 1XkXlXkXzXxXzXlXlXC.SXSXSXSXSX",
"SXSXSXSXSXSXSXSXSXSXSXSXSXSXSXSXSXSXSXSXSXSXSXL.7XkXzXkX XK.6XxX3XSXSXSXSXSXSX",
"SXSXSXSXSXSXSXSXSXSXSXSXSXSXSXSXSXSXSXSXD q S Z.8XxXxX3XH 2 N.=Xt.SXSXSXSXSXSX",
"SXSXSXSXSXSXSXSXSXSXSXSXSXSXSXSXSXSXSX3 n A K w.F.jXVX:XSXSXSXSXSXSXSXSXSXSXSX",
"SXSXSXSXSXSXSXSXSXSXSXSXSXSXSXSXSXSXSXc J G J ~ Y t.jX5Xj SXSXSXSXSXSXSXSXSXSX",
"SXSXSXSXSXSXSXSXSXSXSXSXSXSXSXSXSX= s.s.J K w.w.N.! C.).r.G SXSXSXSXSXSXSXSXSX",
"SXSXSXSXSXSXSXSXSXSXSXSXSXSXSXSX= H b.%XS.q ~ Z.L.Z.N.w.w.w.H SXSXSXSXSXSXSXSX",
"SXSXSXSXSXSXSXSXSXSXSXSXSXSXSXSX#.9.+XBXgXS.Y r./ N.w./ y.x.b.SXSXSXSXSXSXSXSX",
"SXSXSXSXSXSXSXSXSXSXSXSXSXSXSXc 5.~.aXMXmXgX&XH.x.C.S.+X>Xn.5.(.SXSXSXSXSXSXSX",
"SXSXSXSXSXSXSXSXSXSXSXSXSXSXi } d.%XMXbXgXMXZXyX&XuXpXMXmXA.1.'.SXSXSXSXSXSXSX",
"SXSXSXSXSXSXSXSXSXSXSXSXSXSX#.7./.aXMXgXgXgX>X>XaXmXnXMXmX+Xe.SXSXSXSXSXSXSXSX",
"SXSXSXSXSXSXSXSXSXSXSXSXSXz 8.j.+XnXmXgXmXaX].+XpXnXgXnXBX@Xt.SXSXSXSXSXSXSXSX",
"SXSXSXSXSXSXSXSXSXSXSXSXSXg d.n.>XMXgXgXmXgX(.A.pXmXgXZXgX(.|.S.SXSXSXSXSXSXSX",
"SXSXSXSXSXSXSXSXSXSXSXSXSXc s.~.uXMXgXgXmXmX/.b.pXBXZXuX~.|.,Xx.SXSXSXSXSXSXSX",
"SXSXSXSXSXSXSXSXSXSXSXSX. 1.k.'.gXnXgXgXmXmX/.t.gXZX0Xc.S.,X;XSXSXSXSXSXSXSXSX",
"SXSXSXSXSXSXSXSXSXSXSXSX- 9.k.}.nXmXgXgXmXmX/.n.nX+Xr.).<X,X<Xy.SXSXSXSXSXSXSX",
"SXSXSXSXSXSXSXSXSXSXSXSXh s.k.@XmXnXgXgXmXmX/.9.y.Y N.<X<X,X,Xt.SXSXSXSXSXSXSX",
"SXSXSXSXSXSXSXSXSXSXSXSXv s.b.&XmXnXnXgXmXmX/.j G N.:X<X,X,XD.SXSXSXSXSXSXSXSX",
"SXSXSXSXSXSXSXSXSXSXSXSXe.n.b.%XmXnXgXgXmXnX~.F Z.:X<X0X<X~.p.<.SXSXSXSXSXSXSX",
"SXSXSXSXSXSXSXSXSXSXSXSX<.j.k.&XmXmXgXgXmXgXS.G L.uX4X|./.(.b.A.SXSXSXSXSXSXSX",
"SXSXSXSXSXSXSXSXSXSXSX. 2 Y d.&XmXgXgXgXMXgXn.Y |.;Xr.r.>X&Xj.b.SXSXSXSXSXSXSX",
"SXSXSXSXSXSXSXSXSXSXq G I ! s.*XgXmXgXgXMXuX2.F Z.~.(.eXBX&Xx.h.SXSXSXSXSXSXSX",
"SXSXSXSXSXSXSXSXX 4 B I ! r.s.`.gXMXgXgXBX>Xj e.0XmXmXZXBX].b.p.SXSXSXSXSXSXSX",
"SXSXSXSXSXSXSXSX+ C Q W ! w.z./.aXmXgXgXBX&Xv }.ZXMX>X}.%Xn.9.H SXSXSXSXSXSXSX",
"SXSXSXSXSXSXSX# V / / G G 7.d.Q.yXMXgXgXBX+Xf /.BXmX`.j./.l.5.v SXSXSXSXSXSXSX",
"SXSXSXSXSXSXX 0 Q Q ~ n c 5.j.b.%XmXnXgXBX+X2 j.mXmX0XaXgXH.s.c SXSXSXSXSXSXSX",
"SXSXSXSXSXSX6 I I E Q n H 5.s.k.+XnXmXgXBX+Xv 2.aXMXnXBXaXl.9.c SXSXSXSXSXSXSX",
"SXSXSXSXSX# m P S V R m q 1.h.k.(.aXmXbXMX*Xc H >XMXgXBXpXe.9.#.SXSXSXSXSXSXSX",
"SXSXSXSXSX, B A B m V V 9 H j.x.n.uXmXbXMX+X1.x }.MXnXBXpXd.j.#.SXSXSXSXSXSXSX",
"SXSXSXSXSX6 B S I 0 0 V 0 j h.b.k.&XmXMXgXA.1.1.A.bXmXMXuXl.l.#.SXSXSXSXSXSXSX",
"SXSXSXSXSX0 B G E 9 B E m j p.b.j.].bXBXaX9.#.9.e.0XMXBX0Xj.k.#.SXSXSXSXSXSXSX",
"SXSXSXSX$ 0 P Q Q , A ^ V q 9.b.k.~.uXBXgXd.<.k.7.}.mXZX>X5.5.g SXSXSXSXSXSXSX",
"SXSXSXSX# V P Q Q 4 q / V 2 9.b.~.A.&XBXgXb.5.b.8.n.gXZX%X<.7.z SXSXSXSXSXSXSX",
"SXSXSXSX4 V I ( E , q ^ V 9 7.b.(.`.].gXMXn.1.~.A.k.>XZX>X<.e.,.SXSXSXSXSXSXSX",
"SXSXSXSX6 F I ( E 9 0 G N 9 7.l.`.%X(.yXMXl.x (.&Xb.].ZXeX2.8.1.SXSXSXSXSXSXSX",
"SXSXSX# 0 P P ^ E 0 6 B M 0 7.k.'.aX0XaXmXk.z '.nX}.k.uXuXe.s.1.SXSXSXSXSXSXSX",
"SXSXSX# B B q Q W 0 , G P 8 <.l.`.gXBXmXMX`.H `.BXbX(.}.eXA.d.7.SXSXSXSXSXSXSX",
"SXSXSX, V B q ^ P 9 8 R R $ v j./.aXmXbXBX+X1.~.bXBXsXyX>Xl.s.5.SXSXSXSXSXSXSX",
"SXSXSX6 P A S ^ V 6 9 E R # i 9.(.aXmXbXBX>X<.j.uXmXmXZXyX9.s.7.SXSXSXSXSXSXSX",
"SXSX2 0 P B D ^ B 6 9 ( P q h ,.`.sXmXbXBXgX8.<.>XmXbXBXyX5.j.7.SXSXSXSXSXSXSX",
"SXSXV 0 I n P ^ M 4 0 ^ V k v x /.aXMXbXbXaXs.c +XMXbXBXuXe.s.7.SXSXSXSXSXSXSX",
"SXSXB B P j E Q M 4 9 ^ V A ,.,.b.uXmX0X].~.e.v (.bXbXBXgXb.s.b.SXSXSXSXSXSXSX",
"SXSXm V S A / E M 4 0 ( m k 6.<.n.&X`.9.#.} v h A.gXmXmXMX}.b.(.SXSXSXSXSXSXSX",
"SXSX0 V B P / R m 8 V Q b J 7.1.e.e.c w w w w c /.gXmXbXBX&Xk./.9.SXSXSXSXSXSX",
"SXF m N F ( / P m n E R 7 H s.x - r w ) ..O.) H }.nXnXnXBX}.2./.A.SXSXSXSXSXSX",
"SXq m F G / / C m S Q R 7 U n.d.r w ) Y.W.W...c '.nXmXnXZX}.#.'.].SXSXSXSXSXSX",
"SX9 M B D ^ / P m S ~ R 0 Y A.b.u y Y.W.R.W...l S.aXmXbXZX@X1.].(.SXSXSXSXSXSX",
"SXq M 9 4 V / Q m n ^ R 1 v h.s.r y O.W.R.R.' * 3.@XmXmXBX0X9.'.(.- SXSXSXSXSX",
"SX9 M n # 9 ( / V 4 I P 3 i $.2.r y ' O.+.u 3 C G n.pXBXZXuXd.}.%Xz SXSXSXSXSX",
"SX4 m I q , V / R , q V i %.D.J * w % % : 1 ^ L.w.$.~.`.aXaXb.'.&Xz SXSXSXSXSX",
"SX$ # P P 6 m P V 6 8 4 3 %.&.i o 1 7 Z C V.U.=Xw.p $.$.~.}.9.d.f.i SXSXSXSXSX",
"SXSX  6 I P M m m V 8   * v z f @ Z C ^ L.1XU.U.B.# 3 p %.%.p p J i SXSXSXSXSX",
"SXSXSXO 6 R / E ^ R $   f x m.n.l , Z E L.U.1X=XK.j   x d.f.e.h . SXSXSXSXSXSX",
"SXSXSXSX0 9 F R ( A # SX= L /.$X<.# 7 M F.U.K.L.U.i.* n.qX%XqXz.SXSXSXSXSXSXSX",
"SXSXSXSXSX,   . # # SXSX* z h.+Xz.* , C V.V.E P ( I 4 m.pXdXAX'.SXSXSXSXSXSXSX",
"SXSXSXSXSXSXSXSXSXSXSXSXSXz 0.+X/.h , C C Z + X . $ $ M.qXyXpX@Xv SXSXSXSXSXSX",
"SXSXSXSXSXSXSXSXSXSXSXSXSXg *.].}.L = 9 > X = 5.9.-   n.pXyXfXqX<.SXSXSXSXSXSX",
"SXSXSXSXSXSXSXSXSXSXSXSXSXf L n.$Xh.z f . . h /.}.L   0.%XtXtXfXn.SXSXSXSXSXSX",
"SXSXSXSXSXSXSXSXSXSXSXSXSXSXz M.>X[.*.z - = = l M.0.. = n.qXyXpX@Xz SXSXSXSXSX",
"SXSXSXSXSXSXSXSXSXSXSXSXSXSX= *.+X+X0.z - - = - z L - * 0.$XfXtXtX8.SXSXSXSXSX",
"SXSXSXSXSXSXSXSXSXSXSXSXSXSX. h ^.$XM.g * * f = h z = L U ^.yXfXfXn.SXSXSXSXSX",
"SXSXSXSXSXSXSXSXSXSXSXSXSXSXY h M.+Xl.h . * - = z f - l.l.1.*XtXdX'.SXSXSXSXSX",
"SXSXSXSXSXSXSXSXSXSXSXSXSXSXi.T z ^.m.g * * - = L f # [.@X0.^.eXpX$XL SXSXSXSX",
"SXSXSXSXSXSXSXSXSXSXSXSXSXSXk B.I.U z f . * = = f . L %XfX+X+XeXpXrX6.SXSXSXSX",
"SXSXSXSXSXSXSXSXSXSXSXSXSXSXSXq.J.F.i.U f = * - . X m.AXtXtXyXqXrXpXh.SXSXSXSX",
"SXSXSXSXSXSXSXSXSXSXSXSXSXSXSXT q.P.P.P.F.3.h # * = M.$XrXtXtXtXtXdX].9.SXSXSX",
"SXSXSXSXSXSXSXSXSXSXSXSXSXSXSXSX# I.P.P.P.P.I.8 z M.U 3.l.[.+XqXqXpXtX9.SXSXSX",
"SXSXSXSXSXSXSXSXSXSXSXSXSXSXSXSXSXT P.J.C..X.XL r M.C.J.B.q.T M.M.M.M.l U t.SX",
"SXSXSXSXSXSXSXSXSXSXSXSXSXSXSXSXSX8 F.P.I.G.XXU & g u.-X-XP.F.B.i.T Y u.{.{.SX",
"SXSXSXSXSXSXSXSXSXSXSXSXSXSXSXSXSX. T J.P.J.J.H . f 3.P..X.XoX2X2X2X2X6XoXH.SX",
"SXSXSXSXSXSXSXSXSXSXSXSXSXSXSXSXSXz f q.J.2XXX<.. - 3.P.P.I.B.F.P.oX2X6X XSXSX",
"SXSXSXSXSXSXSXSXSXSXSXSXSXSXSXSXSXL L f T -X6Xc.* . L F.u.q.i.q.i.i.I.F.u.SXSX",
"SXSXSXSXSXSXSXSXSXSXSXSXSXSXSXSXSXh 0.z = u.3XC.* & f F.I.k H q.c.H.c.I.u.SXSX",
"SXSXSXSXSXSXSXSXSXSXSXSXSXSXSXSX* L 0.0.f U P.J.= . & t.6X3XA.U U J.2X3X2Xq.SX",
"SXSXSXSXSXSXSXSXSXSXSXSXSXSXSXSXSXf L U z = u.P.g * . h G.3XjX3XJ.F.oX3XjX Xh ",
"SXSXSXSXSXSXSXSXSXSXSXSXSXSXSXSXSX  u { } u s 9.v * = X f j.).:X4X3X2X2X6XXXg ",
"SXSXSXSXSXSXSXSXSXSXSXSXSXSXSXSXSX& ) ..@.R.T.+.} 2 - * f 4.4.j.x.s.x.c.).c.SX",
"SXSXSXSXSXSXSXSXSXSXSXSXSXSXSXSXSX% t ..R.R.R.E.a.} - . . p.#X^.v.4.a.!.v.z SX",
"SXSXSXSXSXSXSXSXSXSXSXSXSXSXSXSXSX% t ..E.R.R.Y. .d.} * - /.CXCXNXNXdXNXiXSXSX",
"SXSXSXSXSXSXSXSXSXSXSXSXSXSXSXSXSXe t ..R.R.R.T.o.p.s.} v.#X9X9XiXvXvXZXvXSXSX",
"SXSXSXSXSXSXSXSXSXSXSXSXSXSXSXSXSX) t ..E.R.Y.O...d l 9.z.p.4.l.~.#XvXCXrX} SX",
"SXSXSXSXSXSXSXSXSXSXSXSXSXSXSXSXSX) t ..R.R.O.1.J -   - #.p.4.v.OX9XvXZX9Xl SX",
"SXSXSXSXSXSXSXSXSXSXSXSXSXSXSX} c t t ' E.R.@.C.B.#.{ i l v._.Q.9XvXvXCXrX} SX",
"SXSXSXSXSXSXSXSXSXSXSXSXSXSXSX^.^.u y t ' T.=.J. X7.p.v.6.4.OXvXdXvXvXCXvXv.SX",
"SXSXSXSXSXSXSXSXSXSXSXSXSXSXSXm.wXp.w t _ ..*.P.-Xx.4._.9XQ.4.*XNXvXdXvXCX[.SX",
"SXSXSXSXSXSXSXSXSXSXSXSXSXSXSX^.fX9Xp.| O.4.y.I.;XJ.<.p.OXvX9X[.9XvXvXNXNX~.SX",
"SXSXSXSXSXSXSXSXSXSXSXSXSXSXSX[.qXwXwX!.7.J.P.T F.;Xc.4.v.9XCXNXvXvXvXNX9XSXSX",
"SXSXSXSXSXSXSXSXSXSXSXSXSXSXSX[.qX$X#Xz.T =X3X3.T ;X.X2.} Q.0XCXNXNXvXOXQ.SXSX",
"SXSXSXSXSXSXSXSXSXSXSXSXSXSX} *XwX!.` y 8 J.6XF.T F.3XF.{ p.OXdX9X9XOX4.z.SXSX",
"SXSXSXSXSXSXSXSXSXSXSXSXSXf [.wX$X*.e t & y.2XoXq.q.;X3Xy.{ !.~.!.p.p.l SXSXSX",
"SXSXSXSXSXSXSXSXSXSXSXSXSXz.wXfX^.a ] o.y H P.2XI.q.C.3X:X%.>.!.c c SXSXSXSXSX",
"SXSXSXSXSXSXSXSXSXSXSXSXSX!.fX$X*.y =.=._ r I.2X Xy.i. X6X XM.6.= SXSXSXSXSXSX",
"SXSXSXSXSXSXSXSXSXSXSXSXSX^.fXQ.a a ] =._ e 3..XoXF.u.I.2X3Xt.SXSXSXSXSXSXSXSX",
"SXSXSXSXSXSXSXSXSXSXSXSXSXQ.qXL e s |  .] a l F.2XoXJ.H. X XSXSXSXSXSXSXSXSXSX",
"SXSXSXSXSXSXSXSXSXSXSXSXSXm.[.s a | =.=.X._ a 3.P.3X2X-X Xt.SXSXSXSXSXSXSXSXSX",
"SXSXSXSXSXSXSXSXSXSXSXSXSX0.0.a ] ` | :.:.X._ l F.2X4X6X{.SXSXSXSXSXSXSXSXSXSX",
"SXSXSXSXSXSXSXSXSXSXSXSXSX. e _ =.s | :.:.-.[ a 3.P.6X2X3.SXSXSXSXSXSXSXSXSXSX",
"SXSXSXSXSXSXSXSXSXSXSXSXSX% a ] =.{ =.-.-.-.=.[ s q.J.3.SXSXSXSXSXSXSXSXSXSXSX",
"SXSXSXSXSXSXSXSXSXSXSXSX  a a =.] | -.-.-.-.-.:._ . SXSXSXSXSXSXSXSXSXSXSXSXSX",
"SXSXSXSXSXSXSXSXSXSXSXSX& _ ] =.s | -.-.=.-.-.-.a.z SXSXSXSXSXSXSXSXSXSXSXSXSX",
"SXSXSXSXSXSXSXSXSXSXSX% a _ =.=.{ =.-.-.-.-.=.=.#XeXSXSXSXSXSXSXSXSXSXSXSXSXSX",
"SXSXSXSXSXSXSXSXSXSX. e _ ] =.s =.-.-.-.-.-.] >.AXZXSXSXSXSXSXSXSXSXSXSXSXSXSX",
"SXSXSXSXSXSXSXSXSXSX& _ _ ] | =.-.-.-.-.-.-.] _.ZX%XSXSXSXSXSXSXSXSXSXSXSXSXSX",
"SXSXSXSXSXSXSXSXSX& a _ [ ` | -.:.-.-.-.;.X.>.fXdXSXSXSXSXSXSXSXSXSXSXSXSXSXSX",
"SXSXSXSXSXSXSXSX. a ] ] a { =.:.-.-.-.-.;.X.a.@XA.SXSXSXSXSXSXSXSXSXSXSXSXSXSX",
"SXSXSXSXSXSXSXSXe _ =.] a =.:.-.-.-.-.-.;.[ z.'.SXSXSXSXSXSXSXSXSXSXSXSXSXSXSX",
"SXSXSXSXSXSXSX& a X.;.s ` -.-.-.=.-.-.-.X.*.#XpXSXSXSXSXSXSXSXSXSXSXSXSXSXSXSX",
"SXSXSXSXSXSXX y ] :.] s =.:.-.-.-.-.-.-.] !.ZXAXSXSXSXSXSXSXSXSXSXSXSXSXSXSXSX",
"SXSXSXSXSXSX% _ -.-.a ] :.-.-.-.-.-.-.=.| $XZX}.SXSXSXSXSXSXSXSXSXSXSXSXSXSXSX",
"SXSXSXSXSX. a X.=.{ ` =.:.=.-.-.-.-.-.X.>.cXBX1.SXSXSXSXSXSXSXSXSXSXSXSXSXSXSX",
"SXSXSXSX& e ] ;.=. .=.:.-.-.-.-.-.-.-.X.a.NX'.SXSXSXSXSXSXSXSXSXSXSXSXSXSXSXSX",
"SXSXSXe a ] ;.:.:.:.:.:.-.-.-.=.-.-.-.X.>.+X8.SXSXSXSXSXSXSXSXSXSXSXSXSXSXSXSX",
"SXSX. a _ [ ] ] X.;.:.:.-.>.-.-.-.-.-.=. .].(.SXSXSXSXSXSXSXSXSXSXSXSXSXSXSXSX",
"SXSXSX& & e a s a _ [ X.:.:.-.-.:.;.;.-.=.m.m.SXSXSXSXSXSXSXSXSXSXSXSXSXSXSXSX",
"SXSXSXSXl *.*.L 8.*._ _ ] o.o.X.] ' ' [ [ ` SXSXSXSXSXSXSXSXSXSXSXSXSXSXSXSXSX",
"SXSXSXSX<.m.5.,.G..XH.n.h.p.4.p.b.Q.A.l.{ SXSXSXSXSXSXSXSXSXSXSXSXSXSXSXSXSXSX",
"SXSXSXSX- c k A ! u.F.G.J..X.X.X:XhXhXhX).2 SXSXSXSXSXSXSXSXSXSXSXSXSXSXSXSXSX",
"SXSXSXSXSXSX# 0 B A H D Y t.C. XXX3XlXVXzX|.c SXSXSXSXSXSXSXSXSXSXSXSXSXSXSXSX",
"SXSXSXSXSXSXSX$ 6 M M 0 9 0 j Y q.c.{.&XyXhX X* SXSXSXSXSXSXSXSXSXSXSXSXSXSXSX",
"SXSXSXSXSXSXSXSX@ 6 M N M b Z q n S G K 2.C.C.J 2 - SXSXSXSXSXSXSXSXSXSXSXSXSX",
"SXSXSXSXSXSXSXSXSXS , n N M N b b n b 6 S w.N.N.N.K j SXSXSXSXSXSXSXSXSXSXSXSX",
"SXSXSXSXSXSXSXSXSXSXS b N C N n Z N b b n W N.Z.Z.N.w.r.G j j n SXSXSXSXSXSXSX",
"SXSXSXSXSXSXSXSXSXSXSX2 3 Z N N N N n M M N E N.D.Z.Z.Z.D.N.N.N.D SXSXSXSXSXSX",
"SXSXSXSXSXSXSXSXSXSXSXSXSX2 9 n B M N N b b M F Q / N.N.~ / N.D.Y SXSXSXSXSXSX",
"SXSXSXSXSXSXSXSXSXSXSXSXSXSXSX@ 2 9 8 9 n q 9 1 9 0 b n n F j j SXSXSXSXSXSXSX",
"SXSXSXSXSXSXSXSXSXSXSXSXSXSXSXSXSXSXSXSXSXSXSXSX@ X X O # SXSXSXSXSXSXSXSXSXSX"
};
