/* XPM */
static char *result[] = {
/* columns rows colors chars-per-pixel */
"45 153 247 2 ",
"   c #020202",
".  c #0D0C0C",
"X  c #0A0705",
"o  c #140C03",
"O  c #1C0C01",
"+  c #160905",
"@  c #1A1208",
"#  c #060C16",
"$  c #131314",
"%  c #1C1C1C",
"&  c #191615",
"*  c #0E1319",
"=  c #220D01",
"-  c #210F0A",
";  c #241201",
":  c #2B1501",
">  c #271A09",
",  c #331B01",
"<  c #371E06",
"1  c #271C14",
"2  c #361D15",
"3  c #3B2101",
"4  c #38260E",
"5  c #27221A",
"6  c #332313",
"7  c #3C2B12",
"8  c #392819",
"9  c #2E220B",
"0  c #000D29",
"q  c #041428",
"w  c #171C26",
"e  c #021D3A",
"r  c #031735",
"t  c #0F1A37",
"y  c #092139",
"u  c #182537",
"i  c #1D222B",
"p  c #232323",
"a  c #2B2C2C",
"s  c #282928",
"d  c #362D26",
"f  c #3A3328",
"g  c #292C34",
"h  c #2D3335",
"j  c #343434",
"k  c #3C3C3C",
"l  c #383837",
"z  c #352B32",
"x  c #311A2F",
"c  c #442B0E",
"v  c #422E12",
"b  c #442D1A",
"n  c #453113",
"m  c #4B351C",
"M  c #4A3419",
"N  c #533A1C",
"B  c #54310B",
"V  c #483628",
"C  c #543B23",
"Z  c #573B27",
"A  c #473D36",
"S  c #4F372C",
"D  c #3D403E",
"F  c #5E4229",
"G  c #4B4338",
"H  c #584639",
"J  c #584E39",
"K  c #66472B",
"L  c #6C4C33",
"P  c #644A38",
"I  c #704F33",
"U  c #745236",
"Y  c #7A5639",
"T  c #79563A",
"R  c #6F5031",
"E  c #031B44",
"W  c #082746",
"Q  c #192B46",
"!  c #162857",
"~  c #183659",
"^  c #153150",
"/  c #2B3647",
"(  c #383A43",
")  c #233A5A",
"_  c #183270",
"`  c #263C64",
"'  c #223C7D",
"]  c #453B44",
"[  c #523447",
"{  c #663955",
"}  c #7E3D69",
"|  c #3D4343",
" . c #234166",
".. c #2C456B",
"X. c #274368",
"o. c #2D4A72",
"O. c #2A4377",
"+. c #314C76",
"@. c #314E79",
"#. c #34517B",
"$. c #444344",
"%. c #4B4B4B",
"&. c #494748",
"*. c #544C4A",
"=. c #5A5447",
"-. c #484A54",
";. c #564955",
":. c #545354",
">. c #5C5B5B",
",. c #595659",
"<. c #4F5058",
"1. c #665848",
"2. c #785948",
"3. c #635B58",
"4. c #654C4A",
"5. c #77674C",
"6. c #796957",
"7. c #6C6457",
"8. c #5A5C65",
"9. c #4B5965",
"0. c #635C62",
"q. c #6F526D",
"w. c #5E656F",
"e. c #636263",
"r. c #6D6B6C",
"t. c #6A6569",
"y. c #726C6C",
"u. c #7B7467",
"i. c #686976",
"p. c #736D72",
"a. c #7D6775",
"s. c #757273",
"d. c #7A7779",
"f. c #6E7171",
"g. c #855F3D",
"h. c #886655",
"j. c #916C5A",
"k. c #86785A",
"l. c #95745A",
"z. c #876949",
"x. c #8B4773",
"c. c #9A7864",
"v. c #837D7D",
"b. c #887967",
"n. c #A27B65",
"m. c #833C63",
"M. c #988766",
"N. c #978876",
"B. c #928874",
"V. c #A7896B",
"C. c #A79673",
"Z. c #B69B78",
"A. c #A98E71",
"S. c #BAA37C",
"D. c #C19E7D",
"F. c #243D88",
"G. c #2A4799",
"H. c #26418A",
"J. c #767884",
"K. c #707387",
"L. c #9F5585",
"P. c #A25B8D",
"I. c #837D81",
"U. c #B273AE",
"Y. c #A3629A",
"T. c #7C858A",
"R. c #858283",
"E. c #8D8A8B",
"W. c #888688",
"Q. c #948C8A",
"!. c #888B94",
"~. c #938E91",
"^. c #959292",
"/. c #9D9A9A",
"(. c #979698",
"). c #939491",
"_. c #A79A85",
"`. c #A39E9F",
"'. c #A99892",
"]. c #B69A8E",
"[. c #BAA988",
"{. c #B7AA94",
"}. c #BEB096",
"|. c #ADA18F",
" X c #9799A6",
".X c #9192A7",
"XX c #AA9DA6",
"oX c #A4A2A3",
"OX c #ADAAAB",
"+X c #A9A6A8",
"@X c #B2ACAC",
"#X c #B8A7A1",
"$X c #A7A8B5",
"%X c #B4B1B3",
"&X c #BDBABA",
"*X c #B9B6B8",
"=X c #B2B2B0",
"-X c #9FA7B4",
";X c #C6B799",
":X c #C6AD8E",
">X c #E5BC9A",
",X c #CAB9A2",
"<X c #C3BDBC",
"1X c #D0B4A9",
"2X c #DBCCAC",
"3X c #D4C5A7",
"4X c #D8CBB4",
"5X c #E5D6B7",
"6X c #EFCFAF",
"7X c #B8BCC3",
"8X c #BF82C0",
"9X c #C7BCC4",
"0X c #C080C2",
"qX c #BAC5CC",
"wX c #C3C3C5",
"eX c #CAC4C4",
"rX c #C5C5C9",
"tX c #CBCBCC",
"yX c #C8C8CA",
"uX c #D2CDCD",
"iX c #CBCDD4",
"pX c #CDD2D5",
"aX c #D3D1D3",
"sX c #DBD5D5",
"dX c #DED9D9",
"fX c #D7D6DA",
"gX c #D8D1CA",
"hX c #E3DDDD",
"jX c #ECDCC2",
"kX c #ECE4C5",
"lX c #FAE9C9",
"zX c #FEF6D5",
"xX c #EFE7DA",
"cX c #DADAE4",
"vX c #DEDFEA",
"bX c #CAD7E1",
"nX c #E4DFE0",
"mX c #DDE2E6",
"MX c #E6E1E1",
"NX c #EAE4E4",
"BX c #E2E2EB",
"VX c #EEE9E9",
"CX c #EEE7E8",
"ZX c #F2ECEC",
"AX c #FAF8F9",
"SX c #EFEDF2",
"DX c None",
/* pixels */
"DXDXDXDXDXDXDXDXDXDXDXDXDXDXDXDXDXDXDXDXDXDXDXDXDXDXDXDXDXDXDXDXDXDXDXDXDXDXDXDXDXDXDXDXDX",
"DXDXDXDXDXDXDXDXDXDXDXDXDXDXDXDXDXDXDXDXDXDXDXDXDXDXDXDXDXDXDXDXDXDXDXDXDXDXDXDXDXDXDXDXDX",
"DXDXDXDXDXDXDXDXDXDXDXDXDXDXDXDXDXDXDXDXDXDXDXDXDXDXDXDXDXDXDXo DXDXDXDXDXDXDXDXDXDXDXDXDX",
"DXDXDXDXDXDXDXDXDXDXDXDXDXDXDXDXDXDXDXDXDXDXDXDXDXDXo : ; DX; O DXDXDXDXDXDXDXDXDXDXDXDXDX",
"DXDXDXDXDXDXDXDXDXDXDXDXDXDXDXDXDXDXDXDXDXDXDXDXDXDX, 3 3 3 , , , : O DXDXDXDXDXDXDXDXDXDX",
"DXDXDXDXDXDXDXDXDXDXDXDXDXDXDXDXDXDXDXDXDXDXDXDXDX; ; : 3 3 3 3 < c 3 O DXDXDXDXDXDXDXDXDX",
"DXDXDXDXDXDXDXDXDXDXDXDXDXDXDXDXDXDXDXDXDXDXDXDX; ; O , 3 3 3 3 < 3 3 3 O DXDXDXDXDXDXDXDX",
"DXDXDXDXDXDXDXDXDXDXDXDXDXDXDXDXDXDXDXDXDXDXDX; : ; O , 3 , 3 3 < , 3 3 3 < DXDXDXDXDXDXDX",
"DXDXDXDXDXDXDXDXDXDXDXDXDXDXDXDXDXDXDXDXDXDXO : = O : 3 3 3 3 3 4 < : < 3 < , DXDXDXDXDXDX",
"DXDXDXDXDXDXDXDXDXDXDXDXDXDXDXDXDXDXDXDXDXO ; ; = ; 3 3 3 3 3 O P z.- O : : , , O DXDXDXDX",
"DXDXDXDXDXDXDXDXDXDXDXDXDXDXDXDXDXDXDXDXDXO = = = : < , : < : @ V.>X6.X + : : , ; DXDXDXDX",
"DXDXDXDXDXDXDXDXDXDXDXDXDXDXDXDXDXDXDXDXDX; = = = , 3 O O : O V :XlXjX6.X O , = DXDXDXDXDX",
"DXDXDXDXDXDXDXDXDXDXDXDXDXDXDXDXDXDXDXDXDX; : = = , 3 O X O + 2.6XzXzXkX6.  = : DXDXDXDXDX",
"DXDXDXDXDXDXDXDXDXDXDXDXDXDXDXDXDXDXDXDXO ; = O = , < +   + @ V.lX4X}.kXkX1.X ; DXDXDXDXDX",
"DXDXDXDXDXDXDXDXDXDXDXDXDXDXDXDXDXDXDXDXO O = = = , < f 1   1 :XzX5X_.B.5XkX=.  DXDXDXDXDX",
"DXDXDXDXDXDXDXDXDXDXDXDXDXDXDXDXDXDXDXDXX X O = = = 1 A.A.  1 1XzXlX_.1.B.xX7.  DXDXDXDXDX",
"DXDXDXDXDXDXDXDXDXDXDXDXDXDXDXDXDXDXDXDXDXDXO ; = = @ c.lXu.1.5XzXzX_.6.u.N.DXDXDXDXDXDXDX",
"DXDXDXDXDXDXDXDXDXDXDXDXDXDXDXDXDXDXDXDXDXDXO O = = + V 3X3X1XlXlXlX5X4X2X_.DXDXDXDXDXDXDX",
"DXDXDXDXDXDXDXDXDXDXDXDXDXDXDXDXDXDXDXDXDXDXX O = O + + 1.{.jXlXlXlXlXzXzXzXB.DXDXDXDXDXDX",
"DXDXDXDXDXDXDXDXDXDXDXDXDXDXDXDXDXDXDXDXDXDXDX; O o +   G ,X2X5X5XlXzXzXkX5XjXC.DXDXDXDXDX",
"DXDXDXDXDXDXDXDXDXDXDXDXDXDXDXDXDXDXDXDXDXDXDXDXX . =.U N.3X_._.;XlX5X5XjXb.6.N.DXDXDXDXDX",
"DXDXDXDXDXDXDXDXDXDXDXDXDXDXDXDXDXDXDXDXDXDXDXDXDX& V.6XkX5X_._.5XlX;X}.5Xl DXDXDXDXDXDXDX",
"DXDXDXDXDXDXDXDXDXDXDXDXDXDXDXDXDXDXDXDXDXDXDXDXDXX l.lXzXlX5XlXzXzXjXgX;XDXDXDXDXDXDXDXDX",
"DXDXDXDXDXDXDXDXDXDXDXDXDXDXDXDXDXDXDXDXDXDXDXDXX 1 V.>XjXzXlX6X6XlXzXzXb.DXDXDXDXDXDXDXDX",
"DXDXDXDXDXDXDXDXDXDXDXDXDXDXDXDXDXDXDXDXDXDXDX- b 8 n.>X6XzX].1.2.c.3X:Xp DXDXDXDXDXDXDXDX",
"DXDXDXDXDXDXDXDXDXDXDXDXDXDXDXDXDXDXDXDXDXDX2 2 2 S 4.A.>XzXb.DXDXDXH H DXDXDXDXDXDXDXDXDX",
"DXDXDXDXDXDXDXDXDXDXDXDXDXDXDXDXDXDXDXDXDX& < S - Z 4.4.D.lX{.$ DXDXDXDXDXDXDXDXDXDXDXDXDX",
"DXDXDXDXDXDXDXDXDXDXDXDXDXDXDXDXDXDXDXDXW.:.= Z P 8 L S 2.6XkX=.@ 1 DXDXDXDXDXDXDXDXDXDXDX",
"DXDXDXDXDXDXDXDXDXDXDXDXDXDXDXDXDXDXDXA ^.tX&.= g.2.A Z S A.lXh.@ - @ DXDXDXDXDXDXDXDXDXDX",
"DXDXDXDXDXDXDXDXDXDXDXDXDXDXDXDXDXDX1 J.sXSX@X] V l.l.6.P H N.1.8 S - DXDXDXDXDXDXDXDXDXDX",
"DXDXDXDXDXDXDXDXDXDXDXDXDXDXDXDXDXp R.dXZXhXdX9Xa.S L j.n.h.H 1.j.h.& DXDXDXDXDXDXDXDXDXDX",
"DXDXDXDXDXDXDXDXDXDXDXDXDXDXDXDX] W.NXSXhXdXnXCXhX^.*.S Z Z 6 P h.V DXDXDXDXDXDXDXDXDXDXDX",
"DXDXDXDXDXDXDXDXDXDXDXDXDXDXDXDXp.hXZXgXsXNXhXMXCXhXeX`.y.*.A V A H DXDXDXDXDXDXDXDXDXDXDX",
"DXDXDXDXDXDXDXDXDXDXDXDXDXDXDXDX+XAXuXE.XXhXNXgXuXNXCXNXhX9XeX@XQ.Q.1 DXDXDXDXDXDXDXDXDXDX",
"DXDXDXDXDXDXDXDXDXDXDXDXDXDXDXz &XMXE.0.W.hXCXuXeXhXNXMXMXNXZXuX{.1X&.DXDXDXDXDXDXDXDXDXDX",
"DXDXDXDXDXDXDXDXDXDXDXDXDXDXDX$.eX@X0.t.+XNXNXsXeXaXMXhXhXNXhX~.1X1Xf DXDXDXDXDXDXDXDXDXDX",
"DXDXDXDXDXDXDXDXDXDXDXDXDXDXDXE.hX~.,.E.sXCXhXNXOXXXhXMXhXZX/.v.1X].*.DXDXDXDXDXDXDXDXDXDX",
"DXDXDXDXDXDXDXDXDXDXDXDXDXDXDX&XhXW.3.`.NXNXhXCX*X`.hXNXZX%X3.].1X#X~.DXDXDXDXDXDXDXDXDXDX",
"DXDXDXDXDXDXDXDXDXDXDXDXDXDXDXuXsXp.3.@XCXhXhXNXuX@XsXZXNX,.6.1X`.I.`.DXDXDXDXDXDXDXDXDXDX",
"DXDXDXDXDXDXDXDXDXDXDXDXDXDXDXhXeX0.0.%XVXhXhXNXsX+XuXAXQ.H :X1Xv.3.I.DXDXDXDXDXDXDXDXDXDX",
"DXDXDXDXDXDXDXDXDXDXDXDXDXDXDXMX<X3.0.+XNXMXhXCXiXB.gXtXA c.4XN.^.p.s.a DXDXDXDXDXDXDXDXDX",
"DXDXDXDXDXDXDXDXDXDXDXDXDXDXDXdXuXt.t.`.NXMXhXCXsXR.oXa.4.1X].].4Xs.^.a DXDXDXDXDXDXDXDXDX",
"DXDXDXDXDXDXDXDXDXDXDXDXDXDXDXhXhXd.0.`.NXNXhXNXMXE.[ A ].1XQ.hXtXp.&Xk DXDXDXDXDXDXDXDXDX",
"DXDXDXDXDXDXDXDXDXDXDXDXDXDXDXNX+X0.0.(.hXNXhXhXVXoXZ g.].v.@XhX<Xp.E.k DXDXDXDXDXDXDXDXDX",
"DXDXDXDXDXDXDXDXDXDXDXDXDXDXd.NXv.] 0.^.hXNXhXhXZX@XP h.v.@XuX0.k ] >.s DXDXDXDXDXDXDXDXDX",
"DXDXDXDXDXDXDXDXDXDXDXDXDXDX/.CXv.$.>.^.hXNXhXhXZX%X4.P Q.hXNXgX@Xs.%X%.DXDXDXDXDXDXDXDXDX",
"DXDXDXDXDXDXDXDXDXDXDXDXDXDXE.ZXR.$.;.~.sXNXhXhXZX%XV 7.sXCXhXVXgXW.sXs.DXDXDXDXDXDXDXDXDX",
"DXDXDXDXDXDXDXDXDXDXDXDXDX8 3.hX(.&.$.Q.dXZXhXhXZX9X&.(.ZXNXhXMXhX/.uX`.DXDXDXDXDXDXDXDXDX",
"DXDXDXDXDXDXDXDXDXDXDXDXN n A @XOX;.( p.<XVXMXhXMXsXr./.ZXMXhXNXhX^.eX<X&.DXDXDXDXDXDXDXDX",
"DXDXDXDXDXDXDXDXDXDXDXm 4 M 8 &.3.H 4.0.E.sXNXhXMXNXv.E.NXNXhXMXcXB.%XuX,.DXDXDXDXDXDXDXDX",
"DXDXDXDXDXDXDXDXDXDX8 7 n C f > Z c.'.>.y.%XVXMXhXZX~.3.eXZXhXNXMXW.OXhXe.DXDXDXDXDXDXDXDX",
"DXDXDXDXDXDXDXDXDXb 4 7 N K 8 V c.1X{.;.0.~.hXCXhXZXwX&.W.ZXMXhXNX/.`.hXB.DXDXDXDXDXDXDXDX",
"DXDXDXDXDXDXDXDXb 7 n F T K 9 H 1X1Xu.z 8.v.*XNXhXVXhX,.;.uXNXMXNX@X`.hXJ.DXDXDXDXDXDXDXDX",
"DXDXDXDXDXDXDXDX6 7 N K T Z 6 N c.v.:.( ,.y.~.hXNXMXCXs.z /.NXNXNX*X^.hXI.DXDXDXDXDXDXDXDX",
"DXDXDXDXDXDXDXb 7 N Z L U S 4 4 P y.y.] ] v.~.9XMXMXZX`.l r.uXCXNXeX`.hX/.DXDXDXDXDXDXDXDX",
"DXDXDXDXDXDX6 n M F F T L C 7 v L t.y.k ] I.<XsXhXMXVXtX>.,.@XMXVXgX+XhX&Xj DXDXDXDXDXDXDX",
"DXDXDXDXDXDX6 n m S U T R C 4 4 P 0.p.%.;.v.eXZXhXhXNXsXW.3.~.uXCXsX+XhXuXj DXDXDXDXDXDXDX",
"DXDXDXDXDX. 7 M N K T T U C 4 4 P y.p.3.:.v.9XZXhXhXMXdX`.I.W.@XhXMX/.eXhX$.DXDXDXDXDXDXDX",
"DXDXDXDXDX9 7 M F U L U U M 9 v P y.p.,.] 0.OXMXMXhXMXhX/.+X9X<XuXNXv.+XNX,.DXDXDXDXDXDXDX",
"DXDXDXDX8 4 n 7 L L n R R 7 4 n H p.d.0.l &.~.sXCXhXhXCX@X`.MXVXhXCX^.Q.MXs.DXDXDXDXDXDXDX",
"DXDXDXDX6 4 N Z T F n L K 7 n c A p.s.p.%.k I.tXZXhXhXNXhX`.<XNXMXZX@XR.MXE.DXDXDXDXDXDXDX",
"DXDXDXDX> 7 F H U N M R F M M n H p.p.a.:.z y.eXNXhXhXMXCX<X+XdXNXNXeXd.hX`.DXDXDXDXDXDXDX",
"DXDXDX6 > N V F U n M U F N n M *.p.p.p.,.z t.9XZXhXhXhXNXfX%XaXNXNXgXv.uX@XDXDXDXDXDXDXDX",
"DXDXDX> 6 F 8 F K 7 m T R K c N 3.I.I.p.0.k >.<XVXNXMXNXNX4XOXuXMXMXhX~.eX/.DXDXDXDXDXDXDX",
"DXDXDX> m L 5 L F 4 F Y T F v S 3.~.^.y.0.&.,.~.9XuXcXCX$X;.`.CXMXMXMX`.eXoXDXDXDXDXDXDXDX",
"DXDXDX9 K L 6 L M 7 F Y U F v C >.`.@Xy.0.&.,.p.d.I.`.!.O.r a.NXNXMXMX^.<X&X$.DXDXDXDXDXDX",
"DXDX@ 7 R K 8 U M 7 L T U N 7 8 ,.*X*Xt.p.;.l ] ;.;./ r _ _ u #XZXNXMXd.+XeX>.DXDXDXDXDXDX",
"DXDX> M U F F U M 7 R T U N 7 8 0.9XuXp.t.p.&.w q r 0 E F.G.! i.MXZXMXv.oXgXe.DXDXDXDXDXDX",
"DXDX9 F T F L T N M U T U M 4 d a.wXNX^.0.d.a.( 0 E ! F.G.G.' ( <XZXCXB.`.hX*.DXDXDXDXDXDX",
"DXm 9 F U V K U N m T T L n > k E.9XZXeXv.t.s.,.w ! G.G.G.G.F.! ^.ZXVXd.^.CX>.DXDXDXDXDXDX",
"DXm 9 F T 8 M U F 8 L T U v @ ] W.eXZXaXI.0.p.t.u E H.G.G.F.G.` v.MXZXs.Q.ZXR.DXDXDXDXDXDX",
"DX9 > K L 4 n R C 4 8 R U 7 @ s `.NXZXeXd.t.p.p.-.r _ G.F.` l K b.aXNXy.OXAXR.DXDXDXDXDXDX",
"DX. > K F 7 M L L 7 7 U U 7   $ oXhXNXhX'.f.t.s.s.l r Q s 2 B g.M.#XuX:.W.+Xz DXDXDXDXDXDX",
"DX  @ K L 7 7 C K 7 m T L 4   & ,.a.XX9XXXx.{ q.a.*.1 4 3 B l.Z.Z.N.v.a ] q.[ DXDXDXDXDXDX",
"DXDXX N T V 4 7 7 6 F Y K >   [ x.x.U.0XU.x.m.m.m.[ N B K l.[.D.D.A.H x } Y.{ DXDXDXDXDXDX",
"DXDX  6 T L F C N N L L 7 o DX] x.P.0X0XU.P.P.L.L.{ 4 c g.Z.D.Z.Z.D.c.[ { ( DXDXDXDXDXDXDX",
"DXDX  o K g.g.Y U L F 6 o DXDXp z z [ :.;.0.q.q.y.&.1 3 N M.S.Z.Z.S.S.h.& DXDXDXDXDXDXDXDX",
"DXDXDX  @ K Y K C m > X   DXDX| h a a s a j j h | $.z 1 B K T V.Z.Z.D.D.A DXDXDXDXDXDXDXDX",
"DXDXDXDX  1 M 7 9 .     DXDXj :.%.%.l | %.%.$.%.%.&.D s 3 N z.S.S.D.D.A.6.&.DXDXDXDXDXDXDX",
"DXDXDXDXDXDXX @ 6 DXDXDXDXDXX D r.!.T.(.oX$X+XOX=Xr.D j 2 c g.V.Z.A.z.V B.9XDXDXDXDXDXDXDX",
"DXDXDXDXDXDXDXDXDXDXDXDXDXDXX a T.tXyXtXtXpXtXaXaX(.$.( f 3 B F K Z > . J.mXv.DXDXDXDXDXDX",
"DXDXDXDXDXDXDXDXDXDXDXDXDXDX. a f.yXtXrX4XrXwXwXtX*X>.j %.1.H 5 ; @ & . j wX=XDXDXDXDXDXDX",
"DXDXDXDXDXDXDXDXDXDXDXDXDXDXX a e.7XrXqXqX4X7XqXrXtX!.D %.d.%.% $ % i % . !.pX>.DXDXDXDXDX",
"DXDXDXDXDXDXDXDXDXDXDXDXDXDXDXp :.oXpX4XqXqXqXwXqXtX7Xs.$.| l h p % p :.p :.aX/.DXDXDXDXDX",
"DXDXDXDXDXDXDXDXDXDXDXDXDXDXDX$ l f.wXtXqXwXwXwX4XqXtXwXd.a a D p % p k p p OXqXDXDXDXDXDX",
"DXDXDXDXDXDXDXDXDXDXDXDXDXDXDXX h %.T.pXyXwXwXwXwXqXwXpXE.a s D p % w 5 % . d.tX%.DXDXDXDX",
"DXDXDXDXDXDXDXDXDXDXDXDXDXDXDXDXs | | (.pX4XwXwXwXwXwXyXW.h h D w % % % a $ s.rX:.DXDXDXDX",
"DXDXDXDXDXDXDXDXDXDXDXDXDXDXDXDX$ | | :.oXpXwXwXwXwXwXtX/.D l a $ & . % l % e.&XDXDXDXDXDX",
"DXDXDXDXDXDXDXDXDXDXDXDXDXDXDXDXDXl %.D >.=XpXqX4XwXwXtX=X%.a p . & $ $ j $ ( %X>.DXDXDXDX",
"DXDXDXDXDXDXDXDXDXDXDXDXDXDXDXDXDXa | | h >.=XpXqXqXwXrXtXs.h p . | t.| %.. p =Xd.DXDXDXDX",
"DXDXDXDXDXDXDXDXDXDXDXDXDXDXDXDX=.j D >.| h >.=XiXyXwXwXpX).k a X -.(.,.;.. % =XoXDXDXDXDX",
"DXDXDXDXDXDXDXDXDXDXDXDXDXDXDXDX7.J $ e./.f.f :.oXyXwXqXpX+X$.k % $ $.p % . % OX+XDXDXDXDX",
"DXDXDXDXDXDXDXDXDXDXDXDXDXDXDXDX1.M.9 s +XpX).$.| (.yXrXyX&X:.D | & X * $ . % i.DXDXDXDXDX",
"DXDXDXDXDXDXDXDXDXDXDXDXDXDXDXDXf C.M.5 p T.pX%Xf.).rXrXyX7X>.k >.h X X . . ! W DXDXDXDXDX",
"DXDXDXDXDXDXDXDXDXDXDXDXDXDXDXDXf C.S.M.d X :.%XfXpXrXqXwXyXf.g / u # X . ! G.! DXDXDXDXDX",
"DXDXDXDXDXDXDXDXDXDXDXDXDXDXDXDX7.M.S.S.C.5.5 l !.yXtXyXwXaX Xu 0 r # % &.H.G.! DXDXDXDXDX",
"DXDXDXDXDXDXDXDXDXDXDXDXDXDXDXDX1.M.k.C.[.S.C.J D r.oXqXwXpX+XQ r r # A 8._ F._ X DXDXDXDX",
"DXDXDXDXDXDXDXDXDXDXDXDXDXDXDXDXl C.1.d k.[.S.S.M.J =.f.).=X).h r r # v.0.! G.F.* DXDXDXDX",
"DXDXDXDXDXDXDXDXDXDXDXDXDXDXDXDX@ k.M.5 5 5.[.:XS.S.M.M.C.|.u.u r 0 $ 0.( _ G.G.Q 1 DXDXDX",
"DXDXDXDXDXDXDXDXDXDXDXDXDXDXDXDXDXJ C.k.f d 5.[.3X;X;X2X4X2X}.| r * 1 l u F.G.G.) p % DXDX",
"DXDXDXDXDXDXDXDXDXDXDXDXDXDXDXDXDX5 5.C.M.6.G J C.4X2X2X3X2X).u 0 # %.>.t H.G.` g a p DXDX",
"DXDXDXDXDXDXDXDXDXDXDXDXDXDXDXDXDXDX5 k.S.}.}.7.=.C.;X;X3X2Xv.y # * d.d.u _ / 5 a ] D DXDX",
"DXDXDXDXDXDXDXDXDXDXDXDXDXDXDXDXDXDXDXl k.S.5X4X_.u.B.|.}.2XC.y   & y.8.w p a f k ,.,.DXDX",
"DXDXDXDXDXDXDXDXDXDXDXDXDXDXDXDXDXDXK.8.D J M.3XkX2X}.|._.{.C.p X % :.$.5 j l D *.t.,.DXDX",
"DXDXDXDXDXDXDXDXDXDXDXDXDXDXDXDXDXDXK..XK.( ] a.}.2X5X4X;X}.B.j . % $.$.s l | :.e.e.:.DXDX",
"DXDXDXDXDXDXDXDXDXDXDXDXDXDXDXDXDXDXw..X.X.Xi.-.>.B.}.3X3X5X{.l $ $ %.%.p ( e.e.e.e.%.DXDX",
"DXDXDXDXDXDXDXDXDXDXDXDXDXDXDXDXDXDXq..X.X7X$X.XT.w.!.{.{.3X_.a $ % $.D p &.e.>.e.e.%.DXDX",
"DXDXDXDXDXDXDXDXDXDXDXDXDXDXDXDXDXDX9.I.-XcXcXbXqX-X-X%X=X&XB.s . % s $ p &.e.e.e.e.%.DXDX",
"DXDXDXDXDXDXDXDXDXDXDXDXDXDXDXDXDXDXh I..XbXSXvXBXvXBXcXmXfXi.% $ p % $ s D >.e.e.e.$.DXDX",
"DXDXDXDXDXDXDXDXDXDXDXDXDXDXDXDXDXDXq K..X9XvXcXcXvXcXcXBXmX8.p $ % % % s D :.e.e.e.$.DXDX",
"DXDXDXDXDXDXDXDXDXDXDXDXDXDXDXDXDXDXDX-..X-XiXvXvXcXcXcXBXpX,.s p $ $ & p j :.e.e.D DXDXDX",
"DXDXDXDXDXDXDXDXDXDXDXDXDXDXDXDXDXDX*.A -.K. X7XcXvXcXcXcXmXf.a a s s a $.$.,.e.%.DXDXDXDX",
"DXDXDXDXDXDXDXDXDXDXDXDXDXDXDXDXDXd C.5.. h T.T.7XqXvXvXcXvXI.( j D %.e.e.e.e.&.DXDXDXDXDX",
"DXDXDXDXDXDXDXDXDXDXDXDXDXDXDXDXDXDX5.S.J @ h K.T..X7XiXvXSX Xg p h %.e.e.e.:.| DXDXDXDXDX",
"DXDXDXDXDXDXDXDXDXDXDXDXDXDXDXDXDXDXd C.;XM.G l 9.K.K..X7XBX$Xl h | f.w.:.:.$.DXDXDXDXDXDX",
"DXDXDXDXDXDXDXDXDXDXDXDXDXDXDXDXDXDXf M.:X2X[.k.] %.<.-.w.-X Xd.).T.(. Xf.a DXDXDXDXDXDXDX",
"DXDXDXDXDXDXDXDXDXDXDXDXDXDXDXDXDX. f S.C.M.|.;XC.M.u.3.[ <.>.!.qXqXpXBX&XDXDXDXDXDXDXDXDX",
"DXDXDXDXDXDXDXDXDXDXDXDXDXDXDXDXDX&.1 M.C.M.=.k.[.2X2X;X_.B.B.7. XmXAXAXtXDXDXDXDXDXDXDXDX",
"DXDXDXDXDXDXDXDXDXDXDXDXDXDXDXDXDXDXs 5 5.C.C.6.7.B.}.2X5X5X2XJ T.SXAXwXDXDXDXDXDXDXDXDXDX",
"DXDXDXDXDXDXDXDXDXDXDXDXDXDXDXDXDXDX9.  % J Z.S.C.u.B.|.}.2X;X>. XfX&X>.DXDXDXDXDXDXDXDXDX",
"DXDXDXDXDXDXDXDXDXDXDXDXDXDXDXDXDXDXk q q * G C.2X3X}.}.}.2XC.f.(.+XDXDXDXDXDXDXDXDXDXDXDX",
"DXDXDXDXDXDXDXDXDXDXDXDXDXDXDXDXDXi.  W ^ q . l M.2X5X5X4X2X|.D DXDXDXDXDXDXDXDXDXDXDXDXDX",
"DXDXDXDXDXDXDXDXDXDXDXDXDXDXDXDXDX| 0 o. .^ r q i %.B.,X2X5X}.DXDXDXDXDXDXDXDXDXDXDXDXDXDX",
"DXDXDXDXDXDXDXDXDXDXDXDXDXDXDXDXDXh y X.#. .~ ^ y q w | s.B.M.DXDXDXDXDXDXDXDXDXDXDXDXDXDX",
"DXDXDXDXDXDXDXDXDXDXDXDXDXDXDXDXR.9.r ^ X.....o...~ W e y w i DXDXDXDXDXDXDXDXDXDXDXDXDXDX",
"DXDXDXDXDXDXDXDXDXDXDXDXDXDX| ).pXoXq y ^  .+.+.@.@.o. .~ y DXDXDXDXDXDXDXDXDXDXDXDXDXDXDX",
"DXDXDXDXDXDXDXDXDXDXDXDXDXDXw.T.-X Xy y W W X.@.o.o.o.@.#.) DXDXDXDXDXDXDXDXDXDXDXDXDXDXDX",
"DXDXDXDXDXDXDXDXDXDXDXDXDXDX!.T.T.T./ y y e ) @.o.o.o.o.@.Q DXDXDXDXDXDXDXDXDXDXDXDXDXDXDX",
"DXDXDXDXDXDXDXDXDXDXDXDXDXd.=XqXpXqX9.r W y ) +.o...o.+.@.Q DXDXDXDXDXDXDXDXDXDXDXDXDXDXDX",
"DXDXDXDXDXDXDXDXDXDXDXDXT.7XqXbXAXVXi.r ^ ~ X.o.o.o.o.o.@.u DXDXDXDXDXDXDXDXDXDXDXDXDXDXDX",
"DXDXDXDXDXDXDXDXDXDXDX XqXqXqXAXAXAXJ.0 ~ X.X.o.o.o.o.o.@.Q DXDXDXDXDXDXDXDXDXDXDXDXDXDXDX",
"DXDXDXDXDXDXDXDXDXDXDX$XbXqXqXmXAXAXd.0  .X.X.o.o...o.o.@.Q DXDXDXDXDXDXDXDXDXDXDXDXDXDXDX",
"DXDXDXDXDXDXDXDXDXDXDX,.T.-XqXbXAXaX-.0 X...X.o.o.o.o.o.o.Q DXDXDXDXDXDXDXDXDXDXDXDXDXDXDX",
"DXDXDXDXDXDXDXDXDXDX% | D =.d.T.^.3.i y  ...X.+.o.o.o.o.+.Q DXDXDXDXDXDXDXDXDXDXDXDXDXDXDX",
"DXDXDXDXDXDXDXDXDXDXDXs 9 7 n V V < * W  ...X...o.o...o.o.Q DXDXDXDXDXDXDXDXDXDXDXDXDXDXDX",
"DXDXDXDXDXDXDXDXDXDXDXDX@ 9 7 7 v n 5 y ) ..X.+.o.o.o.+.o./ DXDXDXDXDXDXDXDXDXDXDXDXDXDXDX",
"DXDXDXDXDXDXDXDXDXDXDXDXDXDX@ @ 6 4 % W  ...X...o.o...o.o.) DXDXDXDXDXDXDXDXDXDXDXDXDXDXDX",
"DXDXDXDXDXDXDXDXDXDXDXDXDXDXDXDXDXDXq W  ...X...o.o.o.o.o.) DXDXDXDXDXDXDXDXDXDXDXDXDXDXDX",
"DXDXDXDXDXDXDXDXDXDXDXDXDXDXDXDXDXDXq W X...X.+.o.o.o.o.@.) DXDXDXDXDXDXDXDXDXDXDXDXDXDXDX",
"DXDXDXDXDXDXDXDXDXDXDXDXDXDXDXDXDXDXq W X.X. ...o.o.o.o.o.X.w DXDXDXDXDXDXDXDXDXDXDXDXDXDX",
"DXDXDXDXDXDXDXDXDXDXDXDXDXDXDXDXDXDXw W X.) ) o.o.o.o...o.o.Q DXDXDXDXDXDXDXDXDXDXDXDXDXDX",
"DXDXDXDXDXDXDXDXDXDXDXDXDXDXDXDXDXDX( y  .X.Q o.o.o.o.o.o.#.` * DXDXDXDXDXDXDXDXDXDXDXDXDX",
"DXDXDXDXDXDXDXDXDXDXDXDXDXDXDXDXDXDXG y  .X.) o.o.o.o.o.o.X.! # DXDXDXDXDXDXDXDXDXDXDXDXDX",
"DXDXDXDXDXDXDXDXDXDXDXDXDXDXDXDXDXDXA r  . .) o.o.o.@...~ W E s DXDXDXDXDXDXDXDXDXDXDXDXDX",
"DXDXDXDXDXDXDXDXDXDXDXDXDXDXDXDXDXDXw y  .o.X.o.@.o. .W e / W.,XQ.DXDXDXDXDXDXDXDXDXDXDXDX",
"DXDXDXDXDXDXDXDXDXDXDXDXDXDXDXDXDXDX. W  .@.o.@.o.~ W r | #XgXlXjX#Xu.w DXDXDXDXDXDXDXDXDX",
"DXDXDXDXDXDXDXDXDXDXDXDXDXDXDXDXDXDX# ^ X.@.@.X.W r 0 :.}.jXzXxXxX5X'.G 6 1 DXDXDXDXDXDXDX",
"DXDXDXDXDXDXDXDXDXDXDXDXDXDXDXDXDXDXy ^ o.o. .~ / $.7.Z.;X|.Q.B.u.3.4.2.h.2.4.S DXDXDXDXDX",
"DXDXDXDXDXDXDXDXDXDXDXDXDXDXDXDXDX# y ~ ~ W q u :.6.1.*.A V H 2.2.2.h.h.j.j.h.h.H DXDXDXDX",
"DXDXDXDXDXDXDXDXDXDXDXDXDXDXDXDXDXq q y y u h s 8 8 6 6 4 7 K h.j.h.j.j.j.j.c.n.H DXDXDXDX",
"DXDXDXDXDXDXDXDXDXDXDXDXDXDXDXDXDXDXy u w l l & > 6 1 > > 8 n F j.c.c.l.j.h.P V & DXDXDXDX",
"DXDXDXDXDXDXDXDXDXDXDXDXDXDXDXDXDXDXDXDXDXDXDXDXDXDXDXDXDX1 o 1 2 V S S 1 $ DXDXDXDXDXDXDX",
"DXDXDXDXDXDXDXDXDXDXDXDXDXDXDXDXDXDXDXDXDXDXDXDXDXDXDXDXDXDXDXDXDXDXDXDXDXDXDXDXDXDXDXDXDX"
};
