/* XPM */
static char *result[] = {
/* columns rows colors chars-per-pixel */
"125 150 28 1 ",
"  c #040303",
". c #1E0F06",
"X c #0E1213",
"o c #34190E",
"O c #1C2324",
"+ c #293334",
"@ c #482C19",
"# c #5E3D23",
"$ c #794D29",
"% c #3A4344",
"& c #4E5654",
"* c #676A67",
"= c #905C34",
"- c #A4683C",
"; c #B57344",
": c #C67F4E",
"> c #D78C5A",
", c #E89B68",
"< c #F5AA79",
"1 c #8C8782",
"2 c #ADA8A4",
"3 c #FDE594",
"4 c #CDC9C6",
"5 c #E6E6E6",
"6 c #EEEFEE",
"7 c #F6F7F6",
"8 c white",
"9 c None",
/* pixels */
"99999999999999999999999999999999999999999999999999999999999999999999999999999999999999999999999999999999999999999999999999999",
"99999999999999999999999999999999999999999999999999999999999999999999999999999999999999999999999999999999999999999999999999999",
"99999999999999999999999999999999999999999999999999999999999999999999999999999999999999999999999999999999999999999999999999999",
"99999999999999999999999999999999999999999999999999999999999999999999999999999999999999999999999999999999999999999999999999999",
"99999999999999999999999999999999999999999999999999999999999999999999999999999999999999999999999999999999999999999999999999999",
"99999999999999999999999999999999999999999999999999999999999999999999999999999999999999999999999999999999999999999999999999999",
"99999999999999999999999999999999999999999999999999999999999999999999999999999999999999999999999999999999999999999999999999999",
"99999999999999999999999999999999999999999999999999999999999999999999999999999999999999999999999999999999999999999999999999999",
"99999999999999999999999999999999999999999999999999999999999999999999999999999999999999999999999999999999999999999999999999999",
"99999999999999999999999999999999999999999999999999999999999999999999999999999999999999999999999999999999999999999999999999999",
"99999999999999999999999999999999999999999999999999999999999999999999999999999999999999999999999999999999999999999999999999999",
"99999999999999999999999999999999999999999999999999999999999999999999999999999999999999999999999999999999999999999999999999999",
"99999999999999999999999999999999999999999999999999999999999999999999999999999999999999999999999999999999999999999999999999999",
"99999999999999999999999999999999999999999999999999999999999999999999999999999999999999999999999999999999999999999999999999999",
"99999999999999999999999999999999999999999999999999999999999999999999999999999999999999999999999999999999999999999999999999999",
"99999999999999999999999999999999999999999999999999999999999999999999999999999999999999999999999999999999999999999999999999999",
"99999999999999999999999999999999999999999999999999999999999999999999999999999999999999999999999999999999999999999999999999999",
"99999999999999999999999999999999999999999999999999999999999999999999999999999999999999999999999999999999999999999999999999999",
"99999999999999999999999999999999999999999999999999999999999999999999999999999999999999999999999999999999999999999999999999999",
"99999999999999999999999999999999999999999999999999999999999999999999999999999999999999999999999999999999999999999999999999999",
"99999999655576999999999999999999999999999999999999999999999999999999999999999999999999999999999999999999999999999999999999999",
"999996641&&*24689999999999999999999999999999999999999999999999999999999999999999999999999999999999999999999999999999999999999",
"9999652&+++OO%188999999999999999999999999999999999999999999999999999999999999999999999999999999999999999999999999999999999999",
"999964%O%+XX  X17999999999999999999999999999999999999999999999999999999999999999999999999999999999999999999999999999999999999",
"999961O%+XXOOX  1899999999999999999999999999999999999999999999999999999999999999999999999999999999999999999999999999999999999",
"99995&X+XXOO++O %699999999999999999999999999999999999999999999999999999999999999999999999999999999999999999999999999999999999",
"99995&XO X++O+%XX499999999999999999999999999999999999999999999999999999999999999999999999999999999999999999999999999999999999",
"99995&   XO+++%+X*99999999999999999999999999999999999999999999999999999999999999999999999999999999999999999999999999999999999",
"99995%   XX++OX  X*9999999999999999999999999999999999999999999999999999999999999999999999999999999999999999999999999999999999",
"99994O.o XXO+OXXX X*999999999999999999999999999999999999999999999999999999999999999999999999999999999999999999999999999999999",
"99994X.o. XO+%+OXXXX*99999999999999999999999999999999999999999999999999999999999999999999999999999999999999999999999999999999",
"99994 .oo  XX++OOXXXX&9999999999999999999999999999999999999999999999999999999999999999999999999999999999999999999999999999999",
"99992 ..o. XXO++OOXOXX&999999999999999999999999999999999999999999999999999999999999999999999999999999999999999999999999999999",
"99992 ..oo XXX+++OOOOOX&49999999999999999999999999999999999999999999999999999999999999999999999999999999999999999999999999999",
"99992 ..oo. XXO++OOOOOOX&4999999999999999999999999999999999999999999999999999999999999999999999999999999999999999999999999999",
"99992 ....o XXXO+++OOO+OX&999999999999999999999999999999999999999999999999999999999999999999999999999999999999999999999999999",
"99994  ...o. XXOO++O+OO+OX&99999999999999999999999999999999999999999999999999999999999999999999999999999999999999999999999999",
"99995O ...oo.XXXO+++++O++OX%9999999999999999999999999999999999999999999999999999999999999999999999999999999999999999999999999",
"99999& ....o. XXOO+++O+O++OX%499999999999999999999999999999999999999999999999999999999999999999999999999999999999999999999999",
"999992. ...oo.XXXX++++++O++OX%49999999999999999999999999999999999999999999999999999999999999999999999999999999999999999999999",
"999999* ....o. XXOO++++O++++OX%4999999999999999999999999999999999999999999999999999999999999999999999999999999999999999999999",
"9999995o ....o XXXXO+%++O++++OO%129999999999999999999999999999999999999999999999999999999999999999999999999999999999999999999",
"9999999*  ..... XXOXO++++++++OOOO+*999999999999999999999999999999999999999999999999999999999999999999999999999999999999999999",
"99999994o ....o. XXOOO+%++++O+++OOX&99999999999999999999999999999999999999999999999999999999999999999999999999999999999999999",
"99999999* . ..o. XXOOX+%%+%+++++++OX*9999999999999999999999999999999999999999999999999999999999999999999999999999999999999999",
"999999992. ....o. XOOXX+%%&%%+++OO+OO*999999999999999999999999999999999999999999999999999999999999999999999999999999999999999",
"999999999% . ..oo.XXXXXO+&&&+X        *99999999999999999999999999999999999999999999999999999999999999999999999999999999999999",
"9999999991  ....o. XOXXXO%+X          X99999999999999999999999999999999999999999999999999999999999999999999999999999999999999",
"9999999999%  ....o.XOOOXOOO  X+%%+X    29999999999999999999999999999999999999999999999999999999999999999999999999999999999999",
"99999999991 .....oo+OOOOXXX  +%%+%+X   19999999999999999999999999999999999999999999999999999999999999999999999999999999999999",
"99999999994+ .....O+  OOOO+XXX+%%%%+O  &9999999999999999999999999999999999999999999999999999999999999999999999999999999999999",
"99999999999* .....OX  XOOO%%O O%%%%%+XXO1999999999999999999999999999999999999999999999999999999999999999999999999999999999999",
"999999999994o .....  XXX++%%%OXO%%%%%OXX+999999999999999999999999999999999999999999999999999999999999999999999999999999999999",
"999999999999* ....O   XXO%++%%XO+%&%%%+X %99999999999999999999999999999999999999999999999999999999999999999999999999999999999",
"9999999999992o ...X  XXXX+%++%+OO%&&&&%+X &9999999999999999999999999999999999999999999999999999999999999999999999999999999999",
"9999999999999&....X    XXO++++%+O+%&&&&%+XX1999999999999999999999999999999999999999999999999999999999999999999999999999999999",
"99999999999992o ..X  XXXXXO%+O+++O+%&&&&%OXO199999999999999999999999999999999999999999999999999999999999999999999999999999999",
"99999999999999& ..X   XXXXX+%++++OO+&&&&&%OX+29999999999999999999999999999999999999999999999999999999999999999999999999999999",
"999999999999991. .X  XXXXXXX+%+O++O+%&&&&%%OX%4999999999999999999999999999999999999999999999999999999999999999999999999999999",
"999999999999995% .X  XXX XXXO%+++++O+%&&&&%+OX&999999999999999999999999999999999999999999999999999999999999999999999999999999",
"9999999999999991..X  XXXXXXXXO%+O+++O%&&&&&&+OX&99999999999999999999999999999999999999999999999999999999999999999999999999999",
"9999999999999999@ X X X X XXXX+%+O++++%&*&&&%+OO*9999999999999999999999999999999999999999999999999999999999999999999999999999",
"99999999999999991.   XXXXX XXXO+++O+%++&&&*&&%+OO1999999999999999999999999999999999999999999999999999999999999999999999999999",
"99999999999999994+ X XX  XXXXXXO%+O++%++%&*&&&%OX+**9999999999999999999999999999999999999999999999999999999999999999999999999",
"99999999999999996*X  XXXXX XXXXX++++++++O+&*&&&%X O+&999999999999999999999999999999999999999999999999999999999999999999999999",
"999999999999999972O  XXXXXXXXXXXO+++%+O%+X+&*&&&%  O+*99999999999999999999999999999999999999999999999999999999999999999999999",
"999999999999999994+  XXXX XXXXXXXO+%+XO+&+O%*&&&&+ O%+99999999999999999999999999999999999999999999999999999999999999999999999",
"999999999999999995%  XXXXXXXXXXXXXO++XXO&+ O&&*&&%+O+ %9999999999999999999999999999999999999999999999999999999999999999999999",
"9999999999999999991X  XXXX XXXXXXXO++XX+&X O&*&&&&%+X X9999999999999999999999999999999999999999999999999999999999999999999999",
"99999999999999999999  XXXXXXXXXXXXXO+O XO  +&****&&%+XX&999999999999999999999999999999999999999999999999999999999999999999999",
"999999999999999999991X XXXXXXXXXXXXXO+OX X++%*1****&%+OO199999999999999999999999999999999999999999999999999999999999999999999",
"999999999999999999996* XXXX XX XXXXXO++OOOO+%*11**&%%%+O+19999999999999999999999999999999999999999999999999999999999999999999",
"9999999999999999999994O XXXXXXXXXXXXXO++OOO+%*11*+X  XO+O+2999999999999999999999999999999999999999999999999999999999999999999",
"9999999999999999999996* XXXXXXXXXXXXXXO%+OO+%&**+XX.XX.OO O299999999999999999999999999999999999999999999999999999999999999999",
"99999999999999999999994O XXXXXXXXXXXXXX++OO++%%+ XOXOOXXOOX%99999999999999999999999999999999999999999999999999999999999999999",
"999999999999999999999981 XXXXXXXXXXXXXXO++O++XXX  OXOOXO+OO +9999999999999999999999999999999999999999999999999999999999999999",
"999999999999999999999994O XXXXXXXXXXXXXXO%+&%OXX XX.O.OOOOXX *999999999999999999999999999999999999999999999999999999999999999",
"999999999999999999999998* XXXXXXXXXXXXXXX+%&+OXXX XXXXX++OXX X299999999999999999999999999999999999999999999999999999999999999",
"9999999999999999999999994O XXXXXXXXXXXXXXO%&%OOXX  XXXX%+OXXX %99999999999999999999999999999999999999999999999999999999999999",
"9999999999999999999999998* XXXXX.XXXXXXXO+&&+OOX   XX X++OXXX  19999999999999999999999999999999999999999999999999999999999999",
"99999999999999999999999994X XXXXX XXXXX O%%+OOXX    X X+%OXXXX +9999999999999999999999999999999999999999999999999999999999999",
"99999999999999999999999997* XXXO+O   XXXO&%++OOXXX    X+&+OXXX X9999999999999999999999999999999999999999999999999999999999999",
"999999999999999999999999992X XXO%%X  X X+&%+++OXXX     +&%OXXX  9999999999999999999999999999999999999999999999999999999999999",
"999999999999999999999999999& XX X%+   XO+%%O+++OXX     O&%+XXX  2999999999999999999999999999999999999999999999999999999999999",
"9999999999999999999999999992 XX  O&X   O+&&%%++OXX     X&&+XXX  1999999999999999999999999999999999999999999999999999999999999",
"9999999999999999999999999995+ X  X&+   O+&%%%%+OXX     X&&+XXX  *999999999999999999999999999999999999999999999999999999999999",
"9999999999999999999999999999*     %&X  O+%%%%%%%OXX     %&+OXX  &999999999999999999999999999999999999999999999999999999999999",
"99999999999999999999999999992     +&X  O+%%&%&%%OXX     %*%OXX  +999999999999999999999999999999999999999999999999999999999999",
"99999999999999999999999999995+    O&O  OO%%%%&&%+XX     O*&+XX  X999999999999999999999999999999999999999999999999999999999999",
"99999999999999999999999999999*    O&+  OO%%%&&&%+OX   X X+OXXXX  499999999999999999999999999999999999999999999999999999999999",
"999999999999999999999999999992X   X%O  XO%%%&%&%+OX  O%%OOXXOXX  299999999999999999999999999999999999999999999999999999999999",
"999999999999999999999999999999&   X+O  XO+++&&&&%+XXXO%*%OXXXXX  199999999999999999999999999999999999999999999999999999999999",
"999999999999999999999999999999*   XOO  XO+++&&%%%%OOO.%*&OXXXOX  &99999999999999999999999999999999999999999999999999999999999",
"9999999999999999999999999999991X O+X  XXO++%%%%%%%OOO.+*&+X XXX  O99999999999999999999999999999999999999999999999999999999999",
"9999999999999999999999999999992OX ++X XOX+O%%&%%%%+OOXO**+XXXX X  49999999999999999999999999999999999999999999999999999999999",
"9999999999999999999999999999992%O     XOXO++&%%%%&%OO..&*%OX  X   29999999999999999999999999999999999999999999999999999999999",
"9999999999999999999999999999994%+  X  XXO+++%&%&%&%+OX %*&OXX X   *9999999999999999999999999999999999999999999999999999999999",
"9999999999999999999999999999999&O  X  XXXO++%%%%%&%%OX +*&OX   X  %9999999999999999999999999999999999999999999999999999999999",
"9999999999999999999999999999999&X  X  XOXO+++%%%%%&%+OXO&%+X   X   4999999999999999999999999999999999999999999999999999999999",
"99999999999999999999999999999991  XX  XXXX++O%%%%%&%%+OX++OXX  XX  *999999999999999999999999999999999999999999999999999999999",
"99999999999999999999999999999992O XX  XOXOO+++%%%%%%%+OXO+OOX XXX  X999999999999999999999999999999999999999999999999999999999",
"99999999999999999999999999999995% X   XXXXO+++%%%%%%&%+X.%+OOX XXX  *99999999999999999999999999999999999999999999999999999999",
"999999999999999999999999999999991X    XOX  +++++%%%&*&%+X+&%+OXXXX  O99999999999999999999999999999999999999999999999999999999",
"9999999999999999999999999999999991+O  XXX  O+++++&&&*&&+OO**%OXXOXX  19999999999999999999999999999999999999999999999999999999",
"999999999999999999999999999999999992O XO ..O%++++%&&&&%+OX&*%OOXXXX  +9999999999999999999999999999999999999999999999999999999",
"999999999999999999999999999999999996& XX ...+++O+%%&%&%%OX+%OX  XXX   1999999999999999999999999999999999999999999999999999999",
"9999999999999999999999999999999999992X X  ..O++O+++&&&&&%OXX     XOX  +499999999999999999999999999999999999999999999999999999",
"9999999999999999999999999999999999995% X ...O+++OO++&&&&%+OXXX  XXXX   299999999999999999999999999999999999999999999999999999",
"99999999999999999999999999999999999991O  .oo.+++++O+%&%&&%+OXXX XXXOX  299999999999999999999999999999999999999999999999999999",
"99999999999999999999999999999999999994+  .oo.O%+++O++%%%&&+OOXOXXOXOX  199999999999999999999999999999999999999999999999999999",
"99999999999999999999999999999999999994+  ..o.o%%+++++%&%&&%+OOOOOOOXO  %99999999999999999999999999999999999999999999999999999",
"99999999999999999999999999999999999994O  .o.o.O++++%++OO%&%++++OOOOOOX  19999999999999999999999999999999999999999999999999999",
"99999999999999999999999999999999999994+.o@@ooo.  XXX XX O&&%++O++OOOOX  &9999999999999999999999999999999999999999999999999999",
"999999999999999999999999999999999974&@@#$$$=#o......X.ooO&*%++++O++OOO. .2999999999999999999999999999999999999999999999999999",
"99999999999999999999999999999999994*@#$$$$=;-=@@#..o@o+@.+&&%+++++O+OOX  %299999999999999999999999999999999999999999999999999",
"9999999999999999999999999999999995*.$-==-;;>,<,:>#@o@@o+oO&&%++++O+OOO@@###19999999999999999999999999999999999999999999999999",
"9999999999999999999999999999999991o#-;=;:,>,<<333<>:;$##OX%&%+++O+$=;===;:--7999999999999999999999999999999999999999999999999",
"999999999999999999999999999999999#$$===-:>>,<33<<<<<<<>;-#@&%%&=:::===;::::=$299999999999999999999999999999999999999999999999",
"999999999999999999999999999999951$-=$#$=;;;><3<<<<>:>>,>:;-==--=====-:>:::;-=:44999999999999999999999999999999999999999999999",
"99999999999999999999999999999999#$-$@@@$-;;:<3,,,:>:::::>:;-=-===$$=:>>:-;-==$=$199999999999999999999999999999999999999999999",
"99999999999999999999999999999999@$#oo.o$=-;;,<,>:;:>:::;-;:;;;;;;===-;:;-=-===$$#$9999999999999999999999999999999999999999999",
"9999999999999999999999999999999###@ooXo$=--;:>::::::-;:>:;;;;::;:;-=----=====$$$##*999999999999999999999999999999999999999999",
"9999999999999999999999999999999##@oOO..#==--;>>>::-;;>,<<>:;----;:;------=====$$##.999999999999999999999999999999999999999999",
"9999999999999999999999999999991.@@XXX .#$=--;:>>>:-;:>,<<,>:;--;;;---=$=====$$####.*99999999999999999999999999999999999999999",
"9999999999999999999999999999992 #o    .@$=-=;:>>::--:><<<,>;---;;-;;===$$$$$$###=$o+99999999999999999999999999999999999999999",
"9999999999999999999999999999999@@..    @#===-:::;;-=:,,>:---;:;:---;===-===##$$$-=@.99999999999999999999999999999999999999999",
"9999999999999999999999999999999=.oo XX o#$$=-;;:;;=$;>:-==;::::;--;;;-;---;==$$=;-@X29999999999999999999999999999999999999999",
"99999999999999999999999999999999*=*191..##$$-;;:;;$$-;-=->>:-==->,<>>::-----;---;;$o*9999999999999999999999999999999999999999",
"99999999999999999999999999999999999999* o@#$=-;;:;$#$=-;::--;-;>,::;;---;=-===;;::=@%9999999999999999999999999999999999999999",
"999999999999999999999999999999999999999&.o#$$=----#@@$=::$$;>>>>;=-;:>,>>,,:=$$-;:-#O9999999999999999999999999999999999999999",
"9999999999999999999999999999999999999999X o@@$$==-$oo$--=$;>;;--;>,>>:::><<,,>=$$;;#.2999999999999999999999999999999999999999",
"9999999999999999999999999999999999999999O .o@#$$==$@@=;=$;,:-:::,,:-$@@$$$$;>,,;$$$#o*999999999999999999999999999999999999999",
"9999999999999999999999999999999999999999% Xo@@#$$=#@#=$@=;-;::::--$$$$====$=-;:;-=$$##999999999999999999999999999999999999999",
"9999999999999999999999999999999999999999*X Xo@@#####$#@#-;---=$$$==-:::><<<,:$#=--$##o999999999999999999999999999999999999999",
"99999999999999999999999999999999999999992O   ooo#@@##o.$=--=$##$=;:>>>,<<<<<>:;;:;=$#.249999999999999999999999999999999999999",
"99999999999999999999999999999999999999994+   X. .o@@@.@$=-=$$$$=;;---==-,<3<<>>:;--;-####199999999999999999999999999999999999",
"99999999999999999999999999999999999999999&     .o@#@.@=-=$##=;::;$o@->,<<>:;=@o@###=;;--$##4299999999999999999999999999999999",
"99999999999999999999999999999999999999999*O#.  X@#@Xo$=#@#=;;:;=##->,>;-$##@#->>>,,,:;==$#.@@49999999999999999999999999999999",
"999999999999999999999999999999999999999992#-.   ooX #=#o@=;;=$#@#;:>:=@@$=>><<<,>-==$##$#@o..@1999999999999999999999999999999",
"999999999999999999999999999999999999999994+;-o    Xo$#o@$;;=##@=>>=#@$=;,<<<<;$#@@@@@####@o...@899999999999999999999999999999",
"999999999999999999999999999999999999999999%@#o.  oo@#@o#-;=#$;>>-#o$=;><3:==$####====;:>:$$oo..699999999999999999999999999999",
"999999999999999999999999999999999999999999*#@$@ .. @o.@$;:$$:,,-@@=:>>>>-#oo@#=;>>:-;,,,>=-;=oo499999999999999999999999999999",
"9999999999999999999999999999999999999999992$#-$.   X  #=>>;>,-#@#-,>,:$..@#$=$->,,,==>,>:=-,:$#*99999999999999999999999999999",
"9999999999999999999999999999999999999999994+@$>#     o#$;,,>$@@#;,,>-$o@$$====->::>==>:;;-:,-;=o@2999999999999999999999999999",
"9999999999999999999999999999999999999999997*.@-=     .#$-::$o#=:,>;$@o@#$=:>-$;>:>>-;,-;-=:,::;;$@=99999999999999999999999999",
"99999999999999999999999999999999999999999992Xoo@O.   X#$=;=o@->,:-$@.@#$=;>:;-:,,,>$:<-;-=:>>:;;$###1999999999999999999999999",
"99999999999999999999999999999999999999999994O .-@     o#$=@o=>::=#@  ##$=;:;-=;>>,:$;>==-;::;>>:;$##@@19999999999999999999999",
"99999999999999999999999999999999999999999999*%*<-+++O+&=-=#$><::;=$%%===;:>>:;>,,<,>,,;-:<>,<<>:<:;-1299999999999999999999999",
"99999999999999999999999999999999999999999999999999999999999999999999999999999999999999999999999999999999999999999999999999999",
"99999999999999999999999999999999999999999999999999999999999999999999999999999999999999999999999999999999999999999999999999999"
};
