/* XPM */
static char *result[] = {
/* columns rows colors chars-per-pixel */
"118 94 34 1 ",
"  c #202020",
". c #2C2C2C",
"X c gray22",
"o c #484848",
"O c gray33",
"+ c #646464",
"@ c gray44",
"# c #7C7C7C",
"$ c #980000",
"% c #A80000",
"& c #B00000",
"* c #C80000",
"= c #FC0000",
"- c #FC2020",
"; c #FC4040",
": c #FC5454",
"> c #FC5C5C",
", c #C87C4C",
"< c #FC7C7C",
"1 c #FCA470",
"2 c #FCFC54",
"3 c gray55",
"4 c #989898",
"5 c gray66",
"6 c #B4B4B4",
"7 c #FC9C9C",
"8 c #FCB8B8",
"9 c #C0C0C0",
"0 c #D0D0D0",
"q c gainsboro",
"w c #FCD8D8",
"e c #ECECEC",
"r c gray99",
"t c None",
/* pixels */
"tttttttttttttttttttttttttttttttttttttttttttttttttttttttttttttttttttttttttttttttttttttttttttttttttttttttttttttttttttttt",
"tttttttttttttttttttttttttttttttttttttttttttttttttttttttttt$$$ttttttttttttttttttttttttttttttttttttttttttttttttttttttttt",
"tttttttttttttttttttttttttttttttttttttttttttttttttttttttttt$$$ttttttttttttttttttttttttttttttttttttttttttttttttttttttttt",
"tttttttttttttttttttttttttttttttttttttttttttttttttttttttttt$$$ttttttttttttttttttttttttttttttttttttttttttttttttttttttttt",
"tttttttttttttttttttttttttttttttttttttttttttttttttttttttttt***ttttttttttttttttttttttttttttttttttttttttttttttttttttttttt",
"tttttttttttttttttttttttttttttttttttttttttttttttttttttttttt***ttttttttttttttttttttttttttttttttttttttttttttttttttttttttt",
"tttttttttttttttttttttttttttttttttttttttttttttttttttttttttt***ttttttttttttttttttttttttttttttttttttttttttttttttttttttttt",
"tttttttttttttttttttttttttttttttttttttttttttttttttttttttttt***ttttttttttttttttttttttttttttttttttttttttttttttttttttttttt",
"tttttttttttttttttttttttttttttttttttttttttttttttttttttttttt***ttttttttttttttttttttttttttttttttttttttttttttttttttttttttt",
"tttttttttttttttttttttttttttttttttttttttttttttttttttttttttt***ttttttttttttttttttttttttttttttttttttttttttttttttttttttttt",
"ttttttttttttttttttttttttttttttttttttttttttttttttttttttt$$$:::$$$tttttttttttttttttttttttttttttttttttttttttttttttttttttt",
"ttttttttttttttttttttttttttttttttttttttttttttttttttttttt$$$:::$$$tttttttttttttttttttttttttttttttttttttttttttttttttttttt",
"ttttttttttttttttttttttttttttttttttttttttttttttttttttttt$$$:::$$$tttttttttttttttttttttttttttttttttttttttttttttttttttttt",
"ttttttttttttttttttttttttttttttttttttttttttttttttttttttt&&&777&&&tttttt$$$$$$tttttttttttttttttttttttttttttttttttttttttt",
"ttttttttttttttttttttttttttttttttttttttttttttttttttttttt&&&777&&&tttttt$$$$$$tttttttttttttttttttttttttttttttttttttttttt",
"ttttttttttttttttttttttttttttttttttttttttttttttttttttttt&&&777&&&tttttt$$$$$$tttttttttttttttttttttttttttttttttttttttttt",
"tttttttttttttttttttttttttttttttttttttttttttttttttttt$$$***777***$$$$$$%%%$$$tttttttttttttttttttttttttttttttttttttttttt",
"tttttttttttttttttttttttttttttttttttttttttttttttttttt$$$***777***$$$$$$%%%$$$tttttttttttttttttttttttttttttttttttttttttt",
"tttttttttttttttttttttttttttttttttttttttttttttttttttt$$$***777***$$$$$$%%%$$$tttttttttttttttttttttttttttttttttttttttttt",
"ttttttttttttttttttttttttttttttttttttttttttttttttt$$$&&&---777---&&&:::***ttttttttttttttttttttttttttttttttttttttttttttt",
"ttttttttttttttttttttttttttttttttttttttttttttttttt$$$&&&---777---&&&:::***ttttttttttttttttttttttttttttttttttttttttttttt",
"ttttttttttttttttttttttttttttttttttttttttttttttttt$$$&&&---777---&&&:::***ttttttttttttttttttttttttttttttttttttttttttttt",
"ttttttttttttttttttttttttttttttttttttt$$$$$$tttttt***---:::222:::---***$$$ttttttttttttttttttttttttttttttttttttttttttttt",
"ttttttttttttttttttttttttttttttttttttt$$$$$$tttttt***---:::222:::---***$$$ttttttttttttttttttttttttttttttttttttttttttttt",
"ttttttttttttttttttttttttttttttttttttt$$$$$$tttttt***---:::222:::---***$$$ttttttttttttttttttttttttttttttttttttttttttttt",
"ttttttttttttttttttttttttttttttttttttt$$$*********777;;;:::222777:::---===%%%%%%$$$tttttttttttttttttttttttttttttttttttt",
"ttttttttttttttttttttttttttttttttttttt$$$*********777;;;:::222777:::---===%%%%%%$$$tttttttttttttttttttttttttttttttttttt",
"ttttttttttttttttttttttttttttttttttttt$$$*********777;;;:::222777:::---===%%%%%%$$$tttttttttttttttttttttttttttttttttttt",
"tttttttttttttttttttttttttttttttttttttttt***:::---777777888222888777:::---:::%%%ttttttttttttttttttttttttttttttttttttttt",
"tttttttttttttttttttttttttttttttttttttttt***:::---777777888222888777:::---:::%%%ttttttttttttttttttttttttttttttttttttttt",
"tttttttttttttttttttttttttttttttttttttttt***:::---777777888222888777:::---:::%%%ttttttttttttttttttttttttttttttttttttttt",
"tttttttttttttttttttttttttttttttttttttttt$$$%%%:::777222222rrr222222777:::===&&&ttttttttttttttttttttttttttttttttttttttt",
"tttttttttttttttttttttttttttttttttttttttt$$$%%%:::777222222rrr222222777:::===&&&ttttttttttttttttttttttttttttttttttttttt",
"tttttttttttttttttttttttttttttttttttttttt$$$%%%:::777222222rrr222222777:::===&&&ttttttttttttttttttttttttttttttttttttttt",
"tttttttttttttttttttttttttttttttttttttttt&&&***777222888222rrr222888:::;;;===***&&&tttttttttttttttttttttttttttttttttttt",
"tttttttttttttttttttttttttttttttttttttttt&&&***777222888222rrr222888:::;;;===***&&&tttttttttttttttttttttttttttttttttttt",
"tttttttttttttttttttttttttttttttttttttttt&&&***777222888222rrr222888:::;;;===***&&&tttttttttttttttttttttttttttttttttttt",
"ttttttttttttttttttttttttt$$$$$$$$$$$$&&&***>>>777222222222www222222222777;;;======******$$$$$$tttttttttttttttttttttttt",
"ttttttttttttttttttttttttt$$$$$$$$$$$$&&&***>>>777222222222www222222222777;;;======******$$$$$$tttttttttttttttttttttttt",
"ttttttttttttttttttttttttt$$$$$$$$$$$$&&&***>>>777222222222www222222222777;;;======******$$$$$$tttttttttttttttttttttttt",
"tttttttttttttttt$$$$$$$$$%%%******===>>>:::777222222222eee999eee222222222777777<<<<<<>>>;;;***%%%$$$$$$$$$tttttttttttt",
"tttttttttttttttt$$$$$$$$$%%%******===>>>:::777222222222eee999eee222222222777777<<<<<<>>>;;;***%%%$$$$$$$$$tttttttttttt",
"tttttttttttttttt$$$$$$$$$%%%******===>>>:::777222222222eee999eee222222222777777<<<<<<>>>;;;***%%%$$$$$$$$$tttttttttttt",
"tttt$$$$$$$$$%%%%%%***===::::::777222777222222222rrrwww999XXX999wwwrrr222222222222777777777777:::---***%%%%%%$$$$$$$$$",
"tttt$$$$$$$$$%%%%%%***===::::::777222777222222222rrrwww999XXX999wwwrrr222222222222777777777777:::---***%%%%%%$$$$$$$$$",
"tttt$$$$$$$$$%%%%%%***===::::::777222777222222222rrrwww999XXX999wwwrrr222222222222777777777777:::---***%%%%%%$$$$$$$$$",
"tttttttttttttttt$$$$$$$$$******===>>>>>>777777777222222444OOO444222222222777777<<<>>>;;;===***%%%$$$$$$$$$tttttttttttt",
"tttttttttttttttt$$$$$$$$$******===>>>>>>777777777222222444OOO444222222222777777<<<>>>;;;===***%%%$$$$$$$$$tttttttttttt",
"tttttttttttttttt$$$$$$$$$******===>>>>>>777777777222222444OOO444222222222777777<<<>>>;;;===***%%%$$$$$$$$$tttttttttttt",
"ttttttttttttttttttttttttt$$$$$$$$$$$$======>>>222222222eeeqqq###222222222222777>>>======***$$$tttttttttttttttttttttttt",
"ttttttttttttttttttttttttt$$$$$$$$$$$$======>>>222222222eeeqqq###222222222222777>>>======***$$$tttttttttttttttttttttttt",
"ttttttttttttttttttttttttt$$$$$$$$$$$$======>>>222222222eeeqqq###222222222222777>>>======***$$$tttttttttttttttttttttttt",
"tttttttttttttttttttttttttttttttttttttttt===:::777777777rrrqqq333777777777777222777>>>===tttttttttttttttttttttttttttttt",
"tttttttttttttttttttttttttttttttttttttttt===:::777777777rrrqqq333777777777777222777>>>===tttttttttttttttttttttttttttttt",
"tttttttttttttttttttttttttttttttttttttttt===:::777777777rrrqqq333777777777777222777>>>===tttttttttttttttttttttttttttttt",
"ttttttttttttttttttttttttttttttttttttt$$$:::777::::::555666666###+++:::>>>>>>777222:::===tttttttttttttttttttttttttttttt",
"ttttttttttttttttttttttttttttttttttttt$$$:::777::::::555666666###+++:::>>>>>>777222:::===tttttttttttttttttttttttttttttt",
"ttttttttttttttttttttttttttttttttttttt$$$:::777::::::555666666###+++:::>>>>>>777222:::===tttttttttttttttttttttttttttttt",
"ttttttttttttttttttttttttttttttttttttt$$$::::::******qqqrrrqqq555+++*********>>>::::::===tttttttttttttttttttttttttttttt",
"ttttttttttttttttttttttttttttttttttttt$$$::::::******qqqrrrqqq555+++*********>>>::::::===tttttttttttttttttttttttttttttt",
"ttttttttttttttttttttttttttttttttttttt$$$::::::******qqqrrrqqq555+++*********>>>::::::===tttttttttttttttttttttttttttttt",
"tttttttttttttttttttttttttttttttttt$$$***===$$$ttt555333#########444+++tttttt$$$***===***$$$ttttttttttttttttttttttttttt",
"tttttttttttttttttttttttttttttttttt$$$***===$$$ttt555333#########444+++tttttt$$$***===***$$$ttttttttttttttttttttttttttt",
"tttttttttttttttttttttttttttttttttt$$$***===$$$ttt555333#########444+++tttttt$$$***===***$$$ttttttttttttttttttttttttttt",
"tttttttttttttttttttttttttttttttttt$$$$$$ttttttttt555rrrqqq555333+++OOOtttttttttttt$$$$$$$$$ttttttttttttttttttttttttttt",
"tttttttttttttttttttttttttttttttttt$$$$$$ttttttttt555rrrqqq555333+++OOOtttttttttttt$$$$$$$$$ttttttttttttttttttttttttttt",
"tttttttttttttttttttttttttttttttttt$$$$$$ttttttttt555rrrqqq555333+++OOOtttttttttttt$$$$$$$$$ttttttttttttttttttttttttttt",
"ttttttttttttttttttttttttttttttttttttttttttttttttt555###XXXXXXXXX666OOOtttttttttttttttttttttttttttttttttttttttttttttttt",
"ttttttttttttttttttttttttttttttttttttttttttttttttt555###XXXXXXXXX666OOOtttttttttttttttttttttttttttttttttttttttttttttttt",
"ttttttttttttttttttttttttttttttttttttttttttttttttt555###XXXXXXXXX666OOOtttttttttttttttttttttttttttttttttttttttttttttttt",
"tttttttttttttttttttttttttttttttttttttttttttttt555qqqXXX@@@@@@@@@XXXOOOOOOttttttttttttttttttttttttttttttttttttttttttttt",
"tttttttttttttttttttttttttttttttttttttttttttttt555qqqXXX@@@@@@@@@XXXOOOOOOttttttttttttttttttttttttttttttttttttttttttttt",
"tttttttttttttttttttttttttttttttttttttttttttttt555qqqXXX@@@@@@@@@XXXOOOOOOttttttttttttttttttttttttttttttttttttttttttttt",
"tttttttttttttttttttttttttttttttttttttttttttttt555333rrrqqq555555@@@XXXOOOttttttttttttttttttttttttttttttttttttttttttttt",
"tttttttttttttttttttttttttttttttttttttttttttttt555333rrrqqq555555@@@XXXOOOttttttttttttttttttttttttttttttttttttttttttttt",
"tttttttttttttttttttttttttttttttttttttttttttttt555333rrrqqq555555@@@XXXOOOttttttttttttttttttttttttttttttttttttttttttttt",
"ttttttttttttttttttttttttttttttttttttttttttt555qqqrrr666333333333OOOOOO@@@OOOtttttttttttttttttttttttttttttttttttttttttt",
"ttttttttttttttttttttttttttttttttttttttttttt555qqqrrr666333333333OOOOOO@@@OOOtttttttttttttttttttttttttttttttttttttttttt",
"ttttttttttttttttttttttttttttttttttttttttttt555qqqrrr666333333333OOOOOO@@@OOOtttttttttttttttttttttttttttttttttttttttttt",
"ttttttttttttttttttttttttttttttttttttttttttt555666555rrrqqq555555######XXXOOOtttttttttttttttttttttttttttttttttttttttttt",
"ttttttttttttttttttttttttttttttttttttttttttt555666555rrrqqq555555######XXXOOOtttttttttttttttttttttttttttttttttttttttttt",
"ttttttttttttttttttttttttttttttttttttttttttt555666555rrrqqq555555######XXXOOOtttttttttttttttttttttttttttttttttttttttttt",
"ttttttttttttttttttttttttttttttt333444,,,111333qqqrrrrrr@@@oooooo#########XXXtttttttttttttttttttttttttttttttttttttttttt",
"ttttttttttttttttttttttttttttttt333444,,,111333qqqrrrrrr@@@oooooo#########XXXtttttttttttttttttttttttttttttttttttttttttt",
"ttttttttttttttttttttttttttttttt333444,,,111333qqqrrrrrr@@@oooooo#########XXXtttttttttttttttttttttttttttttttttttttttttt",
"tttttttttttttttttttttt###444444444444444,,,555qqqrrr@@@555OOO555ooo###555###XXXttttttttttttttttttttttttttttttttttttttt",
"tttttttttttttttttttttt###444444444444444,,,555qqqrrr@@@555OOO555ooo###555###XXXttttttttttttttttttttttttttttttttttttttt",
"tttttttttttttttttttttt###444444444444444,,,555qqqrrr@@@555OOO555ooo###555###XXXttttttttttttttttttttttttttttttttttttttt",
"ttttttttttttt###333444444444444444333333555000qqq555...         ...ooo555###OOOttttttttttttttttttttttttttttttttttttttt",
"ttttttttttttt###333444444444444444333333555000qqq555...         ...ooo555###OOOttttttttttttttttttttttttttttttttttttttt",
"ttttttttttttt###333444444444444444333333555000qqq555...         ...ooo555###OOOttttttttttttttttttttttttttttttttttttttt",
"ttttttt+++###333444333333######333444###555000rrr###               ooo###555OOOXXXtttttttttttttttttttttttttttttttttttt",
"ttttttt+++###333444333333######333444###555000rrr###               ooo###555OOOXXXtttttttttttttttttttttttttttttttttttt",
"ttttttt+++###333444333333######333444###555000rrr###               ooo###555OOOXXXtttttttttttttttttttttttttttttttttttt"
};
