/* XPM */
static char *result[] = {
/* columns rows colors chars-per-pixel */
"76 54 12 1 ",
"  c gray22",
". c gray33",
"X c #646464",
"o c gray44",
"O c #7C7C7C",
"+ c gray55",
"@ c gray66",
"# c #B4B4B4",
"$ c #D0D0D0",
"% c gainsboro",
"& c gray99",
"* c None",
/* pixels */
"****************************************************************************",
"****************************************************************************",
"****************************************************************************",
"****************************************************************************",
"****************************************************************************",
"****************************************************************************",
"****************************************************************************",
"****************************************************************************",
"****************************************************************************",
"****************************************************************************",
"****************************************************************************",
"****************************************************************************",
"****************************************************************************",
"****************************************************************************",
"****************************************************************************",
"****************************************************************************",
"****************************************************************************",
"****************************************************************************",
"*************************************************+++...+++******************",
"*************************************************+++...+++******************",
"*************************************************+++...+++******************",
"*************************************************...   ...******************",
"*************************************************...   ...******************",
"*************************************************...   ...******************",
"*************************************************.........******************",
"*************************************************.........******************",
"*************************************************.........******************",
"*************************************************$$$###XXX******************",
"*************************************************$$$###XXX******************",
"*************************************************$$$###XXX******************",
"**********************************************@@@&&&%%%+++...***************",
"**********************************************@@@&&&%%%+++...***************",
"**********************************************@@@&&&%%%+++...***************",
"**********************************************@@@######OOO...***************",
"**********************************************@@@######OOO...***************",
"**********************************************@@@######OOO...***************",
"**********************************************%%%&&&%%%@@@...***************",
"**********************************************%%%&&&%%%@@@...***************",
"**********************************************%%%&&&%%%@@@...***************",
"*******************************************@@@@@@OOOOOOOOO......************",
"*******************************************@@@@@@OOOOOOOOO......************",
"*******************************************@@@@@@OOOOOOOOO......************",
"*******************************************@@@&&&%%%@@@+++XXX...************",
"*******************************************@@@&&&%%%@@@+++XXX...************",
"*******************************************@@@&&&%%%@@@+++XXX...************",
"*******************************************%%%###         OOO...************",
"*******************************************%%%###         OOO...************",
"*******************************************%%%###         OOO...************",
"****************************************@@@%%%   ooooooooo   ......*********",
"****************************************@@@%%%   ooooooooo   ......*********",
"****************************************@@@%%%   ooooooooo   ......*********",
"****************************************@@@+++&&&%%%@@@@@@ooo   ...*********",
"****************************************@@@+++&&&%%%@@@@@@ooo   ...*********",
"****************************************@@@+++&&&%%%@@@@@@ooo   ...*********"
};
