/* XPM */
static char *result[] = {
/* columns rows colors chars-per-pixel */
"114 70 25 1 ",
"  c #646464",
". c #7C7C7C",
"X c #980000",
"o c #A80000",
"O c #B00000",
"+ c #C80000",
"@ c #FC0000",
"# c #FC2020",
"$ c #FC4040",
"% c #FC5454",
"& c #FC5C5C",
"* c #FC7C7C",
"= c #FCFC54",
"- c gray55",
"; c #989898",
": c gray66",
"> c #B4B4B4",
", c #FC9C9C",
"< c #FCB8B8",
"1 c #C0C0C0",
"2 c gainsboro",
"3 c #FCD8D8",
"4 c #ECECEC",
"5 c gray99",
"6 c None",
/* pixels */
"666666666666666666666666666666666666666666666666666666666666666666666666666666666666666666666666666666666666666666",
"666666666666666666666666666666666666666666666666666666XXX666666666666666666666666666666666666666666666666666666666",
"666666666666666666666666666666666666666666666666666666XXX666666666666666666666666666666666666666666666666666666666",
"666666666666666666666666666666666666666666666666666666XXX666666666666666666666666666666666666666666666666666666666",
"666666666666666666666666666666666666666666666666666666+++666666666666666666666666666666666666666666666666666666666",
"666666666666666666666666666666666666666666666666666666+++666666666666666666666666666666666666666666666666666666666",
"666666666666666666666666666666666666666666666666666666+++666666666666666666666666666666666666666666666666666666666",
"666666666666666666666666666666666666666666666666666666+++666666666666666666666666666666666666666666666666666666666",
"666666666666666666666666666666666666666666666666666666+++666666666666666666666666666666666666666666666666666666666",
"666666666666666666666666666666666666666666666666666666+++666666666666666666666666666666666666666666666666666666666",
"666666666666666666666666666666666666666666666666666XXX%%%XXX666666666666666666666666666666666666666666666666666666",
"666666666666666666666666666666666666666666666666666XXX%%%XXX666666666666666666666666666666666666666666666666666666",
"666666666666666666666666666666666666666666666666666XXX%%%XXX666666666666666666666666666666666666666666666666666666",
"666666666666666666666666666666666666666666666666666OOO,,,OOO666666XXXXXX666666666666666666666666666666666666666666",
"666666666666666666666666666666666666666666666666666OOO,,,OOO666666XXXXXX666666666666666666666666666666666666666666",
"666666666666666666666666666666666666666666666666666OOO,,,OOO666666XXXXXX666666666666666666666666666666666666666666",
"666666666666666666666666666666666666666666666666XXX+++,,,+++XXXXXXoooXXX666666666666666666666666666666666666666666",
"666666666666666666666666666666666666666666666666XXX+++,,,+++XXXXXXoooXXX666666666666666666666666666666666666666666",
"666666666666666666666666666666666666666666666666XXX+++,,,+++XXXXXXoooXXX666666666666666666666666666666666666666666",
"666666666666666666666666666666666666666666666XXXOOO###,,,###OOO%%%+++666666666666666666666666666666666666666666666",
"666666666666666666666666666666666666666666666XXXOOO###,,,###OOO%%%+++666666666666666666666666666666666666666666666",
"666666666666666666666666666666666666666666666XXXOOO###,,,###OOO%%%+++666666666666666666666666666666666666666666666",
"666666666666666666666666666666666XXXXXX666666+++###%%%===%%%###+++XXX666666666666666666666666666666666666666666666",
"666666666666666666666666666666666XXXXXX666666+++###%%%===%%%###+++XXX666666666666666666666666666666666666666666666",
"666666666666666666666666666666666XXXXXX666666+++###%%%===%%%###+++XXX666666666666666666666666666666666666666666666",
"666666666666666666666666666666666XXX+++++++++,,,$$$%%%===,,,%%%###@@@ooooooXXX666666666666666666666666666666666666",
"666666666666666666666666666666666XXX+++++++++,,,$$$%%%===,,,%%%###@@@ooooooXXX666666666666666666666666666666666666",
"666666666666666666666666666666666XXX+++++++++,,,$$$%%%===,,,%%%###@@@ooooooXXX666666666666666666666666666666666666",
"666666666666666666666666666666666666+++%%%###,,,,,,<<<===<<<,,,%%%###%%%ooo666666666666666666666666666666666666666",
"666666666666666666666666666666666666+++%%%###,,,,,,<<<===<<<,,,%%%###%%%ooo666666666666666666666666666666666666666",
"666666666666666666666666666666666666+++%%%###,,,,,,<<<===<<<,,,%%%###%%%ooo666666666666666666666666666666666666666",
"666666666666666666666666666666666666XXXooo%%%,,,======555======,,,%%%@@@OOO666666666666666666666666666666666666666",
"666666666666666666666666666666666666XXXooo%%%,,,======555======,,,%%%@@@OOO666666666666666666666666666666666666666",
"666666666666666666666666666666666666XXXooo%%%,,,======555======,,,%%%@@@OOO666666666666666666666666666666666666666",
"666666666666666666666666666666666666OOO+++,,,===<<<===555===<<<%%%$$$@@@+++OOO666666666666666666666666666666666666",
"666666666666666666666666666666666666OOO+++,,,===<<<===555===<<<%%%$$$@@@+++OOO666666666666666666666666666666666666",
"666666666666666666666666666666666666OOO+++,,,===<<<===555===<<<%%%$$$@@@+++OOO666666666666666666666666666666666666",
"666666666666666666666XXXXXXXXXXXXOOO+++&&&,,,=========333=========,,,$$$@@@@@@++++++XXXXXX666666666666666666666666",
"666666666666666666666XXXXXXXXXXXXOOO+++&&&,,,=========333=========,,,$$$@@@@@@++++++XXXXXX666666666666666666666666",
"666666666666666666666XXXXXXXXXXXXOOO+++&&&,,,=========333=========,,,$$$@@@@@@++++++XXXXXX666666666666666666666666",
"666666666666XXXXXXXXXooo++++++@@@&&&%%%,,,=========444111444=========,,,,,,******&&&$$$+++oooXXXXXXXXX666666666666",
"666666666666XXXXXXXXXooo++++++@@@&&&%%%,,,=========444111444=========,,,,,,******&&&$$$+++oooXXXXXXXXX666666666666",
"666666666666XXXXXXXXXooo++++++@@@&&&%%%,,,=========444111444=========,,,,,,******&&&$$$+++oooXXXXXXXXX666666666666",
"XXXXXXXXXoooooo+++@@@%%%%%%,,,===,,,=========555333111666111333555============,,,,,,,,,,,,%%%###+++ooooooXXXXXXXXX",
"XXXXXXXXXoooooo+++@@@%%%%%%,,,===,,,=========555333111666111333555============,,,,,,,,,,,,%%%###+++ooooooXXXXXXXXX",
"XXXXXXXXXoooooo+++@@@%%%%%%,,,===,,,=========555333111666111333555============,,,,,,,,,,,,%%%###+++ooooooXXXXXXXXX",
"666666666666XXXXXXXXX++++++@@@&&&&&&,,,,,,,,,======;;;666;;;=========,,,,,,***&&&$$$@@@+++oooXXXXXXXXX666666666666",
"666666666666XXXXXXXXX++++++@@@&&&&&&,,,,,,,,,======;;;666;;;=========,,,,,,***&&&$$$@@@+++oooXXXXXXXXX666666666666",
"666666666666XXXXXXXXX++++++@@@&&&&&&,,,,,,,,,======;;;666;;;=========,,,,,,***&&&$$$@@@+++oooXXXXXXXXX666666666666",
"666666666666666666666XXXXXXXXXXXX@@@@@@&&&=========444222...============,,,&&&@@@@@@+++XXX666666666666666666666666",
"666666666666666666666XXXXXXXXXXXX@@@@@@&&&=========444222...============,,,&&&@@@@@@+++XXX666666666666666666666666",
"666666666666666666666XXXXXXXXXXXX@@@@@@&&&=========444222...============,,,&&&@@@@@@+++XXX666666666666666666666666",
"666666666666666666666666666666666666@@@%%%,,,,,,,,,666666666,,,,,,,,,,,,===,,,&&&@@@666666666666666666666666666666",
"666666666666666666666666666666666666@@@%%%,,,,,,,,,666666666,,,,,,,,,,,,===,,,&&&@@@666666666666666666666666666666",
"666666666666666666666666666666666666@@@%%%,,,,,,,,,666666666,,,,,,,,,,,,===,,,&&&@@@666666666666666666666666666666",
"666666666666666666666666666666666XXX%%%,,,%%%%%%666666666666   %%%&&&&&&,,,===%%%@@@666666666666666666666666666666",
"666666666666666666666666666666666XXX%%%,,,%%%%%%666666666666   %%%&&&&&&,,,===%%%@@@666666666666666666666666666666",
"666666666666666666666666666666666XXX%%%,,,%%%%%%666666666666   %%%&&&&&&,,,===%%%@@@666666666666666666666666666666",
"666666666666666666666666666666666XXX%%%%%%++++++666666666666   +++++++++&&&%%%%%%@@@666666666666666666666666666666",
"666666666666666666666666666666666XXX%%%%%%++++++666666666666   +++++++++&&&%%%%%%@@@666666666666666666666666666666",
"666666666666666666666666666666666XXX%%%%%%++++++666666666666   +++++++++&&&%%%%%%@@@666666666666666666666666666666",
"666666666666666666666666666666XXX+++@@@XXX666666---666666666;;;   666666XXX+++@@@+++XXX666666666666666666666666666",
"666666666666666666666666666666XXX+++@@@XXX666666---666666666;;;   666666XXX+++@@@+++XXX666666666666666666666666666",
"666666666666666666666666666666XXX+++@@@XXX666666---666666666;;;   666666XXX+++@@@+++XXX666666666666666666666666666",
"666666666666666666666666666666XXXXXX666666666666666666666666666666666666666666XXXXXXXXX666666666666666666666666666",
"666666666666666666666666666666XXXXXX666666666666666666666666666666666666666666XXXXXXXXX666666666666666666666666666",
"666666666666666666666666666666XXXXXX666666666666666666666666666666666666666666XXXXXXXXX666666666666666666666666666",
"666666666666666666666666666666666666666666666:::...666666666>>>666666666666666666666666666666666666666666666666666",
"666666666666666666666666666666666666666666666:::...666666666>>>666666666666666666666666666666666666666666666666666",
"666666666666666666666666666666666666666666666:::...666666666>>>666666666666666666666666666666666666666666666666666"
};
